<?xml version="1.0" encoding="UTF-8"?>
<mxfile host="app.diagrams.net" modified="2024-01-29T13:04:40.000Z" agent="5.0 (X11; Linux x86_64) AppleWebKit/537.36 (KHTML, like Gecko) Chrome/101.0.0.0 Safari/537.36" etag="ETAG111111111111xx01" version="20.0.1" type="embed">
  <diagram id="DIAGRAM111111111xx01" name="Page-1">
    <mxGraphModel dx="1219" dy="1005" grid="1" gridSize="10" guides="1" tooltips="1" connect="1" arrows="1" fold="1" page="1" pageScale="1" pageWidth="850" pageHeight="1100" math="0" shadow="0">
      <root>
        <mxCell id="0" />
        <mxCell id="1" parent="0" />
        <UserObject label="" plantUmlData="{&#xa;  &quot;data&quot;: &quot;\n@startuml Goals\n!include &lt;archimate/Archimate&gt;\nleft to right direction\n\nMotivation_Requirement(&quot;CI1UniqueIdentifier&quot;, &quot;=CI1\n-\nUnique\nIdentifier&quot;)\nMotivation_Requirement(&quot;CI2Assettypehierarchy&quot;, &quot;=CI2\n-\nAsset\ntype\nhierarchy&quot;)\nMotivation_Requirement(&quot;CI3Attributes&quot;, &quot;=CI3\n-\nAttributes&quot;)\nMotivation_Requirement(&quot;CI4Relationships&quot;, &quot;=CI4\n-\nRelationships&quot;)\nMotivation_Requirement(&quot;CI5Mandatoryattributes&quot;, &quot;=CI5\n-\nMandatory\nattributes&quot;)\nMotivation_Requirement(&quot;CI7Customassettypes&quot;, &quot;=CI7\n-\nCustom\nasset\ntypes&quot;)\nMotivation_Requirement(&quot;AUTH2Remoteuserdatabase&quot;, &quot;=AUTH-2\nRemote\nuser\ndatabase&quot;)\nMotivation_Requirement(&quot;INFO4AutomatedAssetdiscovery&quot;, &quot;=INFO-4\nAutomated\nAsset\ndiscovery&quot;)\nMotivation_Requirement(&quot;INFO5DisableAutomaticInformationGathering&quot;, &quot;=INFO-5\nDisable\nAutomatic\nInformation\nGathering&quot;)\nMotivation_Requirement(&quot;CI6AuditLog&quot;, &quot;=CI6\n-\nAudit\nLog&quot;)\nMotivation_Requirement(&quot;AUTH1LocalUserDatabase&quot;, &quot;=AUTH-1\nLocal\nUser\nDatabase&quot;)\nMotivation_Requirement(&quot;INFO1Manualentries&quot;, &quot;=INFO-1\nManual\nentries&quot;)\nMotivation_Requirement(&quot;INFO2Automaticinformationgathering&quot;, &quot;=INFO-2\nAutomatic\ninformation\ngathering&quot;)\nMotivation_Requirement(&quot;INFO7Dataaccesscontrol&quot;, &quot;=INFO-7\nData\naccess\ncontrol&quot;)\nMotivation_Requirement(&quot;INFO8SecureDataTransmission&quot;, &quot;=INFO-8\nSecure\nData\nTransmission&quot;)\nMotivation_Requirement(&quot;AUTH3Priorityofuserdatabases&quot;, &quot;=AUTH-3\nPriority\nof\nuser\ndatabases&quot;)\nMotivation_Requirement(&quot;INFO6SecureDataStorage&quot;, &quot;=INFO-6\nSecure\nData\nStorage&quot;)\nMotivation_Requirement(&quot;ARCH113FeaturesandUserstories&quot;, &quot;=ARCH-1.1.3\nFeatures\nand\nUser\nstories&quot;)\nMotivation_Requirement(&quot;ARCH112Threatmodeling&quot;, &quot;=ARCH-1.1.2\nThreat\nmodeling&quot;)\nMotivation_Requirement(&quot;ARCH122ComponentCommunication&quot;, &quot;=ARCH-1.2.2\nComponent\nCommunication&quot;)\nMotivation_Requirement(&quot;ARCH123AuthenticationMechanism&quot;, &quot;=ARCH-1.2.3\nAuthentication\nMechanism&quot;)\nMotivation_Requirement(&quot;ARCH144AccessControlMechanism&quot;, &quot;=ARCH-1.4.4\nAccess\nControl\nMechanism&quot;)\nMotivation_Requirement(&quot;ARCH171Logging&quot;, &quot;=ARCH-1.7.1\nLogging&quot;)\nMotivation_Requirement(&quot;ARCH1112Unsynchronizedstate&quot;, &quot;=ARCH-1.11.2\nUnsynchronized\nstate&quot;)\nMotivation_Requirement(&quot;ARCH1141Segregation&quot;, &quot;=ARCH-1.14.1\nSegregation&quot;)\nMotivation_Requirement(&quot;ARCH162Keyprotection&quot;, &quot;=ARCH-1.6.2\nKey\nprotection&quot;)\nMotivation_Requirement(&quot;ARCH163Keyreplacement&quot;, &quot;=ARCH-1.6.3\nKey\nreplacement&quot;)\nMotivation_Requirement(&quot;ARCH116DesignandArchitectSecurityIn&quot;, &quot;=ARCH-1.1.6\nDesign\nand\nArchitect\nSecurity\nIn&quot;)\nMotivation_Requirement(&quot;ARCH111SDLC&quot;, &quot;=ARCH-1.1.1\nSDLC&quot;)\nMotivation_Requirement(&quot;ARCH124Authenticationpaths&quot;, &quot;=ARCH-1.2.4\nAuthentication\npaths&quot;)\nMotivation_Requirement(&quot;ARCH141AccessEnforcementPoints&quot;, &quot;=ARCH-1.4.1\nAccess\nEnforcement\nPoints&quot;)\nMotivation_Requirement(&quot;ARCH152Serialization&quot;, &quot;=ARCH-1.5.2\nSerialization&quot;)\nMotivation_Requirement(&quot;ARCH153Inputvalidation&quot;, &quot;=ARCH-1.5.3\nInput\nvalidation&quot;)\nMotivation_Requirement(&quot;ARCH154Outputencoding&quot;, &quot;=ARCH-1.5.4\nOutput\nencoding&quot;)\nMotivation_Requirement(&quot;ARCH1113ThreadSafe&quot;, &quot;=ARCH-1.11.3\nThread\nSafe&quot;)\nMotivation_Requirement(&quot;SDLC4Documenthighlevelarchitectureandthreatmodel&quot;, &quot;=SDLC4\n-\nDocument\nhigh\nlevel\narchitecture\nand\nthreat\nmodel&quot;)\nMotivation_Requirement(&quot;ARCH191CommunicationProtection&quot;, &quot;=ARCH-1.9.1\nCommunication\nProtection&quot;)\nMotivation_Requirement(&quot;INFO3LocalDatastore&quot;, &quot;=INFO-3\nLocal\nData\nstore&quot;)\nMotivation_Requirement(&quot;ARCH2Plugins&quot;, &quot;=ARCH-2\nPlugins&quot;)\nMotivation_Requirement(&quot;SDLC1BuildSystem&quot;, &quot;=SDLC1\n-\nBuild\nSystem&quot;)\nMotivation_Requirement(&quot;SDLC2DependencyManagement&quot;, &quot;=SDLC2\n-\nDependency\nManagement&quot;)\nMotivation_Requirement(&quot;SDLC3Technicalsystemdocumentation&quot;, &quot;=SDLC3\n-\nTechnical\nsystem\ndocumentation&quot;)\nMotivation_Requirement(&quot;UI1Screenresolutionsandsizes&quot;, &quot;=UI1\n-\nScreen\nresolutions\nand\nsizes&quot;)\nMotivation_Requirement(&quot;UI2Platformindependence&quot;, &quot;=UI2\n-\nPlatform\nindependence&quot;)\nMotivation_Requirement(&quot;BACK1PlatformSupport&quot;, &quot;=BACK1\n-\nPlatform\nSupport&quot;)\nRel_Influence(&quot;ARCH112Threatmodeling&quot;, &quot;ARCH113FeaturesandUserstories&quot;)\nRel_Influence(&quot;SDLC4Documenthighlevelarchitectureandthreatmodel&quot;, &quot;ARCH112Threatmodeling&quot;)\nRel_Influence(&quot;ARCH113FeaturesandUserstories&quot;, &quot;ARCH116DesignandArchitectSecurityIn&quot;)\nRel_Influence(&quot;ARCH112Threatmodeling&quot;, &quot;ARCH116DesignandArchitectSecurityIn&quot;)\nRel_Influence(&quot;ARCH111SDLC&quot;, &quot;ARCH116DesignandArchitectSecurityIn&quot;)\nRel_Aggregation(&quot;ARCH116DesignandArchitectSecurityIn&quot;, &quot;ARCH122ComponentCommunication&quot;)\nRel_Aggregation(&quot;ARCH116DesignandArchitectSecurityIn&quot;, &quot;ARCH124Authenticationpaths&quot;)\nRel_Aggregation(&quot;ARCH116DesignandArchitectSecurityIn&quot;, &quot;ARCH123AuthenticationMechanism&quot;)\nRel_Association(&quot;ARCH124Authenticationpaths&quot;, &quot;ARCH123AuthenticationMechanism&quot;)\nRel_Aggregation(&quot;ARCH116DesignandArchitectSecurityIn&quot;, &quot;ARCH141AccessEnforcementPoints&quot;)\nRel_Association(&quot;ARCH144AccessControlMechanism&quot;, &quot;ARCH141AccessEnforcementPoints&quot;)\nRel_Aggregation(&quot;ARCH116DesignandArchitectSecurityIn&quot;, &quot;ARCH144AccessControlMechanism&quot;)\nRel_Aggregation(&quot;ARCH116DesignandArchitectSecurityIn&quot;, &quot;ARCH152Serialization&quot;)\nRel_Aggregation(&quot;ARCH116DesignandArchitectSecurityIn&quot;, &quot;ARCH153Inputvalidation&quot;)\nRel_Association(&quot;ARCH152Serialization&quot;, &quot;ARCH153Inputvalidation&quot;)\nRel_Aggregation(&quot;ARCH116DesignandArchitectSecurityIn&quot;, &quot;ARCH154Outputencoding&quot;)\nRel_Association(&quot;ARCH152Serialization&quot;, &quot;ARCH154Outputencoding&quot;)\nRel_Aggregation(&quot;ARCH116DesignandArchitectSecurityIn&quot;, &quot;ARCH171Logging&quot;)\nRel_Aggregation(&quot;ARCH116DesignandArchitectSecurityIn&quot;, &quot;ARCH1112Unsynchronizedstate&quot;)\nRel_Aggregation(&quot;ARCH116DesignandArchitectSecurityIn&quot;, &quot;ARCH1113ThreadSafe&quot;)\nRel_Aggregation(&quot;ARCH116DesignandArchitectSecurityIn&quot;, &quot;ARCH1141Segregation&quot;)\nRel_Realization(&quot;ARCH123AuthenticationMechanism&quot;, &quot;AUTH1LocalUserDatabase&quot;)\nRel_Influence(&quot;INFO6SecureDataStorage&quot;, &quot;AUTH1LocalUserDatabase&quot;)\nRel_Realization(&quot;ARCH123AuthenticationMechanism&quot;, &quot;AUTH2Remoteuserdatabase&quot;)\nRel_Influence(&quot;INFO8SecureDataTransmission&quot;, &quot;AUTH2Remoteuserdatabase&quot;)\nRel_Association(&quot;AUTH1LocalUserDatabase&quot;, &quot;AUTH3Priorityofuserdatabases&quot;)\nRel_Association(&quot;AUTH2Remoteuserdatabase&quot;, &quot;AUTH3Priorityofuserdatabases&quot;)\nRel_Influence(&quot;INFO2Automaticinformationgathering&quot;, &quot;INFO1Manualentries&quot;)\nRel_Influence(&quot;ARCH2Plugins&quot;, &quot;INFO1Manualentries&quot;)\nRel_Influence(&quot;ARCH2Plugins&quot;, &quot;INFO2Automaticinformationgathering&quot;)\nRel_Influence(&quot;INFO5DisableAutomaticInformationGathering&quot;, &quot;INFO2Automaticinformationgathering&quot;)\nRel_Influence(&quot;INFO6SecureDataStorage&quot;, &quot;INFO3LocalDatastore&quot;)\nRel_Specialization(&quot;CI5Mandatoryattributes&quot;, &quot;CI1UniqueIdentifier&quot;)\nRel_Realization(&quot;CI5Mandatoryattributes&quot;, &quot;CI2Assettypehierarchy&quot;)\nRel_Influence(&quot;ARCH2Plugins&quot;, &quot;CI2Assettypehierarchy&quot;)\nRel_Influence(&quot;ARCH2Plugins&quot;, &quot;CI3Attributes&quot;)\nRel_Specialization(&quot;CI3Attributes&quot;, &quot;CI4Relationships&quot;)\nRel_Specialization(&quot;CI3Attributes&quot;, &quot;CI5Mandatoryattributes&quot;)\nRel_Realization(&quot;ARCH171Logging&quot;, &quot;CI6AuditLog&quot;)\nRel_Influence(&quot;CI5Mandatoryattributes&quot;, &quot;CI7Customassettypes&quot;)\nRel_Realization(&quot;INFO2Automaticinformationgathering&quot;, &quot;INFO4AutomatedAssetdiscovery&quot;)\nRel_Influence(&quot;ARCH122ComponentCommunication&quot;, &quot;ARCH2Plugins&quot;)\nRel_Aggregation(&quot;ARCH116DesignandArchitectSecurityIn&quot;, &quot;ARCH162Keyprotection&quot;)\nRel_Aggregation(&quot;ARCH116DesignandArchitectSecurityIn&quot;, &quot;ARCH163Keyreplacement&quot;)\nRel_Aggregation(&quot;ARCH111SDLC&quot;, &quot;SDLC1BuildSystem&quot;)\nRel_Aggregation(&quot;ARCH111SDLC&quot;, &quot;SDLC2DependencyManagement&quot;)\nRel_Influence(&quot;ARCH116DesignandArchitectSecurityIn&quot;, &quot;SDLC3Technicalsystemdocumentation&quot;)\nRel_Influence(&quot;SDLC4Documenthighlevelarchitectureandthreatmodel&quot;, &quot;SDLC3Technicalsystemdocumentation&quot;)\nRel_Influence(&quot;ARCH124Authenticationpaths&quot;, &quot;UI2Platformindependence&quot;)\nRel_Influence(&quot;ARCH141AccessEnforcementPoints&quot;, &quot;UI2Platformindependence&quot;)\nRel_Influence(&quot;ARCH124Authenticationpaths&quot;, &quot;BACK1PlatformSupport&quot;)\nRel_Influence(&quot;ARCH141AccessEnforcementPoints&quot;, &quot;BACK1PlatformSupport&quot;)\nRel_Influence(&quot;ARCH152Serialization&quot;, &quot;INFO6SecureDataStorage&quot;)\nRel_Influence(&quot;ARCH162Keyprotection&quot;, &quot;INFO6SecureDataStorage&quot;)\nRel_Influence(&quot;ARCH163Keyreplacement&quot;, &quot;INFO6SecureDataStorage&quot;)\nRel_Realization(&quot;ARCH144AccessControlMechanism&quot;, &quot;INFO7Dataaccesscontrol&quot;)\nRel_Influence(&quot;AUTH1LocalUserDatabase&quot;, &quot;INFO7Dataaccesscontrol&quot;)\nRel_Influence(&quot;AUTH2Remoteuserdatabase&quot;, &quot;INFO7Dataaccesscontrol&quot;)\nRel_Influence(&quot;ARCH162Keyprotection&quot;, &quot;INFO8SecureDataTransmission&quot;)\nRel_Influence(&quot;ARCH163Keyreplacement&quot;, &quot;INFO8SecureDataTransmission&quot;)\nRel_Realization(&quot;ARCH191CommunicationProtection&quot;, &quot;INFO8SecureDataTransmission&quot;)\nRel_Aggregation(&quot;ARCH116DesignandArchitectSecurityIn&quot;, &quot;ARCH191CommunicationProtection&quot;)\nRel_Association(&quot;ARCH122ComponentCommunication&quot;, &quot;ARCH191CommunicationProtection&quot;)\n@enduml\n    &quot;,&#xa;  &quot;format&quot;: &quot;svg&quot;&#xa;}" id="USEROBJECT111111xx01-1">
          <mxCell style="shape=image;noLabel=1;verticalAlign=top;aspect=fixed;imageAspect=0;image=data:image/svg+xml,PD94bWwgdmVyc2lvbj0iMS4wIiBlbmNvZGluZz0idXMtYXNjaWkiIHN0YW5kYWxvbmU9Im5vIj8+PHN2ZyB4bWxucz0iaHR0cDovL3d3dy53My5vcmcvMjAwMC9zdmciIHhtbG5zOnhsaW5rPSJodHRwOi8vd3d3LnczLm9yZy8xOTk5L3hsaW5rIiBjb250ZW50U3R5bGVUeXBlPSJ0ZXh0L2NzcyIgaGVpZ2h0PSIyNDI0cHgiIHByZXNlcnZlQXNwZWN0UmF0aW89Im5vbmUiIHN0eWxlPSJ3aWR0aDoxNjkwcHg7aGVpZ2h0OjI0MjRweDtiYWNrZ3JvdW5kOiNGRkZGRkY7IiB2ZXJzaW9uPSIxLjEiIHZpZXdCb3g9IjAgMCAxNjkwIDI0MjQiIHdpZHRoPSIxNjkwcHgiIHpvb21BbmRQYW49Im1hZ25pZnkiPjxkZWZzLz48Zz48IS0tZW50aXR5IENJMVVuaXF1ZUlkZW50aWZpZXItLT48ZyBpZD0iZWxlbV9DSTFVbmlxdWVJZGVudGlmaWVyIj48cGF0aCBkPSJNMTYwNi41LDE4NiBMMTY2MS41LDE4NiBMMTY3My41LDE5OCBMMTY3My41LDI3OC44NDM4IEwxNjYxLjUsMjkwLjg0MzggTDE2MDYuNSwyOTAuODQzOCBMMTU5NC41LDI3OC44NDM4IEwxNTk0LjUsMTk4IEwxNjA2LjUsMTg2ICIgZmlsbD0iI0VGRUZGRiIgc3R5bGU9InN0cm9rZTojMTgxODE4O3N0cm9rZS13aWR0aDowLjU7Ii8+PGltYWdlIGhlaWdodD0iMTYiIHdpZHRoPSIxNiIgeD0iMTY0OC41IiB4bGluazpocmVmPSJkYXRhOmltYWdlL3BuZztiYXNlNjQsaVZCT1J3MEtHZ29BQUFBTlNVaEVVZ0FBQUJBQUFBQVFDQVlBQUFBZjgvOWhBQUFBTGtsRVFWUjRYbU5nR0piZ0g0a1lCZnc3YytiL2YySXhSUVpRcEpsaUF5alNUTEVCRkduR2FRQ0plQlNnQVFEbVVTOGdZc3JMc0FBQUFBQkpSVTVFcmtKZ2dnPT0iIHk9IjE5NiIvPjx0ZXh0IGZpbGw9IiMwMDAwMDAiIGZvbnQtZmFtaWx5PSJzYW5zLXNlcmlmIiBmb250LXNpemU9IjE4IiBmb250LXdlaWdodD0iYm9sZCIgbGVuZ3RoQWRqdXN0PSJzcGFjaW5nIiB0ZXh0TGVuZ3RoPSIzMyIgeD0iMTYxNy41IiB5PSIyMjcuNzA4Ij5DSTE8L3RleHQ+PHRleHQgZmlsbD0iIzAwMDAwMCIgZm9udC1mYW1pbHk9InNhbnMtc2VyaWYiIGZvbnQtc2l6ZT0iMTQiIGxlbmd0aEFkanVzdD0ic3BhY2luZyIgdGV4dExlbmd0aD0iNSIgeD0iMTYzMS41IiB5PSIyNDQuOTQ4MiI+LTwvdGV4dD48dGV4dCBmaWxsPSIjMDAwMDAwIiBmb250LWZhbWlseT0ic2Fucy1zZXJpZiIgZm9udC1zaXplPSIxNCIgbGVuZ3RoQWRqdXN0PSJzcGFjaW5nIiB0ZXh0TGVuZ3RoPSI0OSIgeD0iMTYwOS41IiB5PSIyNjEuMjQ1MSI+VW5pcXVlPC90ZXh0Pjx0ZXh0IGZpbGw9IiMwMDAwMDAiIGZvbnQtZmFtaWx5PSJzYW5zLXNlcmlmIiBmb250LXNpemU9IjE0IiBsZW5ndGhBZGp1c3Q9InNwYWNpbmciIHRleHRMZW5ndGg9IjU5IiB4PSIxNjA0LjUiIHk9IjI3Ny41NDIiPklkZW50aWZpZXI8L3RleHQ+PC9nPjwhLS1lbnRpdHkgQ0kyQXNzZXR0eXBlaGllcmFyY2h5LS0+PGcgaWQ9ImVsZW1fQ0kyQXNzZXR0eXBlaGllcmFyY2h5Ij48cGF0aCBkPSJNMTYwNC41LDYgTDE2NjMuNSw2IEwxNjc1LjUsMTggTDE2NzUuNSwxMTUuMTQwNiBMMTY2My41LDEyNy4xNDA2IEwxNjA0LjUsMTI3LjE0MDYgTDE1OTIuNSwxMTUuMTQwNiBMMTU5Mi41LDE4IEwxNjA0LjUsNiAiIGZpbGw9IiNFRkVGRkYiIHN0eWxlPSJzdHJva2U6IzE4MTgxODtzdHJva2Utd2lkdGg6MC41OyIvPjxpbWFnZSBoZWlnaHQ9IjE2IiB3aWR0aD0iMTYiIHg9IjE2NTAuNSIgeGxpbms6aHJlZj0iZGF0YTppbWFnZS9wbmc7YmFzZTY0LGlWQk9SdzBLR2dvQUFBQU5TVWhFVWdBQUFCQUFBQUFRQ0FZQUFBQWY4LzloQUFBQUxrbEVRVlI0WG1OZ0dKYmdINGtZQmZ3N2MrYi9mMkl4UlFaUXBKbGlBeWpTVExFQkZHbkdhUUNKZUJTZ0FRRG1VUzhnWXNyTHNBQUFBQUJKUlU1RXJrSmdnZz09IiB5PSIxNiIvPjx0ZXh0IGZpbGw9IiMwMDAwMDAiIGZvbnQtZmFtaWx5PSJzYW5zLXNlcmlmIiBmb250LXNpemU9IjE4IiBmb250LXdlaWdodD0iYm9sZCIgbGVuZ3RoQWRqdXN0PSJzcGFjaW5nIiB0ZXh0TGVuZ3RoPSIzMyIgeD0iMTYxNy41IiB5PSI0Ny43MDgiPkNJMjwvdGV4dD48dGV4dCBmaWxsPSIjMDAwMDAwIiBmb250LWZhbWlseT0ic2Fucy1zZXJpZiIgZm9udC1zaXplPSIxNCIgbGVuZ3RoQWRqdXN0PSJzcGFjaW5nIiB0ZXh0TGVuZ3RoPSI1IiB4PSIxNjMxLjUiIHk9IjY0Ljk0ODIiPi08L3RleHQ+PHRleHQgZmlsbD0iIzAwMDAwMCIgZm9udC1mYW1pbHk9InNhbnMtc2VyaWYiIGZvbnQtc2l6ZT0iMTQiIGxlbmd0aEFkanVzdD0ic3BhY2luZyIgdGV4dExlbmd0aD0iMzkiIHg9IjE2MTQuNSIgeT0iODEuMjQ1MSI+QXNzZXQ8L3RleHQ+PHRleHQgZmlsbD0iIzAwMDAwMCIgZm9udC1mYW1pbHk9InNhbnMtc2VyaWYiIGZvbnQtc2l6ZT0iMTQiIGxlbmd0aEFkanVzdD0ic3BhY2luZyIgdGV4dExlbmd0aD0iMzAiIHg9IjE2MTkiIHk9Ijk3LjU0MiI+dHlwZTwvdGV4dD48dGV4dCBmaWxsPSIjMDAwMDAwIiBmb250LWZhbWlseT0ic2Fucy1zZXJpZiIgZm9udC1zaXplPSIxNCIgbGVuZ3RoQWRqdXN0PSJzcGFjaW5nIiB0ZXh0TGVuZ3RoPSI2MyIgeD0iMTYwMi41IiB5PSIxMTMuODM4OSI+aGllcmFyY2h5PC90ZXh0PjwvZz48IS0tZW50aXR5IENJM0F0dHJpYnV0ZXMtLT48ZyBpZD0iZWxlbV9DSTNBdHRyaWJ1dGVzIj48cGF0aCBkPSJNMTI0MCwyMjggTDEzMDMsMjI4IEwxMzE1LDI0MCBMMTMxNSwzMDQuNTQ2OSBMMTMwMywzMTYuNTQ2OSBMMTI0MCwzMTYuNTQ2OSBMMTIyOCwzMDQuNTQ2OSBMMTIyOCwyNDAgTDEyNDAsMjI4ICIgZmlsbD0iI0VGRUZGRiIgc3R5bGU9InN0cm9rZTojMTgxODE4O3N0cm9rZS13aWR0aDowLjU7Ii8+PGltYWdlIGhlaWdodD0iMTYiIHdpZHRoPSIxNiIgeD0iMTI5MCIgeGxpbms6aHJlZj0iZGF0YTppbWFnZS9wbmc7YmFzZTY0LGlWQk9SdzBLR2dvQUFBQU5TVWhFVWdBQUFCQUFBQUFRQ0FZQUFBQWY4LzloQUFBQUxrbEVRVlI0WG1OZ0dKYmdINGtZQmZ3N2MrYi9mMkl4UlFaUXBKbGlBeWpTVExFQkZHbkdhUUNKZUJTZ0FRRG1VUzhnWXNyTHNBQUFBQUJKUlU1RXJrSmdnZz09IiB5PSIyMzgiLz48dGV4dCBmaWxsPSIjMDAwMDAwIiBmb250LWZhbWlseT0ic2Fucy1zZXJpZiIgZm9udC1zaXplPSIxOCIgZm9udC13ZWlnaHQ9ImJvbGQiIGxlbmd0aEFkanVzdD0ic3BhY2luZyIgdGV4dExlbmd0aD0iMzMiIHg9IjEyNTUiIHk9IjI2OS43MDgiPkNJMzwvdGV4dD48dGV4dCBmaWxsPSIjMDAwMDAwIiBmb250LWZhbWlseT0ic2Fucy1zZXJpZiIgZm9udC1zaXplPSIxNCIgbGVuZ3RoQWRqdXN0PSJzcGFjaW5nIiB0ZXh0TGVuZ3RoPSI1IiB4PSIxMjY5IiB5PSIyODYuOTQ4MiI+LTwvdGV4dD48dGV4dCBmaWxsPSIjMDAwMDAwIiBmb250LWZhbWlseT0ic2Fucy1zZXJpZiIgZm9udC1zaXplPSIxNCIgbGVuZ3RoQWRqdXN0PSJzcGFjaW5nIiB0ZXh0TGVuZ3RoPSI2NyIgeD0iMTIzOCIgeT0iMzAzLjI0NTEiPkF0dHJpYnV0ZXM8L3RleHQ+PC9nPjwhLS1lbnRpdHkgQ0k0UmVsYXRpb25zaGlwcy0tPjxnIGlkPSJlbGVtX0NJNFJlbGF0aW9uc2hpcHMiPjxwYXRoIGQ9Ik0xNDE4LDk2IEwxNTA3LDk2IEwxNTE5LDEwOCBMMTUxOSwxNzIuNTQ2OSBMMTUwNywxODQuNTQ2OSBMMTQxOCwxODQuNTQ2OSBMMTQwNiwxNzIuNTQ2OSBMMTQwNiwxMDggTDE0MTgsOTYgIiBmaWxsPSIjRUZFRkZGIiBzdHlsZT0ic3Ryb2tlOiMxODE4MTg7c3Ryb2tlLXdpZHRoOjAuNTsiLz48aW1hZ2UgaGVpZ2h0PSIxNiIgd2lkdGg9IjE2IiB4PSIxNDk0IiB4bGluazpocmVmPSJkYXRhOmltYWdlL3BuZztiYXNlNjQsaVZCT1J3MEtHZ29BQUFBTlNVaEVVZ0FBQUJBQUFBQVFDQVlBQUFBZjgvOWhBQUFBTGtsRVFWUjRYbU5nR0piZ0g0a1lCZnc3YytiL2YySXhSUVpRcEpsaUF5alNUTEVCRkduR2FRQ0plQlNnQVFEbVVTOGdZc3JMc0FBQUFBQkpSVTVFcmtKZ2dnPT0iIHk9IjEwNiIvPjx0ZXh0IGZpbGw9IiMwMDAwMDAiIGZvbnQtZmFtaWx5PSJzYW5zLXNlcmlmIiBmb250LXNpemU9IjE4IiBmb250LXdlaWdodD0iYm9sZCIgbGVuZ3RoQWRqdXN0PSJzcGFjaW5nIiB0ZXh0TGVuZ3RoPSIzMyIgeD0iMTQ0NiIgeT0iMTM3LjcwOCI+Q0k0PC90ZXh0Pjx0ZXh0IGZpbGw9IiMwMDAwMDAiIGZvbnQtZmFtaWx5PSJzYW5zLXNlcmlmIiBmb250LXNpemU9IjE0IiBsZW5ndGhBZGp1c3Q9InNwYWNpbmciIHRleHRMZW5ndGg9IjUiIHg9IjE0NjAiIHk9IjE1NC45NDgyIj4tPC90ZXh0Pjx0ZXh0IGZpbGw9IiMwMDAwMDAiIGZvbnQtZmFtaWx5PSJzYW5zLXNlcmlmIiBmb250LXNpemU9IjE0IiBsZW5ndGhBZGp1c3Q9InNwYWNpbmciIHRleHRMZW5ndGg9IjkzIiB4PSIxNDE2IiB5PSIxNzEuMjQ1MSI+UmVsYXRpb25zaGlwczwvdGV4dD48L2c+PCEtLWVudGl0eSBDSTVNYW5kYXRvcnlhdHRyaWJ1dGVzLS0+PGcgaWQ9ImVsZW1fQ0k1TWFuZGF0b3J5YXR0cmlidXRlcyI+PHBhdGggZD0iTTE0MjguNSwyMjAgTDE0OTYuNSwyMjAgTDE1MDguNSwyMzIgTDE1MDguNSwzMTIuODQzOCBMMTQ5Ni41LDMyNC44NDM4IEwxNDI4LjUsMzI0Ljg0MzggTDE0MTYuNSwzMTIuODQzOCBMMTQxNi41LDIzMiBMMTQyOC41LDIyMCAiIGZpbGw9IiNFRkVGRkYiIHN0eWxlPSJzdHJva2U6IzE4MTgxODtzdHJva2Utd2lkdGg6MC41OyIvPjxpbWFnZSBoZWlnaHQ9IjE2IiB3aWR0aD0iMTYiIHg9IjE0ODMuNSIgeGxpbms6aHJlZj0iZGF0YTppbWFnZS9wbmc7YmFzZTY0LGlWQk9SdzBLR2dvQUFBQU5TVWhFVWdBQUFCQUFBQUFRQ0FZQUFBQWY4LzloQUFBQUxrbEVRVlI0WG1OZ0dKYmdINGtZQmZ3N2MrYi9mMkl4UlFaUXBKbGlBeWpTVExFQkZHbkdhUUNKZUJTZ0FRRG1VUzhnWXNyTHNBQUFBQUJKUlU1RXJrSmdnZz09IiB5PSIyMzAiLz48dGV4dCBmaWxsPSIjMDAwMDAwIiBmb250LWZhbWlseT0ic2Fucy1zZXJpZiIgZm9udC1zaXplPSIxOCIgZm9udC13ZWlnaHQ9ImJvbGQiIGxlbmd0aEFkanVzdD0ic3BhY2luZyIgdGV4dExlbmd0aD0iMzMiIHg9IjE0NDYiIHk9IjI2MS43MDgiPkNJNTwvdGV4dD48dGV4dCBmaWxsPSIjMDAwMDAwIiBmb250LWZhbWlseT0ic2Fucy1zZXJpZiIgZm9udC1zaXplPSIxNCIgbGVuZ3RoQWRqdXN0PSJzcGFjaW5nIiB0ZXh0TGVuZ3RoPSI1IiB4PSIxNDYwIiB5PSIyNzguOTQ4MiI+LTwvdGV4dD48dGV4dCBmaWxsPSIjMDAwMDAwIiBmb250LWZhbWlseT0ic2Fucy1zZXJpZiIgZm9udC1zaXplPSIxNCIgbGVuZ3RoQWRqdXN0PSJzcGFjaW5nIiB0ZXh0TGVuZ3RoPSI3MiIgeD0iMTQyNi41IiB5PSIyOTUuMjQ1MSI+TWFuZGF0b3J5PC90ZXh0Pjx0ZXh0IGZpbGw9IiMwMDAwMDAiIGZvbnQtZmFtaWx5PSJzYW5zLXNlcmlmIiBmb250LXNpemU9IjE0IiBsZW5ndGhBZGp1c3Q9InNwYWNpbmciIHRleHRMZW5ndGg9IjY2IiB4PSIxNDI5LjUiIHk9IjMxMS41NDIiPmF0dHJpYnV0ZXM8L3RleHQ+PC9nPjwhLS1lbnRpdHkgQ0k3Q3VzdG9tYXNzZXR0eXBlcy0tPjxnIGlkPSJlbGVtX0NJN0N1c3RvbWFzc2V0dHlwZXMiPjxwYXRoIGQ9Ik0xNjA5LDMyNiBMMTY1OSwzMjYgTDE2NzEsMzM4IEwxNjcxLDQzNS4xNDA2IEwxNjU5LDQ0Ny4xNDA2IEwxNjA5LDQ0Ny4xNDA2IEwxNTk3LDQzNS4xNDA2IEwxNTk3LDMzOCBMMTYwOSwzMjYgIiBmaWxsPSIjRUZFRkZGIiBzdHlsZT0ic3Ryb2tlOiMxODE4MTg7c3Ryb2tlLXdpZHRoOjAuNTsiLz48aW1hZ2UgaGVpZ2h0PSIxNiIgd2lkdGg9IjE2IiB4PSIxNjQ2IiB4bGluazpocmVmPSJkYXRhOmltYWdlL3BuZztiYXNlNjQsaVZCT1J3MEtHZ29BQUFBTlNVaEVVZ0FBQUJBQUFBQVFDQVlBQUFBZjgvOWhBQUFBTGtsRVFWUjRYbU5nR0piZ0g0a1lCZnc3YytiL2YySXhSUVpRcEpsaUF5alNUTEVCRkduR2FRQ0plQlNnQVFEbVVTOGdZc3JMc0FBQUFBQkpSVTVFcmtKZ2dnPT0iIHk9IjMzNiIvPjx0ZXh0IGZpbGw9IiMwMDAwMDAiIGZvbnQtZmFtaWx5PSJzYW5zLXNlcmlmIiBmb250LXNpemU9IjE4IiBmb250LXdlaWdodD0iYm9sZCIgbGVuZ3RoQWRqdXN0PSJzcGFjaW5nIiB0ZXh0TGVuZ3RoPSIzMyIgeD0iMTYxNy41IiB5PSIzNjcuNzA4Ij5DSTc8L3RleHQ+PHRleHQgZmlsbD0iIzAwMDAwMCIgZm9udC1mYW1pbHk9InNhbnMtc2VyaWYiIGZvbnQtc2l6ZT0iMTQiIGxlbmd0aEFkanVzdD0ic3BhY2luZyIgdGV4dExlbmd0aD0iNSIgeD0iMTYzMS41IiB5PSIzODQuOTQ4MiI+LTwvdGV4dD48dGV4dCBmaWxsPSIjMDAwMDAwIiBmb250LWZhbWlseT0ic2Fucy1zZXJpZiIgZm9udC1zaXplPSIxNCIgbGVuZ3RoQWRqdXN0PSJzcGFjaW5nIiB0ZXh0TGVuZ3RoPSI1NCIgeD0iMTYwNyIgeT0iNDAxLjI0NTEiPkN1c3RvbTwvdGV4dD48dGV4dCBmaWxsPSIjMDAwMDAwIiBmb250LWZhbWlseT0ic2Fucy1zZXJpZiIgZm9udC1zaXplPSIxNCIgbGVuZ3RoQWRqdXN0PSJzcGFjaW5nIiB0ZXh0TGVuZ3RoPSIzOCIgeD0iMTYxNSIgeT0iNDE3LjU0MiI+YXNzZXQ8L3RleHQ+PHRleHQgZmlsbD0iIzAwMDAwMCIgZm9udC1mYW1pbHk9InNhbnMtc2VyaWYiIGZvbnQtc2l6ZT0iMTQiIGxlbmd0aEFkanVzdD0ic3BhY2luZyIgdGV4dExlbmd0aD0iMzgiIHg9IjE2MTUiIHk9IjQzMy44Mzg5Ij50eXBlczwvdGV4dD48L2c+PCEtLWVudGl0eSBBVVRIMlJlbW90ZXVzZXJkYXRhYmFzZS0tPjxnIGlkPSJlbGVtX0FVVEgyUmVtb3RldXNlcmRhdGFiYXNlIj48cGF0aCBkPSJNMTQyNS41LDEyMTYgTDE0OTkuNSwxMjE2IEwxNTExLjUsMTIyOCBMMTUxMS41LDEzMDguODQzOCBMMTQ5OS41LDEzMjAuODQzOCBMMTQyNS41LDEzMjAuODQzOCBMMTQxMy41LDEzMDguODQzOCBMMTQxMy41LDEyMjggTDE0MjUuNSwxMjE2ICIgZmlsbD0iI0VGRUZGRiIgc3R5bGU9InN0cm9rZTojMTgxODE4O3N0cm9rZS13aWR0aDowLjU7Ii8+PGltYWdlIGhlaWdodD0iMTYiIHdpZHRoPSIxNiIgeD0iMTQ4Ni41IiB4bGluazpocmVmPSJkYXRhOmltYWdlL3BuZztiYXNlNjQsaVZCT1J3MEtHZ29BQUFBTlNVaEVVZ0FBQUJBQUFBQVFDQVlBQUFBZjgvOWhBQUFBTGtsRVFWUjRYbU5nR0piZ0g0a1lCZnc3YytiL2YySXhSUVpRcEpsaUF5alNUTEVCRkduR2FRQ0plQlNnQVFEbVVTOGdZc3JMc0FBQUFBQkpSVTVFcmtKZ2dnPT0iIHk9IjEyMjYiLz48dGV4dCBmaWxsPSIjMDAwMDAwIiBmb250LWZhbWlseT0ic2Fucy1zZXJpZiIgZm9udC1zaXplPSIxOCIgZm9udC13ZWlnaHQ9ImJvbGQiIGxlbmd0aEFkanVzdD0ic3BhY2luZyIgdGV4dExlbmd0aD0iNzgiIHg9IjE0MjMuNSIgeT0iMTI1Ny43MDgiPkFVVEgtMjwvdGV4dD48dGV4dCBmaWxsPSIjMDAwMDAwIiBmb250LWZhbWlseT0ic2Fucy1zZXJpZiIgZm9udC1zaXplPSIxNCIgbGVuZ3RoQWRqdXN0PSJzcGFjaW5nIiB0ZXh0TGVuZ3RoPSI1NSIgeD0iMTQzNSIgeT0iMTI3NC45NDgyIj5SZW1vdGU8L3RleHQ+PHRleHQgZmlsbD0iIzAwMDAwMCIgZm9udC1mYW1pbHk9InNhbnMtc2VyaWYiIGZvbnQtc2l6ZT0iMTQiIGxlbmd0aEFkanVzdD0ic3BhY2luZyIgdGV4dExlbmd0aD0iMzEiIHg9IjE0NDciIHk9IjEyOTEuMjQ1MSI+dXNlcjwvdGV4dD48dGV4dCBmaWxsPSIjMDAwMDAwIiBmb250LWZhbWlseT0ic2Fucy1zZXJpZiIgZm9udC1zaXplPSIxNCIgbGVuZ3RoQWRqdXN0PSJzcGFjaW5nIiB0ZXh0TGVuZ3RoPSI2NCIgeD0iMTQzMC41IiB5PSIxMzA3LjU0MiI+ZGF0YWJhc2U8L3RleHQ+PC9nPjwhLS1lbnRpdHkgSU5GTzRBdXRvbWF0ZWRBc3NldGRpc2NvdmVyeS0tPjxnIGlkPSJlbGVtX0lORk80QXV0b21hdGVkQXNzZXRkaXNjb3ZlcnkiPjxwYXRoIGQ9Ik0xNDI2LjUsMzYwIEwxNDk4LjUsMzYwIEwxNTEwLjUsMzcyIEwxNTEwLjUsNDUyLjg0MzggTDE0OTguNSw0NjQuODQzOCBMMTQyNi41LDQ2NC44NDM4IEwxNDE0LjUsNDUyLjg0MzggTDE0MTQuNSwzNzIgTDE0MjYuNSwzNjAgIiBmaWxsPSIjRUZFRkZGIiBzdHlsZT0ic3Ryb2tlOiMxODE4MTg7c3Ryb2tlLXdpZHRoOjAuNTsiLz48aW1hZ2UgaGVpZ2h0PSIxNiIgd2lkdGg9IjE2IiB4PSIxNDg1LjUiIHhsaW5rOmhyZWY9ImRhdGE6aW1hZ2UvcG5nO2Jhc2U2NCxpVkJPUncwS0dnb0FBQUFOU1VoRVVnQUFBQkFBQUFBUUNBWUFBQUFmOC85aEFBQUFMa2xFUVZSNFhtTmdHSmJnSDRrWUJmdzdjK2IvZjJJeFJRWlFwSmxpQXlqU1RMRUJGR25HYVFDSmVCU2dBUURtVVM4Z1lzckxzQUFBQUFCSlJVNUVya0pnZ2c9PSIgeT0iMzcwIi8+PHRleHQgZmlsbD0iIzAwMDAwMCIgZm9udC1mYW1pbHk9InNhbnMtc2VyaWYiIGZvbnQtc2l6ZT0iMTgiIGZvbnQtd2VpZ2h0PSJib2xkIiBsZW5ndGhBZGp1c3Q9InNwYWNpbmciIHRleHRMZW5ndGg9IjY5IiB4PSIxNDI4IiB5PSI0MDEuNzA4Ij5JTkZPLTQ8L3RleHQ+PHRleHQgZmlsbD0iIzAwMDAwMCIgZm9udC1mYW1pbHk9InNhbnMtc2VyaWYiIGZvbnQtc2l6ZT0iMTQiIGxlbmd0aEFkanVzdD0ic3BhY2luZyIgdGV4dExlbmd0aD0iNzYiIHg9IjE0MjQuNSIgeT0iNDE4Ljk0ODIiPkF1dG9tYXRlZDwvdGV4dD48dGV4dCBmaWxsPSIjMDAwMDAwIiBmb250LWZhbWlseT0ic2Fucy1zZXJpZiIgZm9udC1zaXplPSIxNCIgbGVuZ3RoQWRqdXN0PSJzcGFjaW5nIiB0ZXh0TGVuZ3RoPSIzOSIgeD0iMTQ0MyIgeT0iNDM1LjI0NTEiPkFzc2V0PC90ZXh0Pjx0ZXh0IGZpbGw9IiMwMDAwMDAiIGZvbnQtZmFtaWx5PSJzYW5zLXNlcmlmIiBmb250LXNpemU9IjE0IiBsZW5ndGhBZGp1c3Q9InNwYWNpbmciIHRleHRMZW5ndGg9IjY1IiB4PSIxNDMwIiB5PSI0NTEuNTQyIj5kaXNjb3Zlcnk8L3RleHQ+PC9nPjwhLS1lbnRpdHkgSU5GTzVEaXNhYmxlQXV0b21hdGljSW5mb3JtYXRpb25HYXRoZXJpbmctLT48ZyBpZD0iZWxlbV9JTkZPNURpc2FibGVBdXRvbWF0aWNJbmZvcm1hdGlvbkdhdGhlcmluZyI+PHBhdGggZD0iTTEwMzIsNTAzIEwxMTA1LDUwMyBMMTExNyw1MTUgTDExMTcsNjEyLjE0MDYgTDExMDUsNjI0LjE0MDYgTDEwMzIsNjI0LjE0MDYgTDEwMjAsNjEyLjE0MDYgTDEwMjAsNTE1IEwxMDMyLDUwMyAiIGZpbGw9IiNFRkVGRkYiIHN0eWxlPSJzdHJva2U6IzE4MTgxODtzdHJva2Utd2lkdGg6MC41OyIvPjxpbWFnZSBoZWlnaHQ9IjE2IiB3aWR0aD0iMTYiIHg9IjEwOTIiIHhsaW5rOmhyZWY9ImRhdGE6aW1hZ2UvcG5nO2Jhc2U2NCxpVkJPUncwS0dnb0FBQUFOU1VoRVVnQUFBQkFBQUFBUUNBWUFBQUFmOC85aEFBQUFMa2xFUVZSNFhtTmdHSmJnSDRrWUJmdzdjK2IvZjJJeFJRWlFwSmxpQXlqU1RMRUJGR25HYVFDSmVCU2dBUURtVVM4Z1lzckxzQUFBQUFCSlJVNUVya0pnZ2c9PSIgeT0iNTEzIi8+PHRleHQgZmlsbD0iIzAwMDAwMCIgZm9udC1mYW1pbHk9InNhbnMtc2VyaWYiIGZvbnQtc2l6ZT0iMTgiIGZvbnQtd2VpZ2h0PSJib2xkIiBsZW5ndGhBZGp1c3Q9InNwYWNpbmciIHRleHRMZW5ndGg9IjY5IiB4PSIxMDM0IiB5PSI1NDQuNzA4Ij5JTkZPLTU8L3RleHQ+PHRleHQgZmlsbD0iIzAwMDAwMCIgZm9udC1mYW1pbHk9InNhbnMtc2VyaWYiIGZvbnQtc2l6ZT0iMTQiIGxlbmd0aEFkanVzdD0ic3BhY2luZyIgdGV4dExlbmd0aD0iNTEiIHg9IjEwNDMiIHk9IjU2MS45NDgyIj5EaXNhYmxlPC90ZXh0Pjx0ZXh0IGZpbGw9IiMwMDAwMDAiIGZvbnQtZmFtaWx5PSJzYW5zLXNlcmlmIiBmb250LXNpemU9IjE0IiBsZW5ndGhBZGp1c3Q9InNwYWNpbmciIHRleHRMZW5ndGg9IjY5IiB4PSIxMDM0IiB5PSI1NzguMjQ1MSI+QXV0b21hdGljPC90ZXh0Pjx0ZXh0IGZpbGw9IiMwMDAwMDAiIGZvbnQtZmFtaWx5PSJzYW5zLXNlcmlmIiBmb250LXNpemU9IjE0IiBsZW5ndGhBZGp1c3Q9InNwYWNpbmciIHRleHRMZW5ndGg9Ijc3IiB4PSIxMDMwIiB5PSI1OTQuNTQyIj5JbmZvcm1hdGlvbjwvdGV4dD48dGV4dCBmaWxsPSIjMDAwMDAwIiBmb250LWZhbWlseT0ic2Fucy1zZXJpZiIgZm9udC1zaXplPSIxNCIgbGVuZ3RoQWRqdXN0PSJzcGFjaW5nIiB0ZXh0TGVuZ3RoPSI2OCIgeD0iMTAzNC41IiB5PSI2MTAuODM4OSI+R2F0aGVyaW5nPC90ZXh0PjwvZz48IS0tZW50aXR5IENJNkF1ZGl0TG9nLS0+PGcgaWQ9ImVsZW1fQ0k2QXVkaXRMb2ciPjxwYXRoIGQ9Ik0xMDUzLDg1NSBMMTA4NCw4NTUgTDEwOTYsODY3IEwxMDk2LDk0Ny44NDM4IEwxMDg0LDk1OS44NDM4IEwxMDUzLDk1OS44NDM4IEwxMDQxLDk0Ny44NDM4IEwxMDQxLDg2NyBMMTA1Myw4NTUgIiBmaWxsPSIjRUZFRkZGIiBzdHlsZT0ic3Ryb2tlOiMxODE4MTg7c3Ryb2tlLXdpZHRoOjAuNTsiLz48aW1hZ2UgaGVpZ2h0PSIxNiIgd2lkdGg9IjE2IiB4PSIxMDcxIiB4bGluazpocmVmPSJkYXRhOmltYWdlL3BuZztiYXNlNjQsaVZCT1J3MEtHZ29BQUFBTlNVaEVVZ0FBQUJBQUFBQVFDQVlBQUFBZjgvOWhBQUFBTGtsRVFWUjRYbU5nR0piZ0g0a1lCZnc3YytiL2YySXhSUVpRcEpsaUF5alNUTEVCRkduR2FRQ0plQlNnQVFEbVVTOGdZc3JMc0FBQUFBQkpSVTVFcmtKZ2dnPT0iIHk9Ijg2NSIvPjx0ZXh0IGZpbGw9IiMwMDAwMDAiIGZvbnQtZmFtaWx5PSJzYW5zLXNlcmlmIiBmb250LXNpemU9IjE4IiBmb250LXdlaWdodD0iYm9sZCIgbGVuZ3RoQWRqdXN0PSJzcGFjaW5nIiB0ZXh0TGVuZ3RoPSIzMyIgeD0iMTA1MiIgeT0iODk2LjcwOCI+Q0k2PC90ZXh0Pjx0ZXh0IGZpbGw9IiMwMDAwMDAiIGZvbnQtZmFtaWx5PSJzYW5zLXNlcmlmIiBmb250LXNpemU9IjE0IiBsZW5ndGhBZGp1c3Q9InNwYWNpbmciIHRleHRMZW5ndGg9IjUiIHg9IjEwNjYiIHk9IjkxMy45NDgyIj4tPC90ZXh0Pjx0ZXh0IGZpbGw9IiMwMDAwMDAiIGZvbnQtZmFtaWx5PSJzYW5zLXNlcmlmIiBmb250LXNpemU9IjE0IiBsZW5ndGhBZGp1c3Q9InNwYWNpbmciIHRleHRMZW5ndGg9IjM1IiB4PSIxMDUxIiB5PSI5MzAuMjQ1MSI+QXVkaXQ8L3RleHQ+PHRleHQgZmlsbD0iIzAwMDAwMCIgZm9udC1mYW1pbHk9InNhbnMtc2VyaWYiIGZvbnQtc2l6ZT0iMTQiIGxlbmd0aEFkanVzdD0ic3BhY2luZyIgdGV4dExlbmd0aD0iMjUiIHg9IjEwNTYiIHk9Ijk0Ni41NDIiPkxvZzwvdGV4dD48L2c+PCEtLWVudGl0eSBBVVRIMUxvY2FsVXNlckRhdGFiYXNlLS0+PGcgaWQ9ImVsZW1fQVVUSDFMb2NhbFVzZXJEYXRhYmFzZSI+PHBhdGggZD0iTTE0MjUuNSwxMDc2IEwxNDk5LjUsMTA3NiBMMTUxMS41LDEwODggTDE1MTEuNSwxMTY4Ljg0MzggTDE0OTkuNSwxMTgwLjg0MzggTDE0MjUuNSwxMTgwLjg0MzggTDE0MTMuNSwxMTY4Ljg0MzggTDE0MTMuNSwxMDg4IEwxNDI1LjUsMTA3NiAiIGZpbGw9IiNFRkVGRkYiIHN0eWxlPSJzdHJva2U6IzE4MTgxODtzdHJva2Utd2lkdGg6MC41OyIvPjxpbWFnZSBoZWlnaHQ9IjE2IiB3aWR0aD0iMTYiIHg9IjE0ODYuNSIgeGxpbms6aHJlZj0iZGF0YTppbWFnZS9wbmc7YmFzZTY0LGlWQk9SdzBLR2dvQUFBQU5TVWhFVWdBQUFCQUFBQUFRQ0FZQUFBQWY4LzloQUFBQUxrbEVRVlI0WG1OZ0dKYmdINGtZQmZ3N2MrYi9mMkl4UlFaUXBKbGlBeWpTVExFQkZHbkdhUUNKZUJTZ0FRRG1VUzhnWXNyTHNBQUFBQUJKUlU1RXJrSmdnZz09IiB5PSIxMDg2Ii8+PHRleHQgZmlsbD0iIzAwMDAwMCIgZm9udC1mYW1pbHk9InNhbnMtc2VyaWYiIGZvbnQtc2l6ZT0iMTgiIGZvbnQtd2VpZ2h0PSJib2xkIiBsZW5ndGhBZGp1c3Q9InNwYWNpbmciIHRleHRMZW5ndGg9Ijc4IiB4PSIxNDIzLjUiIHk9IjExMTcuNzA4Ij5BVVRILTE8L3RleHQ+PHRleHQgZmlsbD0iIzAwMDAwMCIgZm9udC1mYW1pbHk9InNhbnMtc2VyaWYiIGZvbnQtc2l6ZT0iMTQiIGxlbmd0aEFkanVzdD0ic3BhY2luZyIgdGV4dExlbmd0aD0iMzUiIHg9IjE0NDUiIHk9IjExMzQuOTQ4MiI+TG9jYWw8L3RleHQ+PHRleHQgZmlsbD0iIzAwMDAwMCIgZm9udC1mYW1pbHk9InNhbnMtc2VyaWYiIGZvbnQtc2l6ZT0iMTQiIGxlbmd0aEFkanVzdD0ic3BhY2luZyIgdGV4dExlbmd0aD0iMzIiIHg9IjE0NDYuNSIgeT0iMTE1MS4yNDUxIj5Vc2VyPC90ZXh0Pjx0ZXh0IGZpbGw9IiMwMDAwMDAiIGZvbnQtZmFtaWx5PSJzYW5zLXNlcmlmIiBmb250LXNpemU9IjE0IiBsZW5ndGhBZGp1c3Q9InNwYWNpbmciIHRleHRMZW5ndGg9IjY2IiB4PSIxNDI5LjUiIHk9IjExNjcuNTQyIj5EYXRhYmFzZTwvdGV4dD48L2c+PCEtLWVudGl0eSBJTkZPMU1hbnVhbGVudHJpZXMtLT48ZyBpZD0iZWxlbV9JTkZPMU1hbnVhbGVudHJpZXMiPjxwYXRoIGQ9Ik0xNDMwLDUwMCBMMTQ5NSw1MDAgTDE1MDcsNTEyIEwxNTA3LDU3Ni41NDY5IEwxNDk1LDU4OC41NDY5IEwxNDMwLDU4OC41NDY5IEwxNDE4LDU3Ni41NDY5IEwxNDE4LDUxMiBMMTQzMCw1MDAgIiBmaWxsPSIjRUZFRkZGIiBzdHlsZT0ic3Ryb2tlOiMxODE4MTg7c3Ryb2tlLXdpZHRoOjAuNTsiLz48aW1hZ2UgaGVpZ2h0PSIxNiIgd2lkdGg9IjE2IiB4PSIxNDgyIiB4bGluazpocmVmPSJkYXRhOmltYWdlL3BuZztiYXNlNjQsaVZCT1J3MEtHZ29BQUFBTlNVaEVVZ0FBQUJBQUFBQVFDQVlBQUFBZjgvOWhBQUFBTGtsRVFWUjRYbU5nR0piZ0g0a1lCZnc3YytiL2YySXhSUVpRcEpsaUF5alNUTEVCRkduR2FRQ0plQlNnQVFEbVVTOGdZc3JMc0FBQUFBQkpSVTVFcmtKZ2dnPT0iIHk9IjUxMCIvPjx0ZXh0IGZpbGw9IiMwMDAwMDAiIGZvbnQtZmFtaWx5PSJzYW5zLXNlcmlmIiBmb250LXNpemU9IjE4IiBmb250LXdlaWdodD0iYm9sZCIgbGVuZ3RoQWRqdXN0PSJzcGFjaW5nIiB0ZXh0TGVuZ3RoPSI2OSIgeD0iMTQyOCIgeT0iNTQxLjcwOCI+SU5GTy0xPC90ZXh0Pjx0ZXh0IGZpbGw9IiMwMDAwMDAiIGZvbnQtZmFtaWx5PSJzYW5zLXNlcmlmIiBmb250LXNpemU9IjE0IiBsZW5ndGhBZGp1c3Q9InNwYWNpbmciIHRleHRMZW5ndGg9IjQ5IiB4PSIxNDM4IiB5PSI1NTguOTQ4MiI+TWFudWFsPC90ZXh0Pjx0ZXh0IGZpbGw9IiMwMDAwMDAiIGZvbnQtZmFtaWx5PSJzYW5zLXNlcmlmIiBmb250LXNpemU9IjE0IiBsZW5ndGhBZGp1c3Q9InNwYWNpbmciIHRleHRMZW5ndGg9IjQ4IiB4PSIxNDM4LjUiIHk9IjU3NS4yNDUxIj5lbnRyaWVzPC90ZXh0PjwvZz48IS0tZW50aXR5IElORk8yQXV0b21hdGljaW5mb3JtYXRpb25nYXRoZXJpbmctLT48ZyBpZD0iZWxlbV9JTkZPMkF1dG9tYXRpY2luZm9ybWF0aW9uZ2F0aGVyaW5nIj48cGF0aCBkPSJNMTIzNSwzNzAgTDEzMDgsMzcwIEwxMzIwLDM4MiBMMTMyMCw0NjIuODQzOCBMMTMwOCw0NzQuODQzOCBMMTIzNSw0NzQuODQzOCBMMTIyMyw0NjIuODQzOCBMMTIyMywzODIgTDEyMzUsMzcwICIgZmlsbD0iI0VGRUZGRiIgc3R5bGU9InN0cm9rZTojMTgxODE4O3N0cm9rZS13aWR0aDowLjU7Ii8+PGltYWdlIGhlaWdodD0iMTYiIHdpZHRoPSIxNiIgeD0iMTI5NSIgeGxpbms6aHJlZj0iZGF0YTppbWFnZS9wbmc7YmFzZTY0LGlWQk9SdzBLR2dvQUFBQU5TVWhFVWdBQUFCQUFBQUFRQ0FZQUFBQWY4LzloQUFBQUxrbEVRVlI0WG1OZ0dKYmdINGtZQmZ3N2MrYi9mMkl4UlFaUXBKbGlBeWpTVExFQkZHbkdhUUNKZUJTZ0FRRG1VUzhnWXNyTHNBQUFBQUJKUlU1RXJrSmdnZz09IiB5PSIzODAiLz48dGV4dCBmaWxsPSIjMDAwMDAwIiBmb250LWZhbWlseT0ic2Fucy1zZXJpZiIgZm9udC1zaXplPSIxOCIgZm9udC13ZWlnaHQ9ImJvbGQiIGxlbmd0aEFkanVzdD0ic3BhY2luZyIgdGV4dExlbmd0aD0iNjkiIHg9IjEyMzciIHk9IjQxMS43MDgiPklORk8tMjwvdGV4dD48dGV4dCBmaWxsPSIjMDAwMDAwIiBmb250LWZhbWlseT0ic2Fucy1zZXJpZiIgZm9udC1zaXplPSIxNCIgbGVuZ3RoQWRqdXN0PSJzcGFjaW5nIiB0ZXh0TGVuZ3RoPSI2OSIgeD0iMTIzNyIgeT0iNDI4Ljk0ODIiPkF1dG9tYXRpYzwvdGV4dD48dGV4dCBmaWxsPSIjMDAwMDAwIiBmb250LWZhbWlseT0ic2Fucy1zZXJpZiIgZm9udC1zaXplPSIxNCIgbGVuZ3RoQWRqdXN0PSJzcGFjaW5nIiB0ZXh0TGVuZ3RoPSI3NyIgeD0iMTIzMyIgeT0iNDQ1LjI0NTEiPmluZm9ybWF0aW9uPC90ZXh0Pjx0ZXh0IGZpbGw9IiMwMDAwMDAiIGZvbnQtZmFtaWx5PSJzYW5zLXNlcmlmIiBmb250LXNpemU9IjE0IiBsZW5ndGhBZGp1c3Q9InNwYWNpbmciIHRleHRMZW5ndGg9IjY2IiB4PSIxMjM4LjUiIHk9IjQ2MS41NDIiPmdhdGhlcmluZzwvdGV4dD48L2c+PCEtLWVudGl0eSBJTkZPN0RhdGFhY2Nlc3Njb250cm9sLS0+PGcgaWQ9ImVsZW1fSU5GTzdEYXRhYWNjZXNzY29udHJvbCI+PHBhdGggZD0iTTE2MDEuNSwxMDUxIEwxNjY2LjUsMTA1MSBMMTY3OC41LDEwNjMgTDE2NzguNSwxMTQzLjg0MzggTDE2NjYuNSwxMTU1Ljg0MzggTDE2MDEuNSwxMTU1Ljg0MzggTDE1ODkuNSwxMTQzLjg0MzggTDE1ODkuNSwxMDYzIEwxNjAxLjUsMTA1MSAiIGZpbGw9IiNFRkVGRkYiIHN0eWxlPSJzdHJva2U6IzE4MTgxODtzdHJva2Utd2lkdGg6MC41OyIvPjxpbWFnZSBoZWlnaHQ9IjE2IiB3aWR0aD0iMTYiIHg9IjE2NTMuNSIgeGxpbms6aHJlZj0iZGF0YTppbWFnZS9wbmc7YmFzZTY0LGlWQk9SdzBLR2dvQUFBQU5TVWhFVWdBQUFCQUFBQUFRQ0FZQUFBQWY4LzloQUFBQUxrbEVRVlI0WG1OZ0dKYmdINGtZQmZ3N2MrYi9mMkl4UlFaUXBKbGlBeWpTVExFQkZHbkdhUUNKZUJTZ0FRRG1VUzhnWXNyTHNBQUFBQUJKUlU1RXJrSmdnZz09IiB5PSIxMDYxIi8+PHRleHQgZmlsbD0iIzAwMDAwMCIgZm9udC1mYW1pbHk9InNhbnMtc2VyaWYiIGZvbnQtc2l6ZT0iMTgiIGZvbnQtd2VpZ2h0PSJib2xkIiBsZW5ndGhBZGp1c3Q9InNwYWNpbmciIHRleHRMZW5ndGg9IjY5IiB4PSIxNTk5LjUiIHk9IjEwOTIuNzA4Ij5JTkZPLTc8L3RleHQ+PHRleHQgZmlsbD0iIzAwMDAwMCIgZm9udC1mYW1pbHk9InNhbnMtc2VyaWYiIGZvbnQtc2l6ZT0iMTQiIGxlbmd0aEFkanVzdD0ic3BhY2luZyIgdGV4dExlbmd0aD0iMzIiIHg9IjE2MTgiIHk9IjExMDkuOTQ4MiI+RGF0YTwvdGV4dD48dGV4dCBmaWxsPSIjMDAwMDAwIiBmb250LWZhbWlseT0ic2Fucy1zZXJpZiIgZm9udC1zaXplPSIxNCIgbGVuZ3RoQWRqdXN0PSJzcGFjaW5nIiB0ZXh0TGVuZ3RoPSI0OSIgeD0iMTYwOS41IiB5PSIxMTI2LjI0NTEiPmFjY2VzczwvdGV4dD48dGV4dCBmaWxsPSIjMDAwMDAwIiBmb250LWZhbWlseT0ic2Fucy1zZXJpZiIgZm9udC1zaXplPSIxNCIgbGVuZ3RoQWRqdXN0PSJzcGFjaW5nIiB0ZXh0TGVuZ3RoPSI0OCIgeD0iMTYxMCIgeT0iMTE0Mi41NDIiPmNvbnRyb2w8L3RleHQ+PC9nPjwhLS1lbnRpdHkgSU5GTzhTZWN1cmVEYXRhVHJhbnNtaXNzaW9uLS0+PGcgaWQ9ImVsZW1fSU5GTzhTZWN1cmVEYXRhVHJhbnNtaXNzaW9uIj48cGF0aCBkPSJNMTIyNy41LDE0ODggTDEzMTUuNSwxNDg4IEwxMzI3LjUsMTUwMCBMMTMyNy41LDE1ODAuODQzOCBMMTMxNS41LDE1OTIuODQzOCBMMTIyNy41LDE1OTIuODQzOCBMMTIxNS41LDE1ODAuODQzOCBMMTIxNS41LDE1MDAgTDEyMjcuNSwxNDg4ICIgZmlsbD0iI0VGRUZGRiIgc3R5bGU9InN0cm9rZTojMTgxODE4O3N0cm9rZS13aWR0aDowLjU7Ii8+PGltYWdlIGhlaWdodD0iMTYiIHdpZHRoPSIxNiIgeD0iMTMwMi41IiB4bGluazpocmVmPSJkYXRhOmltYWdlL3BuZztiYXNlNjQsaVZCT1J3MEtHZ29BQUFBTlNVaEVVZ0FBQUJBQUFBQVFDQVlBQUFBZjgvOWhBQUFBTGtsRVFWUjRYbU5nR0piZ0g0a1lCZnc3YytiL2YySXhSUVpRcEpsaUF5alNUTEVCRkduR2FRQ0plQlNnQVFEbVVTOGdZc3JMc0FBQUFBQkpSVTVFcmtKZ2dnPT0iIHk9IjE0OTgiLz48dGV4dCBmaWxsPSIjMDAwMDAwIiBmb250LWZhbWlseT0ic2Fucy1zZXJpZiIgZm9udC1zaXplPSIxOCIgZm9udC13ZWlnaHQ9ImJvbGQiIGxlbmd0aEFkanVzdD0ic3BhY2luZyIgdGV4dExlbmd0aD0iNjkiIHg9IjEyMzciIHk9IjE1MjkuNzA4Ij5JTkZPLTg8L3RleHQ+PHRleHQgZmlsbD0iIzAwMDAwMCIgZm9udC1mYW1pbHk9InNhbnMtc2VyaWYiIGZvbnQtc2l6ZT0iMTQiIGxlbmd0aEFkanVzdD0ic3BhY2luZyIgdGV4dExlbmd0aD0iNDkiIHg9IjEyNDciIHk9IjE1NDYuOTQ4MiI+U2VjdXJlPC90ZXh0Pjx0ZXh0IGZpbGw9IiMwMDAwMDAiIGZvbnQtZmFtaWx5PSJzYW5zLXNlcmlmIiBmb250LXNpemU9IjE0IiBsZW5ndGhBZGp1c3Q9InNwYWNpbmciIHRleHRMZW5ndGg9IjMyIiB4PSIxMjU1LjUiIHk9IjE1NjMuMjQ1MSI+RGF0YTwvdGV4dD48dGV4dCBmaWxsPSIjMDAwMDAwIiBmb250LWZhbWlseT0ic2Fucy1zZXJpZiIgZm9udC1zaXplPSIxNCIgbGVuZ3RoQWRqdXN0PSJzcGFjaW5nIiB0ZXh0TGVuZ3RoPSI5MiIgeD0iMTIyNS41IiB5PSIxNTc5LjU0MiI+VHJhbnNtaXNzaW9uPC90ZXh0PjwvZz48IS0tZW50aXR5IEFVVEgzUHJpb3JpdHlvZnVzZXJkYXRhYmFzZXMtLT48ZyBpZD0iZWxlbV9BVVRIM1ByaW9yaXR5b2Z1c2VyZGF0YWJhc2VzIj48cGF0aCBkPSJNMTU5NywxMTk5IEwxNjcxLDExOTkgTDE2ODMsMTIxMSBMMTY4MywxMzA4LjE0MDYgTDE2NzEsMTMyMC4xNDA2IEwxNTk3LDEzMjAuMTQwNiBMMTU4NSwxMzA4LjE0MDYgTDE1ODUsMTIxMSBMMTU5NywxMTk5ICIgZmlsbD0iI0VGRUZGRiIgc3R5bGU9InN0cm9rZTojMTgxODE4O3N0cm9rZS13aWR0aDowLjU7Ii8+PGltYWdlIGhlaWdodD0iMTYiIHdpZHRoPSIxNiIgeD0iMTY1OCIgeGxpbms6aHJlZj0iZGF0YTppbWFnZS9wbmc7YmFzZTY0LGlWQk9SdzBLR2dvQUFBQU5TVWhFVWdBQUFCQUFBQUFRQ0FZQUFBQWY4LzloQUFBQUxrbEVRVlI0WG1OZ0dKYmdINGtZQmZ3N2MrYi9mMkl4UlFaUXBKbGlBeWpTVExFQkZHbkdhUUNKZUJTZ0FRRG1VUzhnWXNyTHNBQUFBQUJKUlU1RXJrSmdnZz09IiB5PSIxMjA5Ii8+PHRleHQgZmlsbD0iIzAwMDAwMCIgZm9udC1mYW1pbHk9InNhbnMtc2VyaWYiIGZvbnQtc2l6ZT0iMTgiIGZvbnQtd2VpZ2h0PSJib2xkIiBsZW5ndGhBZGp1c3Q9InNwYWNpbmciIHRleHRMZW5ndGg9Ijc4IiB4PSIxNTk1IiB5PSIxMjQwLjcwOCI+QVVUSC0zPC90ZXh0Pjx0ZXh0IGZpbGw9IiMwMDAwMDAiIGZvbnQtZmFtaWx5PSJzYW5zLXNlcmlmIiBmb250LXNpemU9IjE0IiBsZW5ndGhBZGp1c3Q9InNwYWNpbmciIHRleHRMZW5ndGg9IjQ2IiB4PSIxNjExIiB5PSIxMjU3Ljk0ODIiPlByaW9yaXR5PC90ZXh0Pjx0ZXh0IGZpbGw9IiMwMDAwMDAiIGZvbnQtZmFtaWx5PSJzYW5zLXNlcmlmIiBmb250LXNpemU9IjE0IiBsZW5ndGhBZGp1c3Q9InNwYWNpbmciIHRleHRMZW5ndGg9IjEzIiB4PSIxNjI3LjUiIHk9IjEyNzQuMjQ1MSI+b2Y8L3RleHQ+PHRleHQgZmlsbD0iIzAwMDAwMCIgZm9udC1mYW1pbHk9InNhbnMtc2VyaWYiIGZvbnQtc2l6ZT0iMTQiIGxlbmd0aEFkanVzdD0ic3BhY2luZyIgdGV4dExlbmd0aD0iMzEiIHg9IjE2MTguNSIgeT0iMTI5MC41NDIiPnVzZXI8L3RleHQ+PHRleHQgZmlsbD0iIzAwMDAwMCIgZm9udC1mYW1pbHk9InNhbnMtc2VyaWYiIGZvbnQtc2l6ZT0iMTQiIGxlbmd0aEFkanVzdD0ic3BhY2luZyIgdGV4dExlbmd0aD0iNzIiIHg9IjE1OTgiIHk9IjEzMDYuODM4OSI+ZGF0YWJhc2VzPC90ZXh0PjwvZz48IS0tZW50aXR5IElORk82U2VjdXJlRGF0YVN0b3JhZ2UtLT48ZyBpZD0iZWxlbV9JTkZPNlNlY3VyZURhdGFTdG9yYWdlIj48cGF0aCBkPSJNMTIzOSwxNjMwIEwxMzA0LDE2MzAgTDEzMTYsMTY0MiBMMTMxNiwxNzIyLjg0MzggTDEzMDQsMTczNC44NDM4IEwxMjM5LDE3MzQuODQzOCBMMTIyNywxNzIyLjg0MzggTDEyMjcsMTY0MiBMMTIzOSwxNjMwICIgZmlsbD0iI0VGRUZGRiIgc3R5bGU9InN0cm9rZTojMTgxODE4O3N0cm9rZS13aWR0aDowLjU7Ii8+PGltYWdlIGhlaWdodD0iMTYiIHdpZHRoPSIxNiIgeD0iMTI5MSIgeGxpbms6aHJlZj0iZGF0YTppbWFnZS9wbmc7YmFzZTY0LGlWQk9SdzBLR2dvQUFBQU5TVWhFVWdBQUFCQUFBQUFRQ0FZQUFBQWY4LzloQUFBQUxrbEVRVlI0WG1OZ0dKYmdINGtZQmZ3N2MrYi9mMkl4UlFaUXBKbGlBeWpTVExFQkZHbkdhUUNKZUJTZ0FRRG1VUzhnWXNyTHNBQUFBQUJKUlU1RXJrSmdnZz09IiB5PSIxNjQwIi8+PHRleHQgZmlsbD0iIzAwMDAwMCIgZm9udC1mYW1pbHk9InNhbnMtc2VyaWYiIGZvbnQtc2l6ZT0iMTgiIGZvbnQtd2VpZ2h0PSJib2xkIiBsZW5ndGhBZGp1c3Q9InNwYWNpbmciIHRleHRMZW5ndGg9IjY5IiB4PSIxMjM3IiB5PSIxNjcxLjcwOCI+SU5GTy02PC90ZXh0Pjx0ZXh0IGZpbGw9IiMwMDAwMDAiIGZvbnQtZmFtaWx5PSJzYW5zLXNlcmlmIiBmb250LXNpemU9IjE0IiBsZW5ndGhBZGp1c3Q9InNwYWNpbmciIHRleHRMZW5ndGg9IjQ5IiB4PSIxMjQ3IiB5PSIxNjg4Ljk0ODIiPlNlY3VyZTwvdGV4dD48dGV4dCBmaWxsPSIjMDAwMDAwIiBmb250LWZhbWlseT0ic2Fucy1zZXJpZiIgZm9udC1zaXplPSIxNCIgbGVuZ3RoQWRqdXN0PSJzcGFjaW5nIiB0ZXh0TGVuZ3RoPSIzMiIgeD0iMTI1NS41IiB5PSIxNzA1LjI0NTEiPkRhdGE8L3RleHQ+PHRleHQgZmlsbD0iIzAwMDAwMCIgZm9udC1mYW1pbHk9InNhbnMtc2VyaWYiIGZvbnQtc2l6ZT0iMTQiIGxlbmd0aEFkanVzdD0ic3BhY2luZyIgdGV4dExlbmd0aD0iNTQiIHg9IjEyNDQuNSIgeT0iMTcyMS41NDIiPlN0b3JhZ2U8L3RleHQ+PC9nPjwhLS1lbnRpdHkgQVJDSDExM0ZlYXR1cmVzYW5kVXNlcnN0b3JpZXMtLT48ZyBpZD0iZWxlbV9BUkNIMTEzRmVhdHVyZXNhbmRVc2Vyc3RvcmllcyI+PHBhdGggZD0iTTM5MCwxNTY0IEw1MDMsMTU2NCBMNTE1LDE1NzYgTDUxNSwxNjczLjE0MDYgTDUwMywxNjg1LjE0MDYgTDM5MCwxNjg1LjE0MDYgTDM3OCwxNjczLjE0MDYgTDM3OCwxNTc2IEwzOTAsMTU2NCAiIGZpbGw9IiNFRkVGRkYiIHN0eWxlPSJzdHJva2U6IzE4MTgxODtzdHJva2Utd2lkdGg6MC41OyIvPjxpbWFnZSBoZWlnaHQ9IjE2IiB3aWR0aD0iMTYiIHg9IjQ5MCIgeGxpbms6aHJlZj0iZGF0YTppbWFnZS9wbmc7YmFzZTY0LGlWQk9SdzBLR2dvQUFBQU5TVWhFVWdBQUFCQUFBQUFRQ0FZQUFBQWY4LzloQUFBQUxrbEVRVlI0WG1OZ0dKYmdINGtZQmZ3N2MrYi9mMkl4UlFaUXBKbGlBeWpTVExFQkZHbkdhUUNKZUJTZ0FRRG1VUzhnWXNyTHNBQUFBQUJKUlU1RXJrSmdnZz09IiB5PSIxNTc0Ii8+PHRleHQgZmlsbD0iIzAwMDAwMCIgZm9udC1mYW1pbHk9InNhbnMtc2VyaWYiIGZvbnQtc2l6ZT0iMTgiIGZvbnQtd2VpZ2h0PSJib2xkIiBsZW5ndGhBZGp1c3Q9InNwYWNpbmciIHRleHRMZW5ndGg9IjExNyIgeD0iMzg4IiB5PSIxNjA1LjcwOCI+QVJDSC0xLjEuMzwvdGV4dD48dGV4dCBmaWxsPSIjMDAwMDAwIiBmb250LWZhbWlseT0ic2Fucy1zZXJpZiIgZm9udC1zaXplPSIxNCIgbGVuZ3RoQWRqdXN0PSJzcGFjaW5nIiB0ZXh0TGVuZ3RoPSI2MSIgeD0iNDE2IiB5PSIxNjIyLjk0ODIiPkZlYXR1cmVzPC90ZXh0Pjx0ZXh0IGZpbGw9IiMwMDAwMDAiIGZvbnQtZmFtaWx5PSJzYW5zLXNlcmlmIiBmb250LXNpemU9IjE0IiBsZW5ndGhBZGp1c3Q9InNwYWNpbmciIHRleHRMZW5ndGg9IjI2IiB4PSI0MzMuNSIgeT0iMTYzOS4yNDUxIj5hbmQ8L3RleHQ+PHRleHQgZmlsbD0iIzAwMDAwMCIgZm9udC1mYW1pbHk9InNhbnMtc2VyaWYiIGZvbnQtc2l6ZT0iMTQiIGxlbmd0aEFkanVzdD0ic3BhY2luZyIgdGV4dExlbmd0aD0iMzIiIHg9IjQzMC41IiB5PSIxNjU1LjU0MiI+VXNlcjwvdGV4dD48dGV4dCBmaWxsPSIjMDAwMDAwIiBmb250LWZhbWlseT0ic2Fucy1zZXJpZiIgZm9udC1zaXplPSIxNCIgbGVuZ3RoQWRqdXN0PSJzcGFjaW5nIiB0ZXh0TGVuZ3RoPSI0NyIgeD0iNDIzIiB5PSIxNjcxLjgzODkiPnN0b3JpZXM8L3RleHQ+PC9nPjwhLS1lbnRpdHkgQVJDSDExMlRocmVhdG1vZGVsaW5nLS0+PGcgaWQ9ImVsZW1fQVJDSDExMlRocmVhdG1vZGVsaW5nIj48cGF0aCBkPSJNMTg3LDE1ODAgTDMwMCwxNTgwIEwzMTIsMTU5MiBMMzEyLDE2NTYuNTQ2OSBMMzAwLDE2NjguNTQ2OSBMMTg3LDE2NjguNTQ2OSBMMTc1LDE2NTYuNTQ2OSBMMTc1LDE1OTIgTDE4NywxNTgwICIgZmlsbD0iI0VGRUZGRiIgc3R5bGU9InN0cm9rZTojMTgxODE4O3N0cm9rZS13aWR0aDowLjU7Ii8+PGltYWdlIGhlaWdodD0iMTYiIHdpZHRoPSIxNiIgeD0iMjg3IiB4bGluazpocmVmPSJkYXRhOmltYWdlL3BuZztiYXNlNjQsaVZCT1J3MEtHZ29BQUFBTlNVaEVVZ0FBQUJBQUFBQVFDQVlBQUFBZjgvOWhBQUFBTGtsRVFWUjRYbU5nR0piZ0g0a1lCZnc3YytiL2YySXhSUVpRcEpsaUF5alNUTEVCRkduR2FRQ0plQlNnQVFEbVVTOGdZc3JMc0FBQUFBQkpSVTVFcmtKZ2dnPT0iIHk9IjE1OTAiLz48dGV4dCBmaWxsPSIjMDAwMDAwIiBmb250LWZhbWlseT0ic2Fucy1zZXJpZiIgZm9udC1zaXplPSIxOCIgZm9udC13ZWlnaHQ9ImJvbGQiIGxlbmd0aEFkanVzdD0ic3BhY2luZyIgdGV4dExlbmd0aD0iMTE3IiB4PSIxODUiIHk9IjE2MjEuNzA4Ij5BUkNILTEuMS4yPC90ZXh0Pjx0ZXh0IGZpbGw9IiMwMDAwMDAiIGZvbnQtZmFtaWx5PSJzYW5zLXNlcmlmIiBmb250LXNpemU9IjE0IiBsZW5ndGhBZGp1c3Q9InNwYWNpbmciIHRleHRMZW5ndGg9IjQ1IiB4PSIyMjEiIHk9IjE2MzguOTQ4MiI+VGhyZWF0PC90ZXh0Pjx0ZXh0IGZpbGw9IiMwMDAwMDAiIGZvbnQtZmFtaWx5PSJzYW5zLXNlcmlmIiBmb250LXNpemU9IjE0IiBsZW5ndGhBZGp1c3Q9InNwYWNpbmciIHRleHRMZW5ndGg9IjY0IiB4PSIyMTEuNSIgeT0iMTY1NS4yNDUxIj5tb2RlbGluZzwvdGV4dD48L2c+PCEtLWVudGl0eSBBUkNIMTIyQ29tcG9uZW50Q29tbXVuaWNhdGlvbi0tPjxnIGlkPSJlbGVtX0FSQ0gxMjJDb21wb25lbnRDb21tdW5pY2F0aW9uIj48cGF0aCBkPSJNODAyLjUsNjYyIEw5MTUuNSw2NjIgTDkyNy41LDY3NCBMOTI3LjUsNzM4LjU0NjkgTDkxNS41LDc1MC41NDY5IEw4MDIuNSw3NTAuNTQ2OSBMNzkwLjUsNzM4LjU0NjkgTDc5MC41LDY3NCBMODAyLjUsNjYyICIgZmlsbD0iI0VGRUZGRiIgc3R5bGU9InN0cm9rZTojMTgxODE4O3N0cm9rZS13aWR0aDowLjU7Ii8+PGltYWdlIGhlaWdodD0iMTYiIHdpZHRoPSIxNiIgeD0iOTAyLjUiIHhsaW5rOmhyZWY9ImRhdGE6aW1hZ2UvcG5nO2Jhc2U2NCxpVkJPUncwS0dnb0FBQUFOU1VoRVVnQUFBQkFBQUFBUUNBWUFBQUFmOC85aEFBQUFMa2xFUVZSNFhtTmdHSmJnSDRrWUJmdzdjK2IvZjJJeFJRWlFwSmxpQXlqU1RMRUJGR25HYVFDSmVCU2dBUURtVVM4Z1lzckxzQUFBQUFCSlJVNUVya0pnZ2c9PSIgeT0iNjcyIi8+PHRleHQgZmlsbD0iIzAwMDAwMCIgZm9udC1mYW1pbHk9InNhbnMtc2VyaWYiIGZvbnQtc2l6ZT0iMTgiIGZvbnQtd2VpZ2h0PSJib2xkIiBsZW5ndGhBZGp1c3Q9InNwYWNpbmciIHRleHRMZW5ndGg9IjExNyIgeD0iODAwLjUiIHk9IjcwMy43MDgiPkFSQ0gtMS4yLjI8L3RleHQ+PHRleHQgZmlsbD0iIzAwMDAwMCIgZm9udC1mYW1pbHk9InNhbnMtc2VyaWYiIGZvbnQtc2l6ZT0iMTQiIGxlbmd0aEFkanVzdD0ic3BhY2luZyIgdGV4dExlbmd0aD0iODIiIHg9IjgxOCIgeT0iNzIwLjk0ODIiPkNvbXBvbmVudDwvdGV4dD48dGV4dCBmaWxsPSIjMDAwMDAwIiBmb250LWZhbWlseT0ic2Fucy1zZXJpZiIgZm9udC1zaXplPSIxNCIgbGVuZ3RoQWRqdXN0PSJzcGFjaW5nIiB0ZXh0TGVuZ3RoPSIxMDgiIHg9IjgwNSIgeT0iNzM3LjI0NTEiPkNvbW11bmljYXRpb248L3RleHQ+PC9nPjwhLS1lbnRpdHkgQVJDSDEyM0F1dGhlbnRpY2F0aW9uTWVjaGFuaXNtLS0+PGcgaWQ9ImVsZW1fQVJDSDEyM0F1dGhlbnRpY2F0aW9uTWVjaGFuaXNtIj48cGF0aCBkPSJNMTIxNSwxMDg0IEwxMzI4LDEwODQgTDEzNDAsMTA5NiBMMTM0MCwxMTYwLjU0NjkgTDEzMjgsMTE3Mi41NDY5IEwxMjE1LDExNzIuNTQ2OSBMMTIwMywxMTYwLjU0NjkgTDEyMDMsMTA5NiBMMTIxNSwxMDg0ICIgZmlsbD0iI0VGRUZGRiIgc3R5bGU9InN0cm9rZTojMTgxODE4O3N0cm9rZS13aWR0aDowLjU7Ii8+PGltYWdlIGhlaWdodD0iMTYiIHdpZHRoPSIxNiIgeD0iMTMxNSIgeGxpbms6aHJlZj0iZGF0YTppbWFnZS9wbmc7YmFzZTY0LGlWQk9SdzBLR2dvQUFBQU5TVWhFVWdBQUFCQUFBQUFRQ0FZQUFBQWY4LzloQUFBQUxrbEVRVlI0WG1OZ0dKYmdINGtZQmZ3N2MrYi9mMkl4UlFaUXBKbGlBeWpTVExFQkZHbkdhUUNKZUJTZ0FRRG1VUzhnWXNyTHNBQUFBQUJKUlU1RXJrSmdnZz09IiB5PSIxMDk0Ii8+PHRleHQgZmlsbD0iIzAwMDAwMCIgZm9udC1mYW1pbHk9InNhbnMtc2VyaWYiIGZvbnQtc2l6ZT0iMTgiIGZvbnQtd2VpZ2h0PSJib2xkIiBsZW5ndGhBZGp1c3Q9InNwYWNpbmciIHRleHRMZW5ndGg9IjExNyIgeD0iMTIxMyIgeT0iMTEyNS43MDgiPkFSQ0gtMS4yLjM8L3RleHQ+PHRleHQgZmlsbD0iIzAwMDAwMCIgZm9udC1mYW1pbHk9InNhbnMtc2VyaWYiIGZvbnQtc2l6ZT0iMTQiIGxlbmd0aEFkanVzdD0ic3BhY2luZyIgdGV4dExlbmd0aD0iMTAwIiB4PSIxMjIxLjUiIHk9IjExNDIuOTQ4MiI+QXV0aGVudGljYXRpb248L3RleHQ+PHRleHQgZmlsbD0iIzAwMDAwMCIgZm9udC1mYW1pbHk9InNhbnMtc2VyaWYiIGZvbnQtc2l6ZT0iMTQiIGxlbmd0aEFkanVzdD0ic3BhY2luZyIgdGV4dExlbmd0aD0iNzkiIHg9IjEyMzIiIHk9IjExNTkuMjQ1MSI+TWVjaGFuaXNtPC90ZXh0PjwvZz48IS0tZW50aXR5IEFSQ0gxNDRBY2Nlc3NDb250cm9sTWVjaGFuaXNtLS0+PGcgaWQ9ImVsZW1fQVJDSDE0NEFjY2Vzc0NvbnRyb2xNZWNoYW5pc20iPjxwYXRoIGQ9Ik04MDIuNSwxMjExIEw5MTUuNSwxMjExIEw5MjcuNSwxMjIzIEw5MjcuNSwxMzAzLjg0MzggTDkxNS41LDEzMTUuODQzOCBMODAyLjUsMTMxNS44NDM4IEw3OTAuNSwxMzAzLjg0MzggTDc5MC41LDEyMjMgTDgwMi41LDEyMTEgIiBmaWxsPSIjRUZFRkZGIiBzdHlsZT0ic3Ryb2tlOiMxODE4MTg7c3Ryb2tlLXdpZHRoOjAuNTsiLz48aW1hZ2UgaGVpZ2h0PSIxNiIgd2lkdGg9IjE2IiB4PSI5MDIuNSIgeGxpbms6aHJlZj0iZGF0YTppbWFnZS9wbmc7YmFzZTY0LGlWQk9SdzBLR2dvQUFBQU5TVWhFVWdBQUFCQUFBQUFRQ0FZQUFBQWY4LzloQUFBQUxrbEVRVlI0WG1OZ0dKYmdINGtZQmZ3N2MrYi9mMkl4UlFaUXBKbGlBeWpTVExFQkZHbkdhUUNKZUJTZ0FRRG1VUzhnWXNyTHNBQUFBQUJKUlU1RXJrSmdnZz09IiB5PSIxMjIxIi8+PHRleHQgZmlsbD0iIzAwMDAwMCIgZm9udC1mYW1pbHk9InNhbnMtc2VyaWYiIGZvbnQtc2l6ZT0iMTgiIGZvbnQtd2VpZ2h0PSJib2xkIiBsZW5ndGhBZGp1c3Q9InNwYWNpbmciIHRleHRMZW5ndGg9IjExNyIgeD0iODAwLjUiIHk9IjEyNTIuNzA4Ij5BUkNILTEuNC40PC90ZXh0Pjx0ZXh0IGZpbGw9IiMwMDAwMDAiIGZvbnQtZmFtaWx5PSJzYW5zLXNlcmlmIiBmb250LXNpemU9IjE0IiBsZW5ndGhBZGp1c3Q9InNwYWNpbmciIHRleHRMZW5ndGg9IjUwIiB4PSI4MzQiIHk9IjEyNjkuOTQ4MiI+QWNjZXNzPC90ZXh0Pjx0ZXh0IGZpbGw9IiMwMDAwMDAiIGZvbnQtZmFtaWx5PSJzYW5zLXNlcmlmIiBmb250LXNpemU9IjE0IiBsZW5ndGhBZGp1c3Q9InNwYWNpbmciIHRleHRMZW5ndGg9IjUwIiB4PSI4MzQiIHk9IjEyODYuMjQ1MSI+Q29udHJvbDwvdGV4dD48dGV4dCBmaWxsPSIjMDAwMDAwIiBmb250LWZhbWlseT0ic2Fucy1zZXJpZiIgZm9udC1zaXplPSIxNCIgbGVuZ3RoQWRqdXN0PSJzcGFjaW5nIiB0ZXh0TGVuZ3RoPSI3OSIgeD0iODE5LjUiIHk9IjEzMDIuNTQyIj5NZWNoYW5pc208L3RleHQ+PC9nPjwhLS1lbnRpdHkgQVJDSDE3MUxvZ2dpbmctLT48ZyBpZD0iZWxlbV9BUkNIMTcxTG9nZ2luZyI+PHBhdGggZD0iTTgwMi41LDg3MS41IEw5MTUuNSw4NzEuNSBMOTI3LjUsODgzLjUgTDkyNy41LDkzMS43NSBMOTE1LjUsOTQzLjc1IEw4MDIuNSw5NDMuNzUgTDc5MC41LDkzMS43NSBMNzkwLjUsODgzLjUgTDgwMi41LDg3MS41ICIgZmlsbD0iI0VGRUZGRiIgc3R5bGU9InN0cm9rZTojMTgxODE4O3N0cm9rZS13aWR0aDowLjU7Ii8+PGltYWdlIGhlaWdodD0iMTYiIHdpZHRoPSIxNiIgeD0iOTAyLjUiIHhsaW5rOmhyZWY9ImRhdGE6aW1hZ2UvcG5nO2Jhc2U2NCxpVkJPUncwS0dnb0FBQUFOU1VoRVVnQUFBQkFBQUFBUUNBWUFBQUFmOC85aEFBQUFMa2xFUVZSNFhtTmdHSmJnSDRrWUJmdzdjK2IvZjJJeFJRWlFwSmxpQXlqU1RMRUJGR25HYVFDSmVCU2dBUURtVVM4Z1lzckxzQUFBQUFCSlJVNUVya0pnZ2c9PSIgeT0iODgxLjUiLz48dGV4dCBmaWxsPSIjMDAwMDAwIiBmb250LWZhbWlseT0ic2Fucy1zZXJpZiIgZm9udC1zaXplPSIxOCIgZm9udC13ZWlnaHQ9ImJvbGQiIGxlbmd0aEFkanVzdD0ic3BhY2luZyIgdGV4dExlbmd0aD0iMTE3IiB4PSI4MDAuNSIgeT0iOTEzLjIwOCI+QVJDSC0xLjcuMTwvdGV4dD48dGV4dCBmaWxsPSIjMDAwMDAwIiBmb250LWZhbWlseT0ic2Fucy1zZXJpZiIgZm9udC1zaXplPSIxNCIgbGVuZ3RoQWRqdXN0PSJzcGFjaW5nIiB0ZXh0TGVuZ3RoPSI1NSIgeD0iODMxLjUiIHk9IjkzMC40NDgyIj5Mb2dnaW5nPC90ZXh0PjwvZz48IS0tZW50aXR5IEFSQ0gxMTEyVW5zeW5jaHJvbml6ZWRzdGF0ZS0tPjxnIGlkPSJlbGVtX0FSQ0gxMTEyVW5zeW5jaHJvbml6ZWRzdGF0ZSI+PHBhdGggZD0iTTc5Niw5NzkgTDkyMiw5NzkgTDkzNCw5OTEgTDkzNCwxMDU1LjU0NjkgTDkyMiwxMDY3LjU0NjkgTDc5NiwxMDY3LjU0NjkgTDc4NCwxMDU1LjU0NjkgTDc4NCw5OTEgTDc5Niw5NzkgIiBmaWxsPSIjRUZFRkZGIiBzdHlsZT0ic3Ryb2tlOiMxODE4MTg7c3Ryb2tlLXdpZHRoOjAuNTsiLz48aW1hZ2UgaGVpZ2h0PSIxNiIgd2lkdGg9IjE2IiB4PSI5MDkiIHhsaW5rOmhyZWY9ImRhdGE6aW1hZ2UvcG5nO2Jhc2U2NCxpVkJPUncwS0dnb0FBQUFOU1VoRVVnQUFBQkFBQUFBUUNBWUFBQUFmOC85aEFBQUFMa2xFUVZSNFhtTmdHSmJnSDRrWUJmdzdjK2IvZjJJeFJRWlFwSmxpQXlqU1RMRUJGR25HYVFDSmVCU2dBUURtVVM4Z1lzckxzQUFBQUFCSlJVNUVya0pnZ2c9PSIgeT0iOTg5Ii8+PHRleHQgZmlsbD0iIzAwMDAwMCIgZm9udC1mYW1pbHk9InNhbnMtc2VyaWYiIGZvbnQtc2l6ZT0iMTgiIGZvbnQtd2VpZ2h0PSJib2xkIiBsZW5ndGhBZGp1c3Q9InNwYWNpbmciIHRleHRMZW5ndGg9IjEzMCIgeD0iNzk0IiB5PSIxMDIwLjcwOCI+QVJDSC0xLjExLjI8L3RleHQ+PHRleHQgZmlsbD0iIzAwMDAwMCIgZm9udC1mYW1pbHk9InNhbnMtc2VyaWYiIGZvbnQtc2l6ZT0iMTQiIGxlbmd0aEFkanVzdD0ic3BhY2luZyIgdGV4dExlbmd0aD0iMTEyIiB4PSI4MDMiIHk9IjEwMzcuOTQ4MiI+VW5zeW5jaHJvbml6ZWQ8L3RleHQ+PHRleHQgZmlsbD0iIzAwMDAwMCIgZm9udC1mYW1pbHk9InNhbnMtc2VyaWYiIGZvbnQtc2l6ZT0iMTQiIGxlbmd0aEFkanVzdD0ic3BhY2luZyIgdGV4dExlbmd0aD0iMzUiIHg9Ijg0MS41IiB5PSIxMDU0LjI0NTEiPnN0YXRlPC90ZXh0PjwvZz48IS0tZW50aXR5IEFSQ0gxMTQxU2VncmVnYXRpb24tLT48ZyBpZD0iZWxlbV9BUkNIMTE0MVNlZ3JlZ2F0aW9uIj48cGF0aCBkPSJNNzk2LDExMDMuNSBMOTIyLDExMDMuNSBMOTM0LDExMTUuNSBMOTM0LDExNjMuNzUgTDkyMiwxMTc1Ljc1IEw3OTYsMTE3NS43NSBMNzg0LDExNjMuNzUgTDc4NCwxMTE1LjUgTDc5NiwxMTAzLjUgIiBmaWxsPSIjRUZFRkZGIiBzdHlsZT0ic3Ryb2tlOiMxODE4MTg7c3Ryb2tlLXdpZHRoOjAuNTsiLz48aW1hZ2UgaGVpZ2h0PSIxNiIgd2lkdGg9IjE2IiB4PSI5MDkiIHhsaW5rOmhyZWY9ImRhdGE6aW1hZ2UvcG5nO2Jhc2U2NCxpVkJPUncwS0dnb0FBQUFOU1VoRVVnQUFBQkFBQUFBUUNBWUFBQUFmOC85aEFBQUFMa2xFUVZSNFhtTmdHSmJnSDRrWUJmdzdjK2IvZjJJeFJRWlFwSmxpQXlqU1RMRUJGR25HYVFDSmVCU2dBUURtVVM4Z1lzckxzQUFBQUFCSlJVNUVya0pnZ2c9PSIgeT0iMTExMy41Ii8+PHRleHQgZmlsbD0iIzAwMDAwMCIgZm9udC1mYW1pbHk9InNhbnMtc2VyaWYiIGZvbnQtc2l6ZT0iMTgiIGZvbnQtd2VpZ2h0PSJib2xkIiBsZW5ndGhBZGp1c3Q9InNwYWNpbmciIHRleHRMZW5ndGg9IjEzMCIgeD0iNzk0IiB5PSIxMTQ1LjIwOCI+QVJDSC0xLjE0LjE8L3RleHQ+PHRleHQgZmlsbD0iIzAwMDAwMCIgZm9udC1mYW1pbHk9InNhbnMtc2VyaWYiIGZvbnQtc2l6ZT0iMTQiIGxlbmd0aEFkanVzdD0ic3BhY2luZyIgdGV4dExlbmd0aD0iODQiIHg9IjgxNyIgeT0iMTE2Mi40NDgyIj5TZWdyZWdhdGlvbjwvdGV4dD48L2c+PCEtLWVudGl0eSBBUkNIMTYyS2V5cHJvdGVjdGlvbi0tPjxnIGlkPSJlbGVtX0FSQ0gxNjJLZXlwcm90ZWN0aW9uIj48cGF0aCBkPSJNMTAxMiwxNjAzIEwxMTI1LDE2MDMgTDExMzcsMTYxNSBMMTEzNywxNjc5LjU0NjkgTDExMjUsMTY5MS41NDY5IEwxMDEyLDE2OTEuNTQ2OSBMMTAwMCwxNjc5LjU0NjkgTDEwMDAsMTYxNSBMMTAxMiwxNjAzICIgZmlsbD0iI0VGRUZGRiIgc3R5bGU9InN0cm9rZTojMTgxODE4O3N0cm9rZS13aWR0aDowLjU7Ii8+PGltYWdlIGhlaWdodD0iMTYiIHdpZHRoPSIxNiIgeD0iMTExMiIgeGxpbms6aHJlZj0iZGF0YTppbWFnZS9wbmc7YmFzZTY0LGlWQk9SdzBLR2dvQUFBQU5TVWhFVWdBQUFCQUFBQUFRQ0FZQUFBQWY4LzloQUFBQUxrbEVRVlI0WG1OZ0dKYmdINGtZQmZ3N2MrYi9mMkl4UlFaUXBKbGlBeWpTVExFQkZHbkdhUUNKZUJTZ0FRRG1VUzhnWXNyTHNBQUFBQUJKUlU1RXJrSmdnZz09IiB5PSIxNjEzIi8+PHRleHQgZmlsbD0iIzAwMDAwMCIgZm9udC1mYW1pbHk9InNhbnMtc2VyaWYiIGZvbnQtc2l6ZT0iMTgiIGZvbnQtd2VpZ2h0PSJib2xkIiBsZW5ndGhBZGp1c3Q9InNwYWNpbmciIHRleHRMZW5ndGg9IjExNyIgeD0iMTAxMCIgeT0iMTY0NC43MDgiPkFSQ0gtMS42LjI8L3RleHQ+PHRleHQgZmlsbD0iIzAwMDAwMCIgZm9udC1mYW1pbHk9InNhbnMtc2VyaWYiIGZvbnQtc2l6ZT0iMTQiIGxlbmd0aEFkanVzdD0ic3BhY2luZyIgdGV4dExlbmd0aD0iMjUiIHg9IjEwNTYiIHk9IjE2NjEuOTQ4MiI+S2V5PC90ZXh0Pjx0ZXh0IGZpbGw9IiMwMDAwMDAiIGZvbnQtZmFtaWx5PSJzYW5zLXNlcmlmIiBmb250LXNpemU9IjE0IiBsZW5ndGhBZGp1c3Q9InNwYWNpbmciIHRleHRMZW5ndGg9IjcxIiB4PSIxMDMzIiB5PSIxNjc4LjI0NTEiPnByb3RlY3Rpb248L3RleHQ+PC9nPjwhLS1lbnRpdHkgQVJDSDE2M0tleXJlcGxhY2VtZW50LS0+PGcgaWQ9ImVsZW1fQVJDSDE2M0tleXJlcGxhY2VtZW50Ij48cGF0aCBkPSJNMTAxMiwxNDc5IEwxMTI1LDE0NzkgTDExMzcsMTQ5MSBMMTEzNywxNTU1LjU0NjkgTDExMjUsMTU2Ny41NDY5IEwxMDEyLDE1NjcuNTQ2OSBMMTAwMCwxNTU1LjU0NjkgTDEwMDAsMTQ5MSBMMTAxMiwxNDc5ICIgZmlsbD0iI0VGRUZGRiIgc3R5bGU9InN0cm9rZTojMTgxODE4O3N0cm9rZS13aWR0aDowLjU7Ii8+PGltYWdlIGhlaWdodD0iMTYiIHdpZHRoPSIxNiIgeD0iMTExMiIgeGxpbms6aHJlZj0iZGF0YTppbWFnZS9wbmc7YmFzZTY0LGlWQk9SdzBLR2dvQUFBQU5TVWhFVWdBQUFCQUFBQUFRQ0FZQUFBQWY4LzloQUFBQUxrbEVRVlI0WG1OZ0dKYmdINGtZQmZ3N2MrYi9mMkl4UlFaUXBKbGlBeWpTVExFQkZHbkdhUUNKZUJTZ0FRRG1VUzhnWXNyTHNBQUFBQUJKUlU1RXJrSmdnZz09IiB5PSIxNDg5Ii8+PHRleHQgZmlsbD0iIzAwMDAwMCIgZm9udC1mYW1pbHk9InNhbnMtc2VyaWYiIGZvbnQtc2l6ZT0iMTgiIGZvbnQtd2VpZ2h0PSJib2xkIiBsZW5ndGhBZGp1c3Q9InNwYWNpbmciIHRleHRMZW5ndGg9IjExNyIgeD0iMTAxMCIgeT0iMTUyMC43MDgiPkFSQ0gtMS42LjM8L3RleHQ+PHRleHQgZmlsbD0iIzAwMDAwMCIgZm9udC1mYW1pbHk9InNhbnMtc2VyaWYiIGZvbnQtc2l6ZT0iMTQiIGxlbmd0aEFkanVzdD0ic3BhY2luZyIgdGV4dExlbmd0aD0iMjUiIHg9IjEwNTYiIHk9IjE1MzcuOTQ4MiI+S2V5PC90ZXh0Pjx0ZXh0IGZpbGw9IiMwMDAwMDAiIGZvbnQtZmFtaWx5PSJzYW5zLXNlcmlmIiBmb250LXNpemU9IjE0IiBsZW5ndGhBZGp1c3Q9InNwYWNpbmciIHRleHRMZW5ndGg9Ijg3IiB4PSIxMDI1IiB5PSIxNTU0LjI0NTEiPnJlcGxhY2VtZW50PC90ZXh0PjwvZz48IS0tZW50aXR5IEFSQ0gxMTZEZXNpZ25hbmRBcmNoaXRlY3RTZWN1cml0eUluLS0+PGcgaWQ9ImVsZW1fQVJDSDExNkRlc2lnbmFuZEFyY2hpdGVjdFNlY3VyaXR5SW4iPjxwYXRoIGQ9Ik01OTMsMTQyNSBMNzA2LDE0MjUgTDcxOCwxNDM3IEw3MTgsMTU1MC40Mzc1IEw3MDYsMTU2Mi40Mzc1IEw1OTMsMTU2Mi40Mzc1IEw1ODEsMTU1MC40Mzc1IEw1ODEsMTQzNyBMNTkzLDE0MjUgIiBmaWxsPSIjRUZFRkZGIiBzdHlsZT0ic3Ryb2tlOiMxODE4MTg7c3Ryb2tlLXdpZHRoOjAuNTsiLz48aW1hZ2UgaGVpZ2h0PSIxNiIgd2lkdGg9IjE2IiB4PSI2OTMiIHhsaW5rOmhyZWY9ImRhdGE6aW1hZ2UvcG5nO2Jhc2U2NCxpVkJPUncwS0dnb0FBQUFOU1VoRVVnQUFBQkFBQUFBUUNBWUFBQUFmOC85aEFBQUFMa2xFUVZSNFhtTmdHSmJnSDRrWUJmdzdjK2IvZjJJeFJRWlFwSmxpQXlqU1RMRUJGR25HYVFDSmVCU2dBUURtVVM4Z1lzckxzQUFBQUFCSlJVNUVya0pnZ2c9PSIgeT0iMTQzNSIvPjx0ZXh0IGZpbGw9IiMwMDAwMDAiIGZvbnQtZmFtaWx5PSJzYW5zLXNlcmlmIiBmb250LXNpemU9IjE4IiBmb250LXdlaWdodD0iYm9sZCIgbGVuZ3RoQWRqdXN0PSJzcGFjaW5nIiB0ZXh0TGVuZ3RoPSIxMTciIHg9IjU5MSIgeT0iMTQ2Ni43MDgiPkFSQ0gtMS4xLjY8L3RleHQ+PHRleHQgZmlsbD0iIzAwMDAwMCIgZm9udC1mYW1pbHk9InNhbnMtc2VyaWYiIGZvbnQtc2l6ZT0iMTQiIGxlbmd0aEFkanVzdD0ic3BhY2luZyIgdGV4dExlbmd0aD0iNDkiIHg9IjYyNSIgeT0iMTQ4My45NDgyIj5EZXNpZ248L3RleHQ+PHRleHQgZmlsbD0iIzAwMDAwMCIgZm9udC1mYW1pbHk9InNhbnMtc2VyaWYiIGZvbnQtc2l6ZT0iMTQiIGxlbmd0aEFkanVzdD0ic3BhY2luZyIgdGV4dExlbmd0aD0iMjYiIHg9IjYzNi41IiB5PSIxNTAwLjI0NTEiPmFuZDwvdGV4dD48dGV4dCBmaWxsPSIjMDAwMDAwIiBmb250LWZhbWlseT0ic2Fucy1zZXJpZiIgZm9udC1zaXplPSIxNCIgbGVuZ3RoQWRqdXN0PSJzcGFjaW5nIiB0ZXh0TGVuZ3RoPSI2MSIgeD0iNjE5IiB5PSIxNTE2LjU0MiI+QXJjaGl0ZWN0PC90ZXh0Pjx0ZXh0IGZpbGw9IiMwMDAwMDAiIGZvbnQtZmFtaWx5PSJzYW5zLXNlcmlmIiBmb250LXNpemU9IjE0IiBsZW5ndGhBZGp1c3Q9InNwYWNpbmciIHRleHRMZW5ndGg9IjU1IiB4PSI2MjIiIHk9IjE1MzIuODM4OSI+U2VjdXJpdHk8L3RleHQ+PHRleHQgZmlsbD0iIzAwMDAwMCIgZm9udC1mYW1pbHk9InNhbnMtc2VyaWYiIGZvbnQtc2l6ZT0iMTQiIGxlbmd0aEFkanVzdD0ic3BhY2luZyIgdGV4dExlbmd0aD0iMTIiIHg9IjY0My41IiB5PSIxNTQ5LjEzNTciPkluPC90ZXh0PjwvZz48IS0tZW50aXR5IEFSQ0gxMTFTRExDLS0+PGcgaWQ9ImVsZW1fQVJDSDExMVNETEMiPjxwYXRoIGQ9Ik0zOTAsMjE4OS41IEw1MDMsMjE4OS41IEw1MTUsMjIwMS41IEw1MTUsMjI0OS43NSBMNTAzLDIyNjEuNzUgTDM5MCwyMjYxLjc1IEwzNzgsMjI0OS43NSBMMzc4LDIyMDEuNSBMMzkwLDIxODkuNSAiIGZpbGw9IiNFRkVGRkYiIHN0eWxlPSJzdHJva2U6IzE4MTgxODtzdHJva2Utd2lkdGg6MC41OyIvPjxpbWFnZSBoZWlnaHQ9IjE2IiB3aWR0aD0iMTYiIHg9IjQ5MCIgeGxpbms6aHJlZj0iZGF0YTppbWFnZS9wbmc7YmFzZTY0LGlWQk9SdzBLR2dvQUFBQU5TVWhFVWdBQUFCQUFBQUFRQ0FZQUFBQWY4LzloQUFBQUxrbEVRVlI0WG1OZ0dKYmdINGtZQmZ3N2MrYi9mMkl4UlFaUXBKbGlBeWpTVExFQkZHbkdhUUNKZUJTZ0FRRG1VUzhnWXNyTHNBQUFBQUJKUlU1RXJrSmdnZz09IiB5PSIyMTk5LjUiLz48dGV4dCBmaWxsPSIjMDAwMDAwIiBmb250LWZhbWlseT0ic2Fucy1zZXJpZiIgZm9udC1zaXplPSIxOCIgZm9udC13ZWlnaHQ9ImJvbGQiIGxlbmd0aEFkanVzdD0ic3BhY2luZyIgdGV4dExlbmd0aD0iMTE3IiB4PSIzODgiIHk9IjIyMzEuMjA4Ij5BUkNILTEuMS4xPC90ZXh0Pjx0ZXh0IGZpbGw9IiMwMDAwMDAiIGZvbnQtZmFtaWx5PSJzYW5zLXNlcmlmIiBmb250LXNpemU9IjE0IiBsZW5ndGhBZGp1c3Q9InNwYWNpbmciIHRleHRMZW5ndGg9IjM3IiB4PSI0MjgiIHk9IjIyNDguNDQ4MiI+U0RMQzwvdGV4dD48L2c+PCEtLWVudGl0eSBBUkNIMTI0QXV0aGVudGljYXRpb25wYXRocy0tPjxnIGlkPSJlbGVtX0FSQ0gxMjRBdXRoZW50aWNhdGlvbnBhdGhzIj48cGF0aCBkPSJNMTAxMiwxMTk5IEwxMTI1LDExOTkgTDExMzcsMTIxMSBMMTEzNywxMjc1LjU0NjkgTDExMjUsMTI4Ny41NDY5IEwxMDEyLDEyODcuNTQ2OSBMMTAwMCwxMjc1LjU0NjkgTDEwMDAsMTIxMSBMMTAxMiwxMTk5ICIgZmlsbD0iI0VGRUZGRiIgc3R5bGU9InN0cm9rZTojMTgxODE4O3N0cm9rZS13aWR0aDowLjU7Ii8+PGltYWdlIGhlaWdodD0iMTYiIHdpZHRoPSIxNiIgeD0iMTExMiIgeGxpbms6aHJlZj0iZGF0YTppbWFnZS9wbmc7YmFzZTY0LGlWQk9SdzBLR2dvQUFBQU5TVWhFVWdBQUFCQUFBQUFRQ0FZQUFBQWY4LzloQUFBQUxrbEVRVlI0WG1OZ0dKYmdINGtZQmZ3N2MrYi9mMkl4UlFaUXBKbGlBeWpTVExFQkZHbkdhUUNKZUJTZ0FRRG1VUzhnWXNyTHNBQUFBQUJKUlU1RXJrSmdnZz09IiB5PSIxMjA5Ii8+PHRleHQgZmlsbD0iIzAwMDAwMCIgZm9udC1mYW1pbHk9InNhbnMtc2VyaWYiIGZvbnQtc2l6ZT0iMTgiIGZvbnQtd2VpZ2h0PSJib2xkIiBsZW5ndGhBZGp1c3Q9InNwYWNpbmciIHRleHRMZW5ndGg9IjExNyIgeD0iMTAxMCIgeT0iMTI0MC43MDgiPkFSQ0gtMS4yLjQ8L3RleHQ+PHRleHQgZmlsbD0iIzAwMDAwMCIgZm9udC1mYW1pbHk9InNhbnMtc2VyaWYiIGZvbnQtc2l6ZT0iMTQiIGxlbmd0aEFkanVzdD0ic3BhY2luZyIgdGV4dExlbmd0aD0iMTAwIiB4PSIxMDE4LjUiIHk9IjEyNTcuOTQ4MiI+QXV0aGVudGljYXRpb248L3RleHQ+PHRleHQgZmlsbD0iIzAwMDAwMCIgZm9udC1mYW1pbHk9InNhbnMtc2VyaWYiIGZvbnQtc2l6ZT0iMTQiIGxlbmd0aEFkanVzdD0ic3BhY2luZyIgdGV4dExlbmd0aD0iMzkiIHg9IjEwNDkiIHk9IjEyNzQuMjQ1MSI+cGF0aHM8L3RleHQ+PC9nPjwhLS1lbnRpdHkgQVJDSDE0MUFjY2Vzc0VuZm9yY2VtZW50UG9pbnRzLS0+PGcgaWQ9ImVsZW1fQVJDSDE0MUFjY2Vzc0VuZm9yY2VtZW50UG9pbnRzIj48cGF0aCBkPSJNMTAxMiwxMzM5IEwxMTI1LDEzMzkgTDExMzcsMTM1MSBMMTEzNywxNDMxLjg0MzggTDExMjUsMTQ0My44NDM4IEwxMDEyLDE0NDMuODQzOCBMMTAwMCwxNDMxLjg0MzggTDEwMDAsMTM1MSBMMTAxMiwxMzM5ICIgZmlsbD0iI0VGRUZGRiIgc3R5bGU9InN0cm9rZTojMTgxODE4O3N0cm9rZS13aWR0aDowLjU7Ii8+PGltYWdlIGhlaWdodD0iMTYiIHdpZHRoPSIxNiIgeD0iMTExMiIgeGxpbms6aHJlZj0iZGF0YTppbWFnZS9wbmc7YmFzZTY0LGlWQk9SdzBLR2dvQUFBQU5TVWhFVWdBQUFCQUFBQUFRQ0FZQUFBQWY4LzloQUFBQUxrbEVRVlI0WG1OZ0dKYmdINGtZQmZ3N2MrYi9mMkl4UlFaUXBKbGlBeWpTVExFQkZHbkdhUUNKZUJTZ0FRRG1VUzhnWXNyTHNBQUFBQUJKUlU1RXJrSmdnZz09IiB5PSIxMzQ5Ii8+PHRleHQgZmlsbD0iIzAwMDAwMCIgZm9udC1mYW1pbHk9InNhbnMtc2VyaWYiIGZvbnQtc2l6ZT0iMTgiIGZvbnQtd2VpZ2h0PSJib2xkIiBsZW5ndGhBZGp1c3Q9InNwYWNpbmciIHRleHRMZW5ndGg9IjExNyIgeD0iMTAxMCIgeT0iMTM4MC43MDgiPkFSQ0gtMS40LjE8L3RleHQ+PHRleHQgZmlsbD0iIzAwMDAwMCIgZm9udC1mYW1pbHk9InNhbnMtc2VyaWYiIGZvbnQtc2l6ZT0iMTQiIGxlbmd0aEFkanVzdD0ic3BhY2luZyIgdGV4dExlbmd0aD0iNTAiIHg9IjEwNDMuNSIgeT0iMTM5Ny45NDgyIj5BY2Nlc3M8L3RleHQ+PHRleHQgZmlsbD0iIzAwMDAwMCIgZm9udC1mYW1pbHk9InNhbnMtc2VyaWYiIGZvbnQtc2l6ZT0iMTQiIGxlbmd0aEFkanVzdD0ic3BhY2luZyIgdGV4dExlbmd0aD0iODkiIHg9IjEwMjQiIHk9IjE0MTQuMjQ1MSI+RW5mb3JjZW1lbnQ8L3RleHQ+PHRleHQgZmlsbD0iIzAwMDAwMCIgZm9udC1mYW1pbHk9InNhbnMtc2VyaWYiIGZvbnQtc2l6ZT0iMTQiIGxlbmd0aEFkanVzdD0ic3BhY2luZyIgdGV4dExlbmd0aD0iNDMiIHg9IjEwNDciIHk9IjE0MzAuNTQyIj5Qb2ludHM8L3RleHQ+PC9nPjwhLS1lbnRpdHkgQVJDSDE1MlNlcmlhbGl6YXRpb24tLT48ZyBpZD0iZWxlbV9BUkNIMTUyU2VyaWFsaXphdGlvbiI+PHBhdGggZD0iTTgwMi41LDE3NzYuNSBMOTE1LjUsMTc3Ni41IEw5MjcuNSwxNzg4LjUgTDkyNy41LDE4MzYuNzUgTDkxNS41LDE4NDguNzUgTDgwMi41LDE4NDguNzUgTDc5MC41LDE4MzYuNzUgTDc5MC41LDE3ODguNSBMODAyLjUsMTc3Ni41ICIgZmlsbD0iI0VGRUZGRiIgc3R5bGU9InN0cm9rZTojMTgxODE4O3N0cm9rZS13aWR0aDowLjU7Ii8+PGltYWdlIGhlaWdodD0iMTYiIHdpZHRoPSIxNiIgeD0iOTAyLjUiIHhsaW5rOmhyZWY9ImRhdGE6aW1hZ2UvcG5nO2Jhc2U2NCxpVkJPUncwS0dnb0FBQUFOU1VoRVVnQUFBQkFBQUFBUUNBWUFBQUFmOC85aEFBQUFMa2xFUVZSNFhtTmdHSmJnSDRrWUJmdzdjK2IvZjJJeFJRWlFwSmxpQXlqU1RMRUJGR25HYVFDSmVCU2dBUURtVVM4Z1lzckxzQUFBQUFCSlJVNUVya0pnZ2c9PSIgeT0iMTc4Ni41Ii8+PHRleHQgZmlsbD0iIzAwMDAwMCIgZm9udC1mYW1pbHk9InNhbnMtc2VyaWYiIGZvbnQtc2l6ZT0iMTgiIGZvbnQtd2VpZ2h0PSJib2xkIiBsZW5ndGhBZGp1c3Q9InNwYWNpbmciIHRleHRMZW5ndGg9IjExNyIgeD0iODAwLjUiIHk9IjE4MTguMjA4Ij5BUkNILTEuNS4yPC90ZXh0Pjx0ZXh0IGZpbGw9IiMwMDAwMDAiIGZvbnQtZmFtaWx5PSJzYW5zLXNlcmlmIiBmb250LXNpemU9IjE0IiBsZW5ndGhBZGp1c3Q9InNwYWNpbmciIHRleHRMZW5ndGg9IjgyIiB4PSI4MTgiIHk9IjE4MzUuNDQ4MiI+U2VyaWFsaXphdGlvbjwvdGV4dD48L2c+PCEtLWVudGl0eSBBUkNIMTUzSW5wdXR2YWxpZGF0aW9uLS0+PGcgaWQ9ImVsZW1fQVJDSDE1M0lucHV0dmFsaWRhdGlvbiI+PHBhdGggZD0iTTEwMTIsMTk2MiBMMTEyNSwxOTYyIEwxMTM3LDE5NzQgTDExMzcsMjAzOC41NDY5IEwxMTI1LDIwNTAuNTQ2OSBMMTAxMiwyMDUwLjU0NjkgTDEwMDAsMjAzOC41NDY5IEwxMDAwLDE5NzQgTDEwMTIsMTk2MiAiIGZpbGw9IiNFRkVGRkYiIHN0eWxlPSJzdHJva2U6IzE4MTgxODtzdHJva2Utd2lkdGg6MC41OyIvPjxpbWFnZSBoZWlnaHQ9IjE2IiB3aWR0aD0iMTYiIHg9IjExMTIiIHhsaW5rOmhyZWY9ImRhdGE6aW1hZ2UvcG5nO2Jhc2U2NCxpVkJPUncwS0dnb0FBQUFOU1VoRVVnQUFBQkFBQUFBUUNBWUFBQUFmOC85aEFBQUFMa2xFUVZSNFhtTmdHSmJnSDRrWUJmdzdjK2IvZjJJeFJRWlFwSmxpQXlqU1RMRUJGR25HYVFDSmVCU2dBUURtVVM4Z1lzckxzQUFBQUFCSlJVNUVya0pnZ2c9PSIgeT0iMTk3MiIvPjx0ZXh0IGZpbGw9IiMwMDAwMDAiIGZvbnQtZmFtaWx5PSJzYW5zLXNlcmlmIiBmb250LXNpemU9IjE4IiBmb250LXdlaWdodD0iYm9sZCIgbGVuZ3RoQWRqdXN0PSJzcGFjaW5nIiB0ZXh0TGVuZ3RoPSIxMTciIHg9IjEwMTAiIHk9IjIwMDMuNzA4Ij5BUkNILTEuNS4zPC90ZXh0Pjx0ZXh0IGZpbGw9IiMwMDAwMDAiIGZvbnQtZmFtaWx5PSJzYW5zLXNlcmlmIiBmb250LXNpemU9IjE0IiBsZW5ndGhBZGp1c3Q9InNwYWNpbmciIHRleHRMZW5ndGg9IjM1IiB4PSIxMDUxIiB5PSIyMDIwLjk0ODIiPklucHV0PC90ZXh0Pjx0ZXh0IGZpbGw9IiMwMDAwMDAiIGZvbnQtZmFtaWx5PSJzYW5zLXNlcmlmIiBmb250LXNpemU9IjE0IiBsZW5ndGhBZGp1c3Q9InNwYWNpbmciIHRleHRMZW5ndGg9IjY0IiB4PSIxMDM2LjUiIHk9IjIwMzcuMjQ1MSI+dmFsaWRhdGlvbjwvdGV4dD48L2c+PCEtLWVudGl0eSBBUkNIMTU0T3V0cHV0ZW5jb2RpbmctLT48ZyBpZD0iZWxlbV9BUkNIMTU0T3V0cHV0ZW5jb2RpbmciPjxwYXRoIGQ9Ik0xMDEyLDE3MjcgTDExMjUsMTcyNyBMMTEzNywxNzM5IEwxMTM3LDE4MDMuNTQ2OSBMMTEyNSwxODE1LjU0NjkgTDEwMTIsMTgxNS41NDY5IEwxMDAwLDE4MDMuNTQ2OSBMMTAwMCwxNzM5IEwxMDEyLDE3MjcgIiBmaWxsPSIjRUZFRkZGIiBzdHlsZT0ic3Ryb2tlOiMxODE4MTg7c3Ryb2tlLXdpZHRoOjAuNTsiLz48aW1hZ2UgaGVpZ2h0PSIxNiIgd2lkdGg9IjE2IiB4PSIxMTEyIiB4bGluazpocmVmPSJkYXRhOmltYWdlL3BuZztiYXNlNjQsaVZCT1J3MEtHZ29BQUFBTlNVaEVVZ0FBQUJBQUFBQVFDQVlBQUFBZjgvOWhBQUFBTGtsRVFWUjRYbU5nR0piZ0g0a1lCZnc3YytiL2YySXhSUVpRcEpsaUF5alNUTEVCRkduR2FRQ0plQlNnQVFEbVVTOGdZc3JMc0FBQUFBQkpSVTVFcmtKZ2dnPT0iIHk9IjE3MzciLz48dGV4dCBmaWxsPSIjMDAwMDAwIiBmb250LWZhbWlseT0ic2Fucy1zZXJpZiIgZm9udC1zaXplPSIxOCIgZm9udC13ZWlnaHQ9ImJvbGQiIGxlbmd0aEFkanVzdD0ic3BhY2luZyIgdGV4dExlbmd0aD0iMTE3IiB4PSIxMDEwIiB5PSIxNzY4LjcwOCI+QVJDSC0xLjUuNDwvdGV4dD48dGV4dCBmaWxsPSIjMDAwMDAwIiBmb250LWZhbWlseT0ic2Fucy1zZXJpZiIgZm9udC1zaXplPSIxNCIgbGVuZ3RoQWRqdXN0PSJzcGFjaW5nIiB0ZXh0TGVuZ3RoPSI0OCIgeD0iMTA0NC41IiB5PSIxNzg1Ljk0ODIiPk91dHB1dDwvdGV4dD48dGV4dCBmaWxsPSIjMDAwMDAwIiBmb250LWZhbWlseT0ic2Fucy1zZXJpZiIgZm9udC1zaXplPSIxNCIgbGVuZ3RoQWRqdXN0PSJzcGFjaW5nIiB0ZXh0TGVuZ3RoPSI2NSIgeD0iMTAzNiIgeT0iMTgwMi4yNDUxIj5lbmNvZGluZzwvdGV4dD48L2c+PCEtLWVudGl0eSBBUkNIMTExM1RocmVhZFNhZmUtLT48ZyBpZD0iZWxlbV9BUkNIMTExM1RocmVhZFNhZmUiPjxwYXRoIGQ9Ik03OTYsMTg4NCBMOTIyLDE4ODQgTDkzNCwxODk2IEw5MzQsMTk2MC41NDY5IEw5MjIsMTk3Mi41NDY5IEw3OTYsMTk3Mi41NDY5IEw3ODQsMTk2MC41NDY5IEw3ODQsMTg5NiBMNzk2LDE4ODQgIiBmaWxsPSIjRUZFRkZGIiBzdHlsZT0ic3Ryb2tlOiMxODE4MTg7c3Ryb2tlLXdpZHRoOjAuNTsiLz48aW1hZ2UgaGVpZ2h0PSIxNiIgd2lkdGg9IjE2IiB4PSI5MDkiIHhsaW5rOmhyZWY9ImRhdGE6aW1hZ2UvcG5nO2Jhc2U2NCxpVkJPUncwS0dnb0FBQUFOU1VoRVVnQUFBQkFBQUFBUUNBWUFBQUFmOC85aEFBQUFMa2xFUVZSNFhtTmdHSmJnSDRrWUJmdzdjK2IvZjJJeFJRWlFwSmxpQXlqU1RMRUJGR25HYVFDSmVCU2dBUURtVVM4Z1lzckxzQUFBQUFCSlJVNUVya0pnZ2c9PSIgeT0iMTg5NCIvPjx0ZXh0IGZpbGw9IiMwMDAwMDAiIGZvbnQtZmFtaWx5PSJzYW5zLXNlcmlmIiBmb250LXNpemU9IjE4IiBmb250LXdlaWdodD0iYm9sZCIgbGVuZ3RoQWRqdXN0PSJzcGFjaW5nIiB0ZXh0TGVuZ3RoPSIxMzAiIHg9Ijc5NCIgeT0iMTkyNS43MDgiPkFSQ0gtMS4xMS4zPC90ZXh0Pjx0ZXh0IGZpbGw9IiMwMDAwMDAiIGZvbnQtZmFtaWx5PSJzYW5zLXNlcmlmIiBmb250LXNpemU9IjE0IiBsZW5ndGhBZGp1c3Q9InNwYWNpbmciIHRleHRMZW5ndGg9IjQ5IiB4PSI4MzQuNSIgeT0iMTk0Mi45NDgyIj5UaHJlYWQ8L3RleHQ+PHRleHQgZmlsbD0iIzAwMDAwMCIgZm9udC1mYW1pbHk9InNhbnMtc2VyaWYiIGZvbnQtc2l6ZT0iMTQiIGxlbmd0aEFkanVzdD0ic3BhY2luZyIgdGV4dExlbmd0aD0iMzAiIHg9Ijg0NCIgeT0iMTk1OS4yNDUxIj5TYWZlPC90ZXh0PjwvZz48IS0tZW50aXR5IFNETEM0RG9jdW1lbnRoaWdobGV2ZWxhcmNoaXRlY3R1cmVhbmR0aHJlYXRtb2RlbC0tPjxnIGlkPSJlbGVtX1NETEM0RG9jdW1lbnRoaWdobGV2ZWxhcmNoaXRlY3R1cmVhbmR0aHJlYXRtb2RlbCI+PHBhdGggZD0iTTE4LDE5OTcuNSBMOTcsMTk5Ny41IEwxMDksMjAwOS41IEwxMDksMjE3MS44MjgxIEw5NywyMTgzLjgyODEgTDE4LDIxODMuODI4MSBMNiwyMTcxLjgyODEgTDYsMjAwOS41IEwxOCwxOTk3LjUgIiBmaWxsPSIjRUZFRkZGIiBzdHlsZT0ic3Ryb2tlOiMxODE4MTg7c3Ryb2tlLXdpZHRoOjAuNTsiLz48aW1hZ2UgaGVpZ2h0PSIxNiIgd2lkdGg9IjE2IiB4PSI4NCIgeGxpbms6aHJlZj0iZGF0YTppbWFnZS9wbmc7YmFzZTY0LGlWQk9SdzBLR2dvQUFBQU5TVWhFVWdBQUFCQUFBQUFRQ0FZQUFBQWY4LzloQUFBQUxrbEVRVlI0WG1OZ0dKYmdINGtZQmZ3N2MrYi9mMkl4UlFaUXBKbGlBeWpTVExFQkZHbkdhUUNKZUJTZ0FRRG1VUzhnWXNyTHNBQUFBQUJKUlU1RXJrSmdnZz09IiB5PSIyMDA3LjUiLz48dGV4dCBmaWxsPSIjMDAwMDAwIiBmb250LWZhbWlseT0ic2Fucy1zZXJpZiIgZm9udC1zaXplPSIxOCIgZm9udC13ZWlnaHQ9ImJvbGQiIGxlbmd0aEFkanVzdD0ic3BhY2luZyIgdGV4dExlbmd0aD0iNjUiIHg9IjI1IiB5PSIyMDM5LjIwOCI+U0RMQzQ8L3RleHQ+PHRleHQgZmlsbD0iIzAwMDAwMCIgZm9udC1mYW1pbHk9InNhbnMtc2VyaWYiIGZvbnQtc2l6ZT0iMTQiIGxlbmd0aEFkanVzdD0ic3BhY2luZyIgdGV4dExlbmd0aD0iNSIgeD0iNTUiIHk9IjIwNTYuNDQ4MiI+LTwvdGV4dD48dGV4dCBmaWxsPSIjMDAwMDAwIiBmb250LWZhbWlseT0ic2Fucy1zZXJpZiIgZm9udC1zaXplPSIxNCIgbGVuZ3RoQWRqdXN0PSJzcGFjaW5nIiB0ZXh0TGVuZ3RoPSI3MyIgeD0iMjEiIHk9IjIwNzIuNzQ1MSI+RG9jdW1lbnQ8L3RleHQ+PHRleHQgZmlsbD0iIzAwMDAwMCIgZm9udC1mYW1pbHk9InNhbnMtc2VyaWYiIGZvbnQtc2l6ZT0iMTQiIGxlbmd0aEFkanVzdD0ic3BhY2luZyIgdGV4dExlbmd0aD0iMzAiIHg9IjQyLjUiIHk9IjIwODkuMDQyIj5oaWdoPC90ZXh0Pjx0ZXh0IGZpbGw9IiMwMDAwMDAiIGZvbnQtZmFtaWx5PSJzYW5zLXNlcmlmIiBmb250LXNpemU9IjE0IiBsZW5ndGhBZGp1c3Q9InNwYWNpbmciIHRleHRMZW5ndGg9IjMxIiB4PSI0MiIgeT0iMjEwNS4zMzg5Ij5sZXZlbDwvdGV4dD48dGV4dCBmaWxsPSIjMDAwMDAwIiBmb250LWZhbWlseT0ic2Fucy1zZXJpZiIgZm9udC1zaXplPSIxNCIgbGVuZ3RoQWRqdXN0PSJzcGFjaW5nIiB0ZXh0TGVuZ3RoPSI4MyIgeD0iMTYiIHk9IjIxMjEuNjM1NyI+YXJjaGl0ZWN0dXJlPC90ZXh0Pjx0ZXh0IGZpbGw9IiMwMDAwMDAiIGZvbnQtZmFtaWx5PSJzYW5zLXNlcmlmIiBmb250LXNpemU9IjE0IiBsZW5ndGhBZGp1c3Q9InNwYWNpbmciIHRleHRMZW5ndGg9IjI2IiB4PSI0NC41IiB5PSIyMTM3LjkzMjYiPmFuZDwvdGV4dD48dGV4dCBmaWxsPSIjMDAwMDAwIiBmb250LWZhbWlseT0ic2Fucy1zZXJpZiIgZm9udC1zaXplPSIxNCIgbGVuZ3RoQWRqdXN0PSJzcGFjaW5nIiB0ZXh0TGVuZ3RoPSI0MSIgeD0iMzciIHk9IjIxNTQuMjI5NSI+dGhyZWF0PC90ZXh0Pjx0ZXh0IGZpbGw9IiMwMDAwMDAiIGZvbnQtZmFtaWx5PSJzYW5zLXNlcmlmIiBmb250LXNpemU9IjE0IiBsZW5ndGhBZGp1c3Q9InNwYWNpbmciIHRleHRMZW5ndGg9IjQzIiB4PSIzNiIgeT0iMjE3MC41MjY0Ij5tb2RlbDwvdGV4dD48L2c+PCEtLWVudGl0eSBBUkNIMTkxQ29tbXVuaWNhdGlvblByb3RlY3Rpb24tLT48ZyBpZD0iZWxlbV9BUkNIMTkxQ29tbXVuaWNhdGlvblByb3RlY3Rpb24iPjxwYXRoIGQ9Ik0xMDEyLDczMSBMMTEyNSw3MzEgTDExMzcsNzQzIEwxMTM3LDgwNy41NDY5IEwxMTI1LDgxOS41NDY5IEwxMDEyLDgxOS41NDY5IEwxMDAwLDgwNy41NDY5IEwxMDAwLDc0MyBMMTAxMiw3MzEgIiBmaWxsPSIjRUZFRkZGIiBzdHlsZT0ic3Ryb2tlOiMxODE4MTg7c3Ryb2tlLXdpZHRoOjAuNTsiLz48aW1hZ2UgaGVpZ2h0PSIxNiIgd2lkdGg9IjE2IiB4PSIxMTEyIiB4bGluazpocmVmPSJkYXRhOmltYWdlL3BuZztiYXNlNjQsaVZCT1J3MEtHZ29BQUFBTlNVaEVVZ0FBQUJBQUFBQVFDQVlBQUFBZjgvOWhBQUFBTGtsRVFWUjRYbU5nR0piZ0g0a1lCZnc3YytiL2YySXhSUVpRcEpsaUF5alNUTEVCRkduR2FRQ0plQlNnQVFEbVVTOGdZc3JMc0FBQUFBQkpSVTVFcmtKZ2dnPT0iIHk9Ijc0MSIvPjx0ZXh0IGZpbGw9IiMwMDAwMDAiIGZvbnQtZmFtaWx5PSJzYW5zLXNlcmlmIiBmb250LXNpemU9IjE4IiBmb250LXdlaWdodD0iYm9sZCIgbGVuZ3RoQWRqdXN0PSJzcGFjaW5nIiB0ZXh0TGVuZ3RoPSIxMTciIHg9IjEwMTAiIHk9Ijc3Mi43MDgiPkFSQ0gtMS45LjE8L3RleHQ+PHRleHQgZmlsbD0iIzAwMDAwMCIgZm9udC1mYW1pbHk9InNhbnMtc2VyaWYiIGZvbnQtc2l6ZT0iMTQiIGxlbmd0aEFkanVzdD0ic3BhY2luZyIgdGV4dExlbmd0aD0iMTA4IiB4PSIxMDE0LjUiIHk9Ijc4OS45NDgyIj5Db21tdW5pY2F0aW9uPC90ZXh0Pjx0ZXh0IGZpbGw9IiMwMDAwMDAiIGZvbnQtZmFtaWx5PSJzYW5zLXNlcmlmIiBmb250LXNpemU9IjE0IiBsZW5ndGhBZGp1c3Q9InNwYWNpbmciIHRleHRMZW5ndGg9IjcxIiB4PSIxMDMzIiB5PSI4MDYuMjQ1MSI+UHJvdGVjdGlvbjwvdGV4dD48L2c+PCEtLWVudGl0eSBJTkZPM0xvY2FsRGF0YXN0b3JlLS0+PGcgaWQ9ImVsZW1fSU5GTzNMb2NhbERhdGFzdG9yZSI+PHBhdGggZD0iTTE0MzAsMTYzMCBMMTQ5NSwxNjMwIEwxNTA3LDE2NDIgTDE1MDcsMTcyMi44NDM4IEwxNDk1LDE3MzQuODQzOCBMMTQzMCwxNzM0Ljg0MzggTDE0MTgsMTcyMi44NDM4IEwxNDE4LDE2NDIgTDE0MzAsMTYzMCAiIGZpbGw9IiNFRkVGRkYiIHN0eWxlPSJzdHJva2U6IzE4MTgxODtzdHJva2Utd2lkdGg6MC41OyIvPjxpbWFnZSBoZWlnaHQ9IjE2IiB3aWR0aD0iMTYiIHg9IjE0ODIiIHhsaW5rOmhyZWY9ImRhdGE6aW1hZ2UvcG5nO2Jhc2U2NCxpVkJPUncwS0dnb0FBQUFOU1VoRVVnQUFBQkFBQUFBUUNBWUFBQUFmOC85aEFBQUFMa2xFUVZSNFhtTmdHSmJnSDRrWUJmdzdjK2IvZjJJeFJRWlFwSmxpQXlqU1RMRUJGR25HYVFDSmVCU2dBUURtVVM4Z1lzckxzQUFBQUFCSlJVNUVya0pnZ2c9PSIgeT0iMTY0MCIvPjx0ZXh0IGZpbGw9IiMwMDAwMDAiIGZvbnQtZmFtaWx5PSJzYW5zLXNlcmlmIiBmb250LXNpemU9IjE4IiBmb250LXdlaWdodD0iYm9sZCIgbGVuZ3RoQWRqdXN0PSJzcGFjaW5nIiB0ZXh0TGVuZ3RoPSI2OSIgeD0iMTQyOCIgeT0iMTY3MS43MDgiPklORk8tMzwvdGV4dD48dGV4dCBmaWxsPSIjMDAwMDAwIiBmb250LWZhbWlseT0ic2Fucy1zZXJpZiIgZm9udC1zaXplPSIxNCIgbGVuZ3RoQWRqdXN0PSJzcGFjaW5nIiB0ZXh0TGVuZ3RoPSIzNSIgeD0iMTQ0NSIgeT0iMTY4OC45NDgyIj5Mb2NhbDwvdGV4dD48dGV4dCBmaWxsPSIjMDAwMDAwIiBmb250LWZhbWlseT0ic2Fucy1zZXJpZiIgZm9udC1zaXplPSIxNCIgbGVuZ3RoQWRqdXN0PSJzcGFjaW5nIiB0ZXh0TGVuZ3RoPSIzMiIgeD0iMTQ0Ni41IiB5PSIxNzA1LjI0NTEiPkRhdGE8L3RleHQ+PHRleHQgZmlsbD0iIzAwMDAwMCIgZm9udC1mYW1pbHk9InNhbnMtc2VyaWYiIGZvbnQtc2l6ZT0iMTQiIGxlbmd0aEFkanVzdD0ic3BhY2luZyIgdGV4dExlbmd0aD0iMzYiIHg9IjE0NDQuNSIgeT0iMTcyMS41NDIiPnN0b3JlPC90ZXh0PjwvZz48IS0tZW50aXR5IEFSQ0gyUGx1Z2lucy0tPjxnIGlkPSJlbGVtX0FSQ0gyUGx1Z2lucyI+PHBhdGggZD0iTTEwMzIsMzg2LjUgTDExMDUsMzg2LjUgTDExMTcsMzk4LjUgTDExMTcsNDQ2Ljc1IEwxMTA1LDQ1OC43NSBMMTAzMiw0NTguNzUgTDEwMjAsNDQ2Ljc1IEwxMDIwLDM5OC41IEwxMDMyLDM4Ni41ICIgZmlsbD0iI0VGRUZGRiIgc3R5bGU9InN0cm9rZTojMTgxODE4O3N0cm9rZS13aWR0aDowLjU7Ii8+PGltYWdlIGhlaWdodD0iMTYiIHdpZHRoPSIxNiIgeD0iMTA5MiIgeGxpbms6aHJlZj0iZGF0YTppbWFnZS9wbmc7YmFzZTY0LGlWQk9SdzBLR2dvQUFBQU5TVWhFVWdBQUFCQUFBQUFRQ0FZQUFBQWY4LzloQUFBQUxrbEVRVlI0WG1OZ0dKYmdINGtZQmZ3N2MrYi9mMkl4UlFaUXBKbGlBeWpTVExFQkZHbkdhUUNKZUJTZ0FRRG1VUzhnWXNyTHNBQUFBQUJKUlU1RXJrSmdnZz09IiB5PSIzOTYuNSIvPjx0ZXh0IGZpbGw9IiMwMDAwMDAiIGZvbnQtZmFtaWx5PSJzYW5zLXNlcmlmIiBmb250LXNpemU9IjE4IiBmb250LXdlaWdodD0iYm9sZCIgbGVuZ3RoQWRqdXN0PSJzcGFjaW5nIiB0ZXh0TGVuZ3RoPSI3NyIgeD0iMTAzMCIgeT0iNDI4LjIwOCI+QVJDSC0yPC90ZXh0Pjx0ZXh0IGZpbGw9IiMwMDAwMDAiIGZvbnQtZmFtaWx5PSJzYW5zLXNlcmlmIiBmb250LXNpemU9IjE0IiBsZW5ndGhBZGp1c3Q9InNwYWNpbmciIHRleHRMZW5ndGg9IjUwIiB4PSIxMDQzLjUiIHk9IjQ0NS40NDgyIj5QbHVnaW5zPC90ZXh0PjwvZz48IS0tZW50aXR5IFNETEMxQnVpbGRTeXN0ZW0tLT48ZyBpZD0iZWxlbV9TRExDMUJ1aWxkU3lzdGVtIj48cGF0aCBkPSJNNjE5LDIxNzMgTDY4MCwyMTczIEw2OTIsMjE4NSBMNjkyLDIyNjUuODQzOCBMNjgwLDIyNzcuODQzOCBMNjE5LDIyNzcuODQzOCBMNjA3LDIyNjUuODQzOCBMNjA3LDIxODUgTDYxOSwyMTczICIgZmlsbD0iI0VGRUZGRiIgc3R5bGU9InN0cm9rZTojMTgxODE4O3N0cm9rZS13aWR0aDowLjU7Ii8+PGltYWdlIGhlaWdodD0iMTYiIHdpZHRoPSIxNiIgeD0iNjY3IiB4bGluazpocmVmPSJkYXRhOmltYWdlL3BuZztiYXNlNjQsaVZCT1J3MEtHZ29BQUFBTlNVaEVVZ0FBQUJBQUFBQVFDQVlBQUFBZjgvOWhBQUFBTGtsRVFWUjRYbU5nR0piZ0g0a1lCZnc3YytiL2YySXhSUVpRcEpsaUF5alNUTEVCRkduR2FRQ0plQlNnQVFEbVVTOGdZc3JMc0FBQUFBQkpSVTVFcmtKZ2dnPT0iIHk9IjIxODMiLz48dGV4dCBmaWxsPSIjMDAwMDAwIiBmb250LWZhbWlseT0ic2Fucy1zZXJpZiIgZm9udC1zaXplPSIxOCIgZm9udC13ZWlnaHQ9ImJvbGQiIGxlbmd0aEFkanVzdD0ic3BhY2luZyIgdGV4dExlbmd0aD0iNjUiIHg9IjYxNyIgeT0iMjIxNC43MDgiPlNETEMxPC90ZXh0Pjx0ZXh0IGZpbGw9IiMwMDAwMDAiIGZvbnQtZmFtaWx5PSJzYW5zLXNlcmlmIiBmb250LXNpemU9IjE0IiBsZW5ndGhBZGp1c3Q9InNwYWNpbmciIHRleHRMZW5ndGg9IjUiIHg9IjY0NyIgeT0iMjIzMS45NDgyIj4tPC90ZXh0Pjx0ZXh0IGZpbGw9IiMwMDAwMDAiIGZvbnQtZmFtaWx5PSJzYW5zLXNlcmlmIiBmb250LXNpemU9IjE0IiBsZW5ndGhBZGp1c3Q9InNwYWNpbmciIHRleHRMZW5ndGg9IjM0IiB4PSI2MzIuNSIgeT0iMjI0OC4yNDUxIj5CdWlsZDwvdGV4dD48dGV4dCBmaWxsPSIjMDAwMDAwIiBmb250LWZhbWlseT0ic2Fucy1zZXJpZiIgZm9udC1zaXplPSIxNCIgbGVuZ3RoQWRqdXN0PSJzcGFjaW5nIiB0ZXh0TGVuZ3RoPSI1MSIgeD0iNjI0IiB5PSIyMjY0LjU0MiI+U3lzdGVtPC90ZXh0PjwvZz48IS0tZW50aXR5IFNETEMyRGVwZW5kZW5jeU1hbmFnZW1lbnQtLT48ZyBpZD0iZWxlbV9TRExDMkRlcGVuZGVuY3lNYW5hZ2VtZW50Ij48cGF0aCBkPSJNNjA2LDIzMTMgTDY5MywyMzEzIEw3MDUsMjMyNSBMNzA1LDI0MDUuODQzOCBMNjkzLDI0MTcuODQzOCBMNjA2LDI0MTcuODQzOCBMNTk0LDI0MDUuODQzOCBMNTk0LDIzMjUgTDYwNiwyMzEzICIgZmlsbD0iI0VGRUZGRiIgc3R5bGU9InN0cm9rZTojMTgxODE4O3N0cm9rZS13aWR0aDowLjU7Ii8+PGltYWdlIGhlaWdodD0iMTYiIHdpZHRoPSIxNiIgeD0iNjgwIiB4bGluazpocmVmPSJkYXRhOmltYWdlL3BuZztiYXNlNjQsaVZCT1J3MEtHZ29BQUFBTlNVaEVVZ0FBQUJBQUFBQVFDQVlBQUFBZjgvOWhBQUFBTGtsRVFWUjRYbU5nR0piZ0g0a1lCZnc3YytiL2YySXhSUVpRcEpsaUF5alNUTEVCRkduR2FRQ0plQlNnQVFEbVVTOGdZc3JMc0FBQUFBQkpSVTVFcmtKZ2dnPT0iIHk9IjIzMjMiLz48dGV4dCBmaWxsPSIjMDAwMDAwIiBmb250LWZhbWlseT0ic2Fucy1zZXJpZiIgZm9udC1zaXplPSIxOCIgZm9udC13ZWlnaHQ9ImJvbGQiIGxlbmd0aEFkanVzdD0ic3BhY2luZyIgdGV4dExlbmd0aD0iNjUiIHg9IjYxNyIgeT0iMjM1NC43MDgiPlNETEMyPC90ZXh0Pjx0ZXh0IGZpbGw9IiMwMDAwMDAiIGZvbnQtZmFtaWx5PSJzYW5zLXNlcmlmIiBmb250LXNpemU9IjE0IiBsZW5ndGhBZGp1c3Q9InNwYWNpbmciIHRleHRMZW5ndGg9IjUiIHg9IjY0NyIgeT0iMjM3MS45NDgyIj4tPC90ZXh0Pjx0ZXh0IGZpbGw9IiMwMDAwMDAiIGZvbnQtZmFtaWx5PSJzYW5zLXNlcmlmIiBmb250LXNpemU9IjE0IiBsZW5ndGhBZGp1c3Q9InNwYWNpbmciIHRleHRMZW5ndGg9Ijg5IiB4PSI2MDUiIHk9IjIzODguMjQ1MSI+RGVwZW5kZW5jeTwvdGV4dD48dGV4dCBmaWxsPSIjMDAwMDAwIiBmb250LWZhbWlseT0ic2Fucy1zZXJpZiIgZm9udC1zaXplPSIxNCIgbGVuZ3RoQWRqdXN0PSJzcGFjaW5nIiB0ZXh0TGVuZ3RoPSI5MSIgeD0iNjA0IiB5PSIyNDA0LjU0MiI+TWFuYWdlbWVudDwvdGV4dD48L2c+PCEtLWVudGl0eSBTRExDM1RlY2huaWNhbHN5c3RlbWRvY3VtZW50YXRpb24tLT48ZyBpZD0iZWxlbV9TRExDM1RlY2huaWNhbHN5c3RlbWRvY3VtZW50YXRpb24iPjxwYXRoIGQ9Ik04MDguNSwyMDk0IEw5MDkuNSwyMDk0IEw5MjEuNSwyMTA2IEw5MjEuNSwyMjAzLjE0MDYgTDkwOS41LDIyMTUuMTQwNiBMODA4LjUsMjIxNS4xNDA2IEw3OTYuNSwyMjAzLjE0MDYgTDc5Ni41LDIxMDYgTDgwOC41LDIwOTQgIiBmaWxsPSIjRUZFRkZGIiBzdHlsZT0ic3Ryb2tlOiMxODE4MTg7c3Ryb2tlLXdpZHRoOjAuNTsiLz48aW1hZ2UgaGVpZ2h0PSIxNiIgd2lkdGg9IjE2IiB4PSI4OTYuNSIgeGxpbms6aHJlZj0iZGF0YTppbWFnZS9wbmc7YmFzZTY0LGlWQk9SdzBLR2dvQUFBQU5TVWhFVWdBQUFCQUFBQUFRQ0FZQUFBQWY4LzloQUFBQUxrbEVRVlI0WG1OZ0dKYmdINGtZQmZ3N2MrYi9mMkl4UlFaUXBKbGlBeWpTVExFQkZHbkdhUUNKZUJTZ0FRRG1VUzhnWXNyTHNBQUFBQUJKUlU1RXJrSmdnZz09IiB5PSIyMTA0Ii8+PHRleHQgZmlsbD0iIzAwMDAwMCIgZm9udC1mYW1pbHk9InNhbnMtc2VyaWYiIGZvbnQtc2l6ZT0iMTgiIGZvbnQtd2VpZ2h0PSJib2xkIiBsZW5ndGhBZGp1c3Q9InNwYWNpbmciIHRleHRMZW5ndGg9IjY1IiB4PSI4MjYuNSIgeT0iMjEzNS43MDgiPlNETEMzPC90ZXh0Pjx0ZXh0IGZpbGw9IiMwMDAwMDAiIGZvbnQtZmFtaWx5PSJzYW5zLXNlcmlmIiBmb250LXNpemU9IjE0IiBsZW5ndGhBZGp1c3Q9InNwYWNpbmciIHRleHRMZW5ndGg9IjUiIHg9Ijg1Ni41IiB5PSIyMTUyLjk0ODIiPi08L3RleHQ+PHRleHQgZmlsbD0iIzAwMDAwMCIgZm9udC1mYW1pbHk9InNhbnMtc2VyaWYiIGZvbnQtc2l6ZT0iMTQiIGxlbmd0aEFkanVzdD0ic3BhY2luZyIgdGV4dExlbmd0aD0iNjYiIHg9IjgyNiIgeT0iMjE2OS4yNDUxIj5UZWNobmljYWw8L3RleHQ+PHRleHQgZmlsbD0iIzAwMDAwMCIgZm9udC1mYW1pbHk9InNhbnMtc2VyaWYiIGZvbnQtc2l6ZT0iMTQiIGxlbmd0aEFkanVzdD0ic3BhY2luZyIgdGV4dExlbmd0aD0iNTAiIHg9IjgzNCIgeT0iMjE4NS41NDIiPnN5c3RlbTwvdGV4dD48dGV4dCBmaWxsPSIjMDAwMDAwIiBmb250LWZhbWlseT0ic2Fucy1zZXJpZiIgZm9udC1zaXplPSIxNCIgbGVuZ3RoQWRqdXN0PSJzcGFjaW5nIiB0ZXh0TGVuZ3RoPSIxMDUiIHg9IjgwNi41IiB5PSIyMjAxLjgzODkiPmRvY3VtZW50YXRpb248L3RleHQ+PC9nPjwhLS1lbnRpdHkgVUkxU2NyZWVucmVzb2x1dGlvbnNhbmRzaXplcy0tPjxnIGlkPSJlbGVtX1VJMVNjcmVlbnJlc29sdXRpb25zYW5kc2l6ZXMiPjxwYXRoIGQ9Ik0yMSwxODI1IEw5NCwxODI1IEwxMDYsMTgzNyBMMTA2LDE5NTAuNDM3NSBMOTQsMTk2Mi40Mzc1IEwyMSwxOTYyLjQzNzUgTDksMTk1MC40Mzc1IEw5LDE4MzcgTDIxLDE4MjUgIiBmaWxsPSIjRUZFRkZGIiBzdHlsZT0ic3Ryb2tlOiMxODE4MTg7c3Ryb2tlLXdpZHRoOjAuNTsiLz48aW1hZ2UgaGVpZ2h0PSIxNiIgd2lkdGg9IjE2IiB4PSI4MSIgeGxpbms6aHJlZj0iZGF0YTppbWFnZS9wbmc7YmFzZTY0LGlWQk9SdzBLR2dvQUFBQU5TVWhFVWdBQUFCQUFBQUFRQ0FZQUFBQWY4LzloQUFBQUxrbEVRVlI0WG1OZ0dKYmdINGtZQmZ3N2MrYi9mMkl4UlFaUXBKbGlBeWpTVExFQkZHbkdhUUNKZUJTZ0FRRG1VUzhnWXNyTHNBQUFBQUJKUlU1RXJrSmdnZz09IiB5PSIxODM1Ii8+PHRleHQgZmlsbD0iIzAwMDAwMCIgZm9udC1mYW1pbHk9InNhbnMtc2VyaWYiIGZvbnQtc2l6ZT0iMTgiIGZvbnQtd2VpZ2h0PSJib2xkIiBsZW5ndGhBZGp1c3Q9InNwYWNpbmciIHRleHRMZW5ndGg9IjM2IiB4PSIzOS41IiB5PSIxODY2LjcwOCI+VUkxPC90ZXh0Pjx0ZXh0IGZpbGw9IiMwMDAwMDAiIGZvbnQtZmFtaWx5PSJzYW5zLXNlcmlmIiBmb250LXNpemU9IjE0IiBsZW5ndGhBZGp1c3Q9InNwYWNpbmciIHRleHRMZW5ndGg9IjUiIHg9IjU1IiB5PSIxODgzLjk0ODIiPi08L3RleHQ+PHRleHQgZmlsbD0iIzAwMDAwMCIgZm9udC1mYW1pbHk9InNhbnMtc2VyaWYiIGZvbnQtc2l6ZT0iMTQiIGxlbmd0aEFkanVzdD0ic3BhY2luZyIgdGV4dExlbmd0aD0iNDkiIHg9IjMzIiB5PSIxOTAwLjI0NTEiPlNjcmVlbjwvdGV4dD48dGV4dCBmaWxsPSIjMDAwMDAwIiBmb250LWZhbWlseT0ic2Fucy1zZXJpZiIgZm9udC1zaXplPSIxNCIgbGVuZ3RoQWRqdXN0PSJzcGFjaW5nIiB0ZXh0TGVuZ3RoPSI3NyIgeD0iMTkiIHk9IjE5MTYuNTQyIj5yZXNvbHV0aW9uczwvdGV4dD48dGV4dCBmaWxsPSIjMDAwMDAwIiBmb250LWZhbWlseT0ic2Fucy1zZXJpZiIgZm9udC1zaXplPSIxNCIgbGVuZ3RoQWRqdXN0PSJzcGFjaW5nIiB0ZXh0TGVuZ3RoPSIyNiIgeD0iNDQuNSIgeT0iMTkzMi44Mzg5Ij5hbmQ8L3RleHQ+PHRleHQgZmlsbD0iIzAwMDAwMCIgZm9udC1mYW1pbHk9InNhbnMtc2VyaWYiIGZvbnQtc2l6ZT0iMTQiIGxlbmd0aEFkanVzdD0ic3BhY2luZyIgdGV4dExlbmd0aD0iMzYiIHg9IjM5LjUiIHk9IjE5NDkuMTM1NyI+c2l6ZXM8L3RleHQ+PC9nPjwhLS1lbnRpdHkgVUkyUGxhdGZvcm1pbmRlcGVuZGVuY2UtLT48ZyBpZD0iZWxlbV9VSTJQbGF0Zm9ybWluZGVwZW5kZW5jZSI+PHBhdGggZD0iTTEyMjMsMTIwOCBMMTMyMCwxMjA4IEwxMzMyLDEyMjAgTDEzMzIsMTMwMC44NDM4IEwxMzIwLDEzMTIuODQzOCBMMTIyMywxMzEyLjg0MzggTDEyMTEsMTMwMC44NDM4IEwxMjExLDEyMjAgTDEyMjMsMTIwOCAiIGZpbGw9IiNFRkVGRkYiIHN0eWxlPSJzdHJva2U6IzE4MTgxODtzdHJva2Utd2lkdGg6MC41OyIvPjxpbWFnZSBoZWlnaHQ9IjE2IiB3aWR0aD0iMTYiIHg9IjEzMDciIHhsaW5rOmhyZWY9ImRhdGE6aW1hZ2UvcG5nO2Jhc2U2NCxpVkJPUncwS0dnb0FBQUFOU1VoRVVnQUFBQkFBQUFBUUNBWUFBQUFmOC85aEFBQUFMa2xFUVZSNFhtTmdHSmJnSDRrWUJmdzdjK2IvZjJJeFJRWlFwSmxpQXlqU1RMRUJGR25HYVFDSmVCU2dBUURtVVM4Z1lzckxzQUFBQUFCSlJVNUVya0pnZ2c9PSIgeT0iMTIxOCIvPjx0ZXh0IGZpbGw9IiMwMDAwMDAiIGZvbnQtZmFtaWx5PSJzYW5zLXNlcmlmIiBmb250LXNpemU9IjE4IiBmb250LXdlaWdodD0iYm9sZCIgbGVuZ3RoQWRqdXN0PSJzcGFjaW5nIiB0ZXh0TGVuZ3RoPSIzNiIgeD0iMTI1My41IiB5PSIxMjQ5LjcwOCI+VUkyPC90ZXh0Pjx0ZXh0IGZpbGw9IiMwMDAwMDAiIGZvbnQtZmFtaWx5PSJzYW5zLXNlcmlmIiBmb250LXNpemU9IjE0IiBsZW5ndGhBZGp1c3Q9InNwYWNpbmciIHRleHRMZW5ndGg9IjUiIHg9IjEyNjkiIHk9IjEyNjYuOTQ4MiI+LTwvdGV4dD48dGV4dCBmaWxsPSIjMDAwMDAwIiBmb250LWZhbWlseT0ic2Fucy1zZXJpZiIgZm9udC1zaXplPSIxNCIgbGVuZ3RoQWRqdXN0PSJzcGFjaW5nIiB0ZXh0TGVuZ3RoPSI1NiIgeD0iMTI0My41IiB5PSIxMjgzLjI0NTEiPlBsYXRmb3JtPC90ZXh0Pjx0ZXh0IGZpbGw9IiMwMDAwMDAiIGZvbnQtZmFtaWx5PSJzYW5zLXNlcmlmIiBmb250LXNpemU9IjE0IiBsZW5ndGhBZGp1c3Q9InNwYWNpbmciIHRleHRMZW5ndGg9IjEwMSIgeD0iMTIyMSIgeT0iMTI5OS41NDIiPmluZGVwZW5kZW5jZTwvdGV4dD48L2c+PCEtLWVudGl0eSBCQUNLMVBsYXRmb3JtU3VwcG9ydC0tPjxnIGlkPSJlbGVtX0JBQ0sxUGxhdGZvcm1TdXBwb3J0Ij48cGF0aCBkPSJNMTIzOS41LDEzNDggTDEzMDMuNSwxMzQ4IEwxMzE1LjUsMTM2MCBMMTMxNS41LDE0NDAuODQzOCBMMTMwMy41LDE0NTIuODQzOCBMMTIzOS41LDE0NTIuODQzOCBMMTIyNy41LDE0NDAuODQzOCBMMTIyNy41LDEzNjAgTDEyMzkuNSwxMzQ4ICIgZmlsbD0iI0VGRUZGRiIgc3R5bGU9InN0cm9rZTojMTgxODE4O3N0cm9rZS13aWR0aDowLjU7Ii8+PGltYWdlIGhlaWdodD0iMTYiIHdpZHRoPSIxNiIgeD0iMTI5MC41IiB4bGluazpocmVmPSJkYXRhOmltYWdlL3BuZztiYXNlNjQsaVZCT1J3MEtHZ29BQUFBTlNVaEVVZ0FBQUJBQUFBQVFDQVlBQUFBZjgvOWhBQUFBTGtsRVFWUjRYbU5nR0piZ0g0a1lCZnc3YytiL2YySXhSUVpRcEpsaUF5alNUTEVCRkduR2FRQ0plQlNnQVFEbVVTOGdZc3JMc0FBQUFBQkpSVTVFcmtKZ2dnPT0iIHk9IjEzNTgiLz48dGV4dCBmaWxsPSIjMDAwMDAwIiBmb250LWZhbWlseT0ic2Fucy1zZXJpZiIgZm9udC1zaXplPSIxOCIgZm9udC13ZWlnaHQ9ImJvbGQiIGxlbmd0aEFkanVzdD0ic3BhY2luZyIgdGV4dExlbmd0aD0iNjgiIHg9IjEyMzcuNSIgeT0iMTM4OS43MDgiPkJBQ0sxPC90ZXh0Pjx0ZXh0IGZpbGw9IiMwMDAwMDAiIGZvbnQtZmFtaWx5PSJzYW5zLXNlcmlmIiBmb250LXNpemU9IjE0IiBsZW5ndGhBZGp1c3Q9InNwYWNpbmciIHRleHRMZW5ndGg9IjUiIHg9IjEyNjkiIHk9IjE0MDYuOTQ4MiI+LTwvdGV4dD48dGV4dCBmaWxsPSIjMDAwMDAwIiBmb250LWZhbWlseT0ic2Fucy1zZXJpZiIgZm9udC1zaXplPSIxNCIgbGVuZ3RoQWRqdXN0PSJzcGFjaW5nIiB0ZXh0TGVuZ3RoPSI1NiIgeD0iMTI0My41IiB5PSIxNDIzLjI0NTEiPlBsYXRmb3JtPC90ZXh0Pjx0ZXh0IGZpbGw9IiMwMDAwMDAiIGZvbnQtZmFtaWx5PSJzYW5zLXNlcmlmIiBmb250LXNpemU9IjE0IiBsZW5ndGhBZGp1c3Q9InNwYWNpbmciIHRleHRMZW5ndGg9IjU1IiB4PSIxMjQ0IiB5PSIxNDM5LjU0MiI+U3VwcG9ydDwvdGV4dD48L2c+PCEtLWxpbmsgQVJDSDExMlRocmVhdG1vZGVsaW5nIHRvIEFSQ0gxMTNGZWF0dXJlc2FuZFVzZXJzdG9yaWVzLS0+PGcgaWQ9ImxpbmtfQVJDSDExMlRocmVhdG1vZGVsaW5nX0FSQ0gxMTNGZWF0dXJlc2FuZFVzZXJzdG9yaWVzIj48cGF0aCBkPSJNMzEyLjI3LDE2MjQuNSBDMzMzLjM1LDE2MjQuNSAzNTAuNiwxNjI0LjUgMzcxLjY4LDE2MjQuNSAiIGZpbGw9Im5vbmUiIGlkPSJBUkNIMTEyVGhyZWF0bW9kZWxpbmctdG8tQVJDSDExM0ZlYXR1cmVzYW5kVXNlcnN0b3JpZXMiIHN0eWxlPSJzdHJva2U6IzAwMDAwMDtzdHJva2Utd2lkdGg6MS4wO3N0cm9rZS1kYXNoYXJyYXk6Ny4wLDcuMDsiLz48cG9seWdvbiBmaWxsPSIjMDAwMDAwIiBwb2ludHM9IjM3Ny42OCwxNjI0LjUsMzY4LjY4LDE2MjAuNSwzNzIuNjgsMTYyNC41LDM2OC42OCwxNjI4LjUsMzc3LjY4LDE2MjQuNSIgc3R5bGU9InN0cm9rZTojMDAwMDAwO3N0cm9rZS13aWR0aDoxLjA7Ii8+PHRleHQgZmlsbD0iIzAwMDAwMCIgZm9udC1mYW1pbHk9InNhbnMtc2VyaWYiIGZvbnQtc2l6ZT0iMTIiIGxlbmd0aEFkanVzdD0ic3BhY2luZyIgdGV4dExlbmd0aD0iNCIgeD0iMzQzIiB5PSIxNjIxLjYzODciPiYjMTYwOzwvdGV4dD48L2c+PCEtLWxpbmsgU0RMQzREb2N1bWVudGhpZ2hsZXZlbGFyY2hpdGVjdHVyZWFuZHRocmVhdG1vZGVsIHRvIEFSQ0gxMTJUaHJlYXRtb2RlbGluZy0tPjxnIGlkPSJsaW5rX1NETEM0RG9jdW1lbnRoaWdobGV2ZWxhcmNoaXRlY3R1cmVhbmR0aHJlYXRtb2RlbF9BUkNIMTEyVGhyZWF0bW9kZWxpbmciPjxwYXRoIGQ9Ik0xMDEuMzksMTk5Ny40MyBDMTA0LjAxLDE5OTEuMzggMTA2LjU3LDE5ODUuMzcgMTA5LDE5NzkuNSBDMTU0LjgsMTg2OS4xMiAyMDAuNzUxMiwxNzQyLjQ2MzcgMjI0Ljc5MTIsMTY3NC44MDM3ICIgZmlsbD0ibm9uZSIgaWQ9IlNETEM0RG9jdW1lbnRoaWdobGV2ZWxhcmNoaXRlY3R1cmVhbmR0aHJlYXRtb2RlbC10by1BUkNIMTEyVGhyZWF0bW9kZWxpbmciIHN0eWxlPSJzdHJva2U6IzAwMDAwMDtzdHJva2Utd2lkdGg6MS4wO3N0cm9rZS1kYXNoYXJyYXk6Ny4wLDcuMDsiLz48cG9seWdvbiBmaWxsPSIjMDAwMDAwIiBwb2ludHM9IjIyNi44LDE2NjkuMTUsMjIwLjAxNzYsMTY3Ni4yOTE0LDIyNS4xMjYsMTY3My44NjE0LDIyNy41NTU5LDE2NzguOTY5OCwyMjYuOCwxNjY5LjE1IiBzdHlsZT0ic3Ryb2tlOiMwMDAwMDA7c3Ryb2tlLXdpZHRoOjEuMDsiLz48dGV4dCBmaWxsPSIjMDAwMDAwIiBmb250LWZhbWlseT0ic2Fucy1zZXJpZiIgZm9udC1zaXplPSIxMiIgbGVuZ3RoQWRqdXN0PSJzcGFjaW5nIiB0ZXh0TGVuZ3RoPSI0IiB4PSIxNDAiIHk9IjE4ODkuNjM4NyI+JiMxNjA7PC90ZXh0PjwvZz48IS0tbGluayBBUkNIMTEzRmVhdHVyZXNhbmRVc2Vyc3RvcmllcyB0byBBUkNIMTE2RGVzaWduYW5kQXJjaGl0ZWN0U2VjdXJpdHlJbi0tPjxnIGlkPSJsaW5rX0FSQ0gxMTNGZWF0dXJlc2FuZFVzZXJzdG9yaWVzX0FSQ0gxMTZEZXNpZ25hbmRBcmNoaXRlY3RTZWN1cml0eUluIj48cGF0aCBkPSJNNTE1LjI3LDE1ODAuMzMgQzUzNi4zNSwxNTY2LjU5IDU1NC41NzM1LDE1NTQuNzE2MyA1NzUuNjUzNSwxNTQwLjk3NjMgIiBmaWxsPSJub25lIiBpZD0iQVJDSDExM0ZlYXR1cmVzYW5kVXNlcnN0b3JpZXMtdG8tQVJDSDExNkRlc2lnbmFuZEFyY2hpdGVjdFNlY3VyaXR5SW4iIHN0eWxlPSJzdHJva2U6IzAwMDAwMDtzdHJva2Utd2lkdGg6MS4wO3N0cm9rZS1kYXNoYXJyYXk6Ny4wLDcuMDsiLz48cG9seWdvbiBmaWxsPSIjMDAwMDAwIiBwb2ludHM9IjU4MC42OCwxNTM3LjcsNTcwLjk1NiwxNTM5LjI2MzQsNTc2LjQ5MTIsMTU0MC40MzAyLDU3NS4zMjQ0LDE1NDUuOTY1NSw1ODAuNjgsMTUzNy43IiBzdHlsZT0ic3Ryb2tlOiMwMDAwMDA7c3Ryb2tlLXdpZHRoOjEuMDsiLz48dGV4dCBmaWxsPSIjMDAwMDAwIiBmb250LWZhbWlseT0ic2Fucy1zZXJpZiIgZm9udC1zaXplPSIxMiIgbGVuZ3RoQWRqdXN0PSJzcGFjaW5nIiB0ZXh0TGVuZ3RoPSI0IiB4PSI1NDYiIHk9IjE1NTUuNjM4NyI+JiMxNjA7PC90ZXh0PjwvZz48IS0tbGluayBBUkNIMTEyVGhyZWF0bW9kZWxpbmcgdG8gQVJDSDExNkRlc2lnbmFuZEFyY2hpdGVjdFNlY3VyaXR5SW4tLT48ZyBpZD0ibGlua19BUkNIMTEyVGhyZWF0bW9kZWxpbmdfQVJDSDExNkRlc2lnbmFuZEFyY2hpdGVjdFNlY3VyaXR5SW4iPjxwYXRoIGQ9Ik0zMTAuOTEsMTU3OS44MiBDMzMxLjY3LDE1NjcuNDggMzU1LjE1LDE1NTUuMTMgMzc4LDE1NDYuNSBDNDQ0LjU5LDE1MjEuMzUgNTE5LjE2ODgsMTUwOC4yOTM4IDU3NC45NTg4LDE1MDEuMTMzOCAiIGZpbGw9Im5vbmUiIGlkPSJBUkNIMTEyVGhyZWF0bW9kZWxpbmctdG8tQVJDSDExNkRlc2lnbmFuZEFyY2hpdGVjdFNlY3VyaXR5SW4iIHN0eWxlPSJzdHJva2U6IzAwMDAwMDtzdHJva2Utd2lkdGg6MS4wO3N0cm9rZS1kYXNoYXJyYXk6Ny4wLDcuMDsiLz48cG9seWdvbiBmaWxsPSIjMDAwMDAwIiBwb2ludHM9IjU4MC45MSwxNTAwLjM3LDU3MS40NzQsMTQ5Ny41NDgyLDU3NS45NTA3LDE1MDEuMDA2NSw1NzIuNDkyNCwxNTA1LjQ4MzEsNTgwLjkxLDE1MDAuMzciIHN0eWxlPSJzdHJva2U6IzAwMDAwMDtzdHJva2Utd2lkdGg6MS4wOyIvPjx0ZXh0IGZpbGw9IiMwMDAwMDAiIGZvbnQtZmFtaWx5PSJzYW5zLXNlcmlmIiBmb250LXNpemU9IjEyIiBsZW5ndGhBZGp1c3Q9InNwYWNpbmciIHRleHRMZW5ndGg9IjQiIHg9IjQ0NC41IiB5PSIxNTA3LjYzODciPiYjMTYwOzwvdGV4dD48L2c+PCEtLWxpbmsgQVJDSDExMVNETEMgdG8gQVJDSDExNkRlc2lnbmFuZEFyY2hpdGVjdFNlY3VyaXR5SW4tLT48ZyBpZD0ibGlua19BUkNIMTExU0RMQ19BUkNIMTE2RGVzaWduYW5kQXJjaGl0ZWN0U2VjdXJpdHlJbiI+PHBhdGggZD0iTTQ5NC4zMSwyMTg5LjIzIEM1MDIuMjMsMjE4MS4xOSA1MDkuNjIsMjE3Mi4xNiA1MTUsMjE2Mi41IEM2MjUuMjYsMTk2NC42NCA2NDUuMTQ0NywxNjk1LjAyODIgNjQ4LjIxNDcsMTU2OC4yNjgyICIgZmlsbD0ibm9uZSIgaWQ9IkFSQ0gxMTFTRExDLXRvLUFSQ0gxMTZEZXNpZ25hbmRBcmNoaXRlY3RTZWN1cml0eUluIiBzdHlsZT0ic3Ryb2tlOiMwMDAwMDA7c3Ryb2tlLXdpZHRoOjEuMDtzdHJva2UtZGFzaGFycmF5OjcuMCw3LjA7Ii8+PHBvbHlnb24gZmlsbD0iIzAwMDAwMCIgcG9pbnRzPSI2NDguMzYsMTU2Mi4yNyw2NDQuMTQzMywxNTcxLjE3MDUsNjQ4LjIzODksMTU2Ny4yNjg1LDY1Mi4xNDA5LDE1NzEuMzY0Miw2NDguMzYsMTU2Mi4yNyIgc3R5bGU9InN0cm9rZTojMDAwMDAwO3N0cm9rZS13aWR0aDoxLjA7Ii8+PHRleHQgZmlsbD0iIzAwMDAwMCIgZm9udC1mYW1pbHk9InNhbnMtc2VyaWYiIGZvbnQtc2l6ZT0iMTIiIGxlbmd0aEFkanVzdD0ic3BhY2luZyIgdGV4dExlbmd0aD0iNCIgeD0iNTQ2IiB5PSIyMDkzLjYzODciPiYjMTYwOzwvdGV4dD48L2c+PCEtLXJldmVyc2UgbGluayBBUkNIMTE2RGVzaWduYW5kQXJjaGl0ZWN0U2VjdXJpdHlJbiB0byBBUkNIMTIyQ29tcG9uZW50Q29tbXVuaWNhdGlvbi0tPjxnIGlkPSJsaW5rX0FSQ0gxMTZEZXNpZ25hbmRBcmNoaXRlY3RTZWN1cml0eUluX0FSQ0gxMjJDb21wb25lbnRDb21tdW5pY2F0aW9uIj48cGF0aCBkPSJNNjUyLjk0OSwxNDEyLjgwOCBDNjU4LjczOSwxMjU0LjYzOCA2NzkuMjMsODgyLjE1IDc0OCw3NzUuNSBDNzU4LjM4LDc1OS40IDc3NCw3NDYuMzggNzkwLjIzLDczNi4xOCAiIGZpbGw9Im5vbmUiIGlkPSJBUkNIMTE2RGVzaWduYW5kQXJjaGl0ZWN0U2VjdXJpdHlJbi1iYWNrdG8tQVJDSDEyMkNvbXBvbmVudENvbW11bmljYXRpb24iIHN0eWxlPSJzdHJva2U6IzAwMDAwMDtzdHJva2Utd2lkdGg6MS4wOyIvPjxwb2x5Z29uIGZpbGw9Im5vbmUiIHBvaW50cz0iNjUyLjUxLDE0MjQuOCw2NTYuNzI2OCwxNDE4Ljk1MDMsNjUyLjk0OSwxNDEyLjgwOCw2NDguNzMyMiwxNDE4LjY1NzcsNjUyLjUxLDE0MjQuOCIgc3R5bGU9InN0cm9rZTojMDAwMDAwO3N0cm9rZS13aWR0aDoxLjA7Ii8+PHRleHQgZmlsbD0iIzAwMDAwMCIgZm9udC1mYW1pbHk9InNhbnMtc2VyaWYiIGZvbnQtc2l6ZT0iMTIiIGxlbmd0aEFkanVzdD0ic3BhY2luZyIgdGV4dExlbmd0aD0iNCIgeD0iNzQ5IiB5PSI3NjcuNjM4NyI+JiMxNjA7PC90ZXh0PjwvZz48IS0tcmV2ZXJzZSBsaW5rIEFSQ0gxMTZEZXNpZ25hbmRBcmNoaXRlY3RTZWN1cml0eUluIHRvIEFSQ0gxMjRBdXRoZW50aWNhdGlvbnBhdGhzLS0+PGcgaWQ9ImxpbmtfQVJDSDExNkRlc2lnbmFuZEFyY2hpdGVjdFNlY3VyaXR5SW5fQVJDSDEyNEF1dGhlbnRpY2F0aW9ucGF0aHMiPjxwYXRoIGQ9Ik03MjguMDQzNSwxNDM4LjE5NyBDNzQ4LjY1MzUsMTQyNC40OTcgNzYxLjc2LDE0MTYuODggNzg0LDE0MDUuNSBDODQ3LjQ5LDEzNzMuMDEgODcxLjkzLDEzODMuNjEgOTM0LDEzNDguNSBDOTYzLjc3LDEzMzEuNjYgOTkzLjk3LDEzMDguNTIgMTAxOC4xLDEyODguMjUgIiBmaWxsPSJub25lIiBpZD0iQVJDSDExNkRlc2lnbmFuZEFyY2hpdGVjdFNlY3VyaXR5SW4tYmFja3RvLUFSQ0gxMjRBdXRoZW50aWNhdGlvbnBhdGhzIiBzdHlsZT0ic3Ryb2tlOiMwMDAwMDA7c3Ryb2tlLXdpZHRoOjEuMDsiLz48cG9seWdvbiBmaWxsPSJub25lIiBwb2ludHM9IjcxOC4wNSwxNDQ0Ljg0LDcyNS4yNjExLDE0NDQuODQ5Nyw3MjguMDQzNSwxNDM4LjE5Nyw3MjAuODMyNSwxNDM4LjE4NzMsNzE4LjA1LDE0NDQuODQiIHN0eWxlPSJzdHJva2U6IzAwMDAwMDtzdHJva2Utd2lkdGg6MS4wOyIvPjx0ZXh0IGZpbGw9IiMwMDAwMDAiIGZvbnQtZmFtaWx5PSJzYW5zLXNlcmlmIiBmb250LXNpemU9IjEyIiBsZW5ndGhBZGp1c3Q9InNwYWNpbmciIHRleHRMZW5ndGg9IjQiIHg9Ijg1NyIgeT0iMTM0NS42Mzg3Ij4mIzE2MDs8L3RleHQ+PC9nPjwhLS1yZXZlcnNlIGxpbmsgQVJDSDExNkRlc2lnbmFuZEFyY2hpdGVjdFNlY3VyaXR5SW4gdG8gQVJDSDEyM0F1dGhlbnRpY2F0aW9uTWVjaGFuaXNtLS0+PGcgaWQ9ImxpbmtfQVJDSDExNkRlc2lnbmFuZEFyY2hpdGVjdFNlY3VyaXR5SW5fQVJDSDEyM0F1dGhlbnRpY2F0aW9uTWVjaGFuaXNtIj48cGF0aCBkPSJNNjU2LjcxMDYsMTQxMi44NDg1IEM2NzIuMjkwNiwxMjE4Ljg0ODUgNzIwLjIsNjg5Ljc5IDc4NCw2NDQuNSBDODQ5LjE4LDU5OC4yNCAxMDg1LjM0LDY1Mi41MSAxMTM3LDcxMy41IEMxMjM3LjMzLDgzMS45NiAxMTMyLjQ3LDkxOC4yMSAxMjAzLDEwNTYuNSBDMTIwNy45LDEwNjYuMTIgMTIxNC40OCwxMDc1LjM2IDEyMjEuNjEsMTA4My44MyAiIGZpbGw9Im5vbmUiIGlkPSJBUkNIMTE2RGVzaWduYW5kQXJjaGl0ZWN0U2VjdXJpdHlJbi1iYWNrdG8tQVJDSDEyM0F1dGhlbnRpY2F0aW9uTWVjaGFuaXNtIiBzdHlsZT0ic3Ryb2tlOiMwMDAwMDA7c3Ryb2tlLXdpZHRoOjEuMDsiLz48cG9seWdvbiBmaWxsPSJub25lIiBwb2ludHM9IjY1NS43NSwxNDI0LjgxLDY2MC4yMTc1LDE0MTkuMTQ5NSw2NTYuNzEwNiwxNDEyLjg0ODUsNjUyLjI0MzEsMTQxOC41MDksNjU1Ljc1LDE0MjQuODEiIHN0eWxlPSJzdHJva2U6IzAwMDAwMDtzdHJva2Utd2lkdGg6MS4wOyIvPjx0ZXh0IGZpbGw9IiMwMDAwMDAiIGZvbnQtZmFtaWx5PSJzYW5zLXNlcmlmIiBmb250LXNpemU9IjEyIiBsZW5ndGhBZGp1c3Q9InNwYWNpbmciIHRleHRMZW5ndGg9IjQiIHg9Ijk2NSIgeT0iNjM2LjYzODciPiYjMTYwOzwvdGV4dD48L2c+PCEtLWxpbmsgQVJDSDEyNEF1dGhlbnRpY2F0aW9ucGF0aHMgdG8gQVJDSDEyM0F1dGhlbnRpY2F0aW9uTWVjaGFuaXNtLS0+PGcgaWQ9ImxpbmtfQVJDSDEyNEF1dGhlbnRpY2F0aW9ucGF0aHNfQVJDSDEyM0F1dGhlbnRpY2F0aW9uTWVjaGFuaXNtIj48cGF0aCBkPSJNMTEzNy4yNywxMjA0LjczIEMxMTU4LjM1LDExOTIuNjYgMTE4MS42LDExNzkuMzcgMTIwMi42OCwxMTY3LjMgIiBmaWxsPSJub25lIiBpZD0iQVJDSDEyNEF1dGhlbnRpY2F0aW9ucGF0aHMtQVJDSDEyM0F1dGhlbnRpY2F0aW9uTWVjaGFuaXNtIiBzdHlsZT0ic3Ryb2tlOiMwMDAwMDA7c3Ryb2tlLXdpZHRoOjIuMDsiLz48dGV4dCBmaWxsPSIjMDAwMDAwIiBmb250LWZhbWlseT0ic2Fucy1zZXJpZiIgZm9udC1zaXplPSIxMiIgbGVuZ3RoQWRqdXN0PSJzcGFjaW5nIiB0ZXh0TGVuZ3RoPSI0IiB4PSIxMTY4IiB5PSIxMTgyLjYzODciPiYjMTYwOzwvdGV4dD48L2c+PCEtLXJldmVyc2UgbGluayBBUkNIMTE2RGVzaWduYW5kQXJjaGl0ZWN0U2VjdXJpdHlJbiB0byBBUkNIMTQxQWNjZXNzRW5mb3JjZW1lbnRQb2ludHMtLT48ZyBpZD0ibGlua19BUkNIMTE2RGVzaWduYW5kQXJjaGl0ZWN0U2VjdXJpdHlJbl9BUkNIMTQxQWNjZXNzRW5mb3JjZW1lbnRQb2ludHMiPjxwYXRoIGQ9Ik03MjkuNzcxNiwxNDc0LjI5MDQgQzc4Ny4yMjE2LDE0NjAuMzUwNCA4NjAuMiwxNDQyLjYgOTM0LDE0MjQuNSBDOTU1LjQ1LDE0MTkuMjQgOTc4LjgzLDE0MTMuNDcgOTk5Ljk0LDE0MDguMjUgIiBmaWxsPSJub25lIiBpZD0iQVJDSDExNkRlc2lnbmFuZEFyY2hpdGVjdFNlY3VyaXR5SW4tYmFja3RvLUFSQ0gxNDFBY2Nlc3NFbmZvcmNlbWVudFBvaW50cyIgc3R5bGU9InN0cm9rZTojMDAwMDAwO3N0cm9rZS13aWR0aDoxLjA7Ii8+PHBvbHlnb24gZmlsbD0ibm9uZSIgcG9pbnRzPSI3MTguMTEsMTQ3Ny4xMiw3MjQuODg0LDE0NzkuNTkyNCw3MjkuNzcxNiwxNDc0LjI5MDQsNzIyLjk5NzYsMTQ3MS44MTgsNzE4LjExLDE0NzcuMTIiIHN0eWxlPSJzdHJva2U6IzAwMDAwMDtzdHJva2Utd2lkdGg6MS4wOyIvPjx0ZXh0IGZpbGw9IiMwMDAwMDAiIGZvbnQtZmFtaWx5PSJzYW5zLXNlcmlmIiBmb250LXNpemU9IjEyIiBsZW5ndGhBZGp1c3Q9InNwYWNpbmciIHRleHRMZW5ndGg9IjQiIHg9Ijg1NyIgeT0iMTQyMS42Mzg3Ij4mIzE2MDs8L3RleHQ+PC9nPjwhLS1saW5rIEFSQ0gxNDRBY2Nlc3NDb250cm9sTWVjaGFuaXNtIHRvIEFSQ0gxNDFBY2Nlc3NFbmZvcmNlbWVudFBvaW50cy0tPjxnIGlkPSJsaW5rX0FSQ0gxNDRBY2Nlc3NDb250cm9sTWVjaGFuaXNtX0FSQ0gxNDFBY2Nlc3NFbmZvcmNlbWVudFBvaW50cyI+PHBhdGggZD0iTTkyNy42NiwxMzA1LjIzIEM5NTAuODQsMTMxOS41MyA5NzYuNzYsMTMzNS41MyA5OTkuOTQsMTM0OS44MiAiIGZpbGw9Im5vbmUiIGlkPSJBUkNIMTQ0QWNjZXNzQ29udHJvbE1lY2hhbmlzbS1BUkNIMTQxQWNjZXNzRW5mb3JjZW1lbnRQb2ludHMiIHN0eWxlPSJzdHJva2U6IzAwMDAwMDtzdHJva2Utd2lkdGg6Mi4wOyIvPjx0ZXh0IGZpbGw9IiMwMDAwMDAiIGZvbnQtZmFtaWx5PSJzYW5zLXNlcmlmIiBmb250LXNpemU9IjEyIiBsZW5ndGhBZGp1c3Q9InNwYWNpbmciIHRleHRMZW5ndGg9IjQiIHg9Ijk2NSIgeT0iMTMyNy42Mzg3Ij4mIzE2MDs8L3RleHQ+PC9nPjwhLS1yZXZlcnNlIGxpbmsgQVJDSDExNkRlc2lnbmFuZEFyY2hpdGVjdFNlY3VyaXR5SW4gdG8gQVJDSDE0NEFjY2Vzc0NvbnRyb2xNZWNoYW5pc20tLT48ZyBpZD0ibGlua19BUkNIMTE2RGVzaWduYW5kQXJjaGl0ZWN0U2VjdXJpdHlJbl9BUkNIMTQ0QWNjZXNzQ29udHJvbE1lY2hhbmlzbSI+PHBhdGggZD0iTTY5Mi42NTQsMTQxNC4yOTQzIEM3MDkuMTc0LDEzODYuMzk0MyA3MjQuMjYsMTM2NS4zIDc0OCwxMzQwLjUgQzc2MC40OSwxMzI3LjQ1IDc3NS41MSwxMzE1LjI1IDc5MC4zNiwxMzA0LjU3ICIgZmlsbD0ibm9uZSIgaWQ9IkFSQ0gxMTZEZXNpZ25hbmRBcmNoaXRlY3RTZWN1cml0eUluLWJhY2t0by1BUkNIMTQ0QWNjZXNzQ29udHJvbE1lY2hhbmlzbSIgc3R5bGU9InN0cm9rZTojMDAwMDAwO3N0cm9rZS13aWR0aDoxLjA7Ii8+PHBvbHlnb24gZmlsbD0ibm9uZSIgcG9pbnRzPSI2ODYuNTQsMTQyNC42Miw2OTMuMDM4OSwxNDIxLjQ5NTIsNjkyLjY1NCwxNDE0LjI5NDMsNjg2LjE1NTEsMTQxNy40MTkyLDY4Ni41NCwxNDI0LjYyIiBzdHlsZT0ic3Ryb2tlOiMwMDAwMDA7c3Ryb2tlLXdpZHRoOjEuMDsiLz48dGV4dCBmaWxsPSIjMDAwMDAwIiBmb250LWZhbWlseT0ic2Fucy1zZXJpZiIgZm9udC1zaXplPSIxMiIgbGVuZ3RoQWRqdXN0PSJzcGFjaW5nIiB0ZXh0TGVuZ3RoPSI0IiB4PSI3NDkiIHk9IjEzMzEuNjM4NyI+JiMxNjA7PC90ZXh0PjwvZz48IS0tcmV2ZXJzZSBsaW5rIEFSQ0gxMTZEZXNpZ25hbmRBcmNoaXRlY3RTZWN1cml0eUluIHRvIEFSQ0gxNTJTZXJpYWxpemF0aW9uLS0+PGcgaWQ9ImxpbmtfQVJDSDExNkRlc2lnbmFuZEFyY2hpdGVjdFNlY3VyaXR5SW5fQVJDSDE1MlNlcmlhbGl6YXRpb24iPjxwYXRoIGQ9Ik02NjYuNjA1MiwxNTczLjg0NTQgQzY4MC4xMDUyLDE2MjguOTU1NCA3MDIuNzksMTY5NC4wMiA3NDgsMTc0Ny41IEM3NTkuNiwxNzYxLjIyIDc3NC44NywxNzcyLjc3IDc5MC4zMywxNzgyLjE0ICIgZmlsbD0ibm9uZSIgaWQ9IkFSQ0gxMTZEZXNpZ25hbmRBcmNoaXRlY3RTZWN1cml0eUluLWJhY2t0by1BUkNIMTUyU2VyaWFsaXphdGlvbiIgc3R5bGU9InN0cm9rZTojMDAwMDAwO3N0cm9rZS13aWR0aDoxLjA7Ii8+PHBvbHlnb24gZmlsbD0ibm9uZSIgcG9pbnRzPSI2NjMuNzUsMTU2Mi4xOSw2NjEuMjkyNCwxNTY4Ljk2OTQsNjY2LjYwNTIsMTU3My44NDU0LDY2OS4wNjI3LDE1NjcuMDY2LDY2My43NSwxNTYyLjE5IiBzdHlsZT0ic3Ryb2tlOiMwMDAwMDA7c3Ryb2tlLXdpZHRoOjEuMDsiLz48dGV4dCBmaWxsPSIjMDAwMDAwIiBmb250LWZhbWlseT0ic2Fucy1zZXJpZiIgZm9udC1zaXplPSIxMiIgbGVuZ3RoQWRqdXN0PSJzcGFjaW5nIiB0ZXh0TGVuZ3RoPSI0IiB4PSI3NDkiIHk9IjE3NDQuNjM4NyI+JiMxNjA7PC90ZXh0PjwvZz48IS0tcmV2ZXJzZSBsaW5rIEFSQ0gxMTZEZXNpZ25hbmRBcmNoaXRlY3RTZWN1cml0eUluIHRvIEFSQ0gxNTNJbnB1dHZhbGlkYXRpb24tLT48ZyBpZD0ibGlua19BUkNIMTE2RGVzaWduYW5kQXJjaGl0ZWN0U2VjdXJpdHlJbl9BUkNIMTUzSW5wdXR2YWxpZGF0aW9uIj48cGF0aCBkPSJNNjU5LjY0MzQsMTU3NC4yODkyIEM2NzUuMzIzNCwxNzAxLjAyOTIgNzE0LjEzLDE5NTEuMzIgNzg0LDIwMDUuNSBDODQ0Ljg3LDIwNTIuNyA5MzcuMjcsMjA0Mi41NyA5OTkuOSwyMDI3LjU2ICIgZmlsbD0ibm9uZSIgaWQ9IkFSQ0gxMTZEZXNpZ25hbmRBcmNoaXRlY3RTZWN1cml0eUluLWJhY2t0by1BUkNIMTUzSW5wdXR2YWxpZGF0aW9uIiBzdHlsZT0ic3Ryb2tlOiMwMDAwMDA7c3Ryb2tlLXdpZHRoOjEuMDsiLz48cG9seWdvbiBmaWxsPSJub25lIiBwb2ludHM9IjY1OC4xNywxNTYyLjM4LDY1NC45MzcsMTU2OC44MjU3LDY1OS42NDM0LDE1NzQuMjg5Miw2NjIuODc2NCwxNTY3Ljg0MzUsNjU4LjE3LDE1NjIuMzgiIHN0eWxlPSJzdHJva2U6IzAwMDAwMDtzdHJva2Utd2lkdGg6MS4wOyIvPjx0ZXh0IGZpbGw9IiMwMDAwMDAiIGZvbnQtZmFtaWx5PSJzYW5zLXNlcmlmIiBmb250LXNpemU9IjEyIiBsZW5ndGhBZGp1c3Q9InNwYWNpbmciIHRleHRMZW5ndGg9IjQiIHg9Ijg1NyIgeT0iMjAwMi42Mzg3Ij4mIzE2MDs8L3RleHQ+PC9nPjwhLS1saW5rIEFSQ0gxNTJTZXJpYWxpemF0aW9uIHRvIEFSQ0gxNTNJbnB1dHZhbGlkYXRpb24tLT48ZyBpZD0ibGlua19BUkNIMTUyU2VyaWFsaXphdGlvbl9BUkNIMTUzSW5wdXR2YWxpZGF0aW9uIj48cGF0aCBkPSJNOTEzLjc3LDE4NDguNjYgQzkyMC44NywxODU0LjMgOTI3LjgxLDE4NjAuMzIgOTM0LDE4NjYuNSBDOTQ5Ljk4LDE4ODIuNDYgOTQ5LjEyLDE4OTAuNTIgOTY0LDE5MDcuNSBDOTgwLjM5LDE5MjYuMiA5OTkuNzcsMTk0NS40IDEwMTcuMywxOTYxLjg1ICIgZmlsbD0ibm9uZSIgaWQ9IkFSQ0gxNTJTZXJpYWxpemF0aW9uLUFSQ0gxNTNJbnB1dHZhbGlkYXRpb24iIHN0eWxlPSJzdHJva2U6IzAwMDAwMDtzdHJva2Utd2lkdGg6Mi4wOyIvPjx0ZXh0IGZpbGw9IiMwMDAwMDAiIGZvbnQtZmFtaWx5PSJzYW5zLXNlcmlmIiBmb250LXNpemU9IjEyIiBsZW5ndGhBZGp1c3Q9InNwYWNpbmciIHRleHRMZW5ndGg9IjQiIHg9Ijk2NSIgeT0iMTkwNC42Mzg3Ij4mIzE2MDs8L3RleHQ+PC9nPjwhLS1yZXZlcnNlIGxpbmsgQVJDSDExNkRlc2lnbmFuZEFyY2hpdGVjdFNlY3VyaXR5SW4gdG8gQVJDSDE1NE91dHB1dGVuY29kaW5nLS0+PGcgaWQ9ImxpbmtfQVJDSDExNkRlc2lnbmFuZEFyY2hpdGVjdFNlY3VyaXR5SW5fQVJDSDE1NE91dHB1dGVuY29kaW5nIj48cGF0aCBkPSJNNzI0LjI2MTUsMTU3MC41MzYxIEM3NDUuMDgxNSwxNTkwLjU5NjEgNzYwLjI2LDE2MDMuMzggNzg0LDE2MjAuNSBDODUyLjk3LDE2NzAuMjUgOTQwLjM3LDE3MTQuMzEgOTk5Ljc3LDE3NDEuODEgIiBmaWxsPSJub25lIiBpZD0iQVJDSDExNkRlc2lnbmFuZEFyY2hpdGVjdFNlY3VyaXR5SW4tYmFja3RvLUFSQ0gxNTRPdXRwdXRlbmNvZGluZyIgc3R5bGU9InN0cm9rZTojMDAwMDAwO3N0cm9rZS13aWR0aDoxLjA7Ii8+PHBvbHlnb24gZmlsbD0ibm9uZSIgcG9pbnRzPSI3MTUuNjIsMTU2Mi4yMSw3MTcuMTY1NCwxNTY5LjI1MzYsNzI0LjI2MTUsMTU3MC41MzYxLDcyMi43MTYxLDE1NjMuNDkyNSw3MTUuNjIsMTU2Mi4yMSIgc3R5bGU9InN0cm9rZTojMDAwMDAwO3N0cm9rZS13aWR0aDoxLjA7Ii8+PHRleHQgZmlsbD0iIzAwMDAwMCIgZm9udC1mYW1pbHk9InNhbnMtc2VyaWYiIGZvbnQtc2l6ZT0iMTIiIGxlbmd0aEFkanVzdD0ic3BhY2luZyIgdGV4dExlbmd0aD0iNCIgeD0iODU3IiB5PSIxNjE3LjYzODciPiYjMTYwOzwvdGV4dD48L2c+PCEtLWxpbmsgQVJDSDE1MlNlcmlhbGl6YXRpb24gdG8gQVJDSDE1NE91dHB1dGVuY29kaW5nLS0+PGcgaWQ9ImxpbmtfQVJDSDE1MlNlcmlhbGl6YXRpb25fQVJDSDE1NE91dHB1dGVuY29kaW5nIj48cGF0aCBkPSJNOTI3LjY2LDE3OTkuMTMgQzk1MC44NCwxNzk0LjU1IDk3Ni43NiwxNzg5LjQzIDk5OS45NCwxNzg0Ljg1ICIgZmlsbD0ibm9uZSIgaWQ9IkFSQ0gxNTJTZXJpYWxpemF0aW9uLUFSQ0gxNTRPdXRwdXRlbmNvZGluZyIgc3R5bGU9InN0cm9rZTojMDAwMDAwO3N0cm9rZS13aWR0aDoyLjA7Ii8+PHRleHQgZmlsbD0iIzAwMDAwMCIgZm9udC1mYW1pbHk9InNhbnMtc2VyaWYiIGZvbnQtc2l6ZT0iMTIiIGxlbmd0aEFkanVzdD0ic3BhY2luZyIgdGV4dExlbmd0aD0iNCIgeD0iOTY1IiB5PSIxNzg3LjYzODciPiYjMTYwOzwvdGV4dD48L2c+PCEtLXJldmVyc2UgbGluayBBUkNIMTE2RGVzaWduYW5kQXJjaGl0ZWN0U2VjdXJpdHlJbiB0byBBUkNIMTcxTG9nZ2luZy0tPjxnIGlkPSJsaW5rX0FSQ0gxMTZEZXNpZ25hbmRBcmNoaXRlY3RTZWN1cml0eUluX0FSQ0gxNzFMb2dnaW5nIj48cGF0aCBkPSJNNjUzLjgwODgsMTQxMi45ODUzIEM2NjAuNzk4OCwxMzA1LjUwNTMgNjg2LjIsMTEwNi41OSA3ODQsOTYxLjUgQzc4OC4zNiw5NTUuMDQgNzkzLjc2LDk0OS4wNyA3OTkuNjQsOTQzLjY1ICIgZmlsbD0ibm9uZSIgaWQ9IkFSQ0gxMTZEZXNpZ25hbmRBcmNoaXRlY3RTZWN1cml0eUluLWJhY2t0by1BUkNIMTcxTG9nZ2luZyIgc3R5bGU9InN0cm9rZTojMDAwMDAwO3N0cm9rZS13aWR0aDoxLjA7Ii8+PHBvbHlnb24gZmlsbD0ibm9uZSIgcG9pbnRzPSI2NTMuMDMsMTQyNC45Niw2NTcuNDExLDE0MTkuMjMyMiw2NTMuODA4OCwxNDEyLjk4NTMsNjQ5LjQyNzgsMTQxOC43MTMxLDY1My4wMywxNDI0Ljk2IiBzdHlsZT0ic3Ryb2tlOiMwMDAwMDA7c3Ryb2tlLXdpZHRoOjEuMDsiLz48dGV4dCBmaWxsPSIjMDAwMDAwIiBmb250LWZhbWlseT0ic2Fucy1zZXJpZiIgZm9udC1zaXplPSIxMiIgbGVuZ3RoQWRqdXN0PSJzcGFjaW5nIiB0ZXh0TGVuZ3RoPSI0IiB4PSI3NDkiIHk9IjEwMDguNjM4NyI+JiMxNjA7PC90ZXh0PjwvZz48IS0tcmV2ZXJzZSBsaW5rIEFSQ0gxMTZEZXNpZ25hbmRBcmNoaXRlY3RTZWN1cml0eUluIHRvIEFSQ0gxMTEyVW5zeW5jaHJvbml6ZWRzdGF0ZS0tPjxnIGlkPSJsaW5rX0FSQ0gxMTZEZXNpZ25hbmRBcmNoaXRlY3RTZWN1cml0eUluX0FSQ0gxMTEyVW5zeW5jaHJvbml6ZWRzdGF0ZSI+PHBhdGggZD0iTTY2My40MTk3LDE0MTIuOTMxNSBDNjc5LjIzOTcsMTMyNy42OTE1IDcxMi44MSwxMTkyLjU0IDc4NCwxMDg2LjUgQzc4OC4zMywxMDgwLjA2IDc5My40OSwxMDczLjg5IDc5OS4wNCwxMDY4LjEyICIgZmlsbD0ibm9uZSIgaWQ9IkFSQ0gxMTZEZXNpZ25hbmRBcmNoaXRlY3RTZWN1cml0eUluLWJhY2t0by1BUkNIMTExMlVuc3luY2hyb25pemVkc3RhdGUiIHN0eWxlPSJzdHJva2U6IzAwMDAwMDtzdHJva2Utd2lkdGg6MS4wOyIvPjxwb2x5Z29uIGZpbGw9Im5vbmUiIHBvaW50cz0iNjYxLjIzLDE0MjQuNzMsNjY2LjI1NzcsMTQxOS41NjA2LDY2My40MTk3LDE0MTIuOTMxNSw2NTguMzkyLDE0MTguMTAwOCw2NjEuMjMsMTQyNC43MyIgc3R5bGU9InN0cm9rZTojMDAwMDAwO3N0cm9rZS13aWR0aDoxLjA7Ii8+PHRleHQgZmlsbD0iIzAwMDAwMCIgZm9udC1mYW1pbHk9InNhbnMtc2VyaWYiIGZvbnQtc2l6ZT0iMTIiIGxlbmd0aEFkanVzdD0ic3BhY2luZyIgdGV4dExlbmd0aD0iNCIgeD0iNzQ5IiB5PSIxMTQzLjYzODciPiYjMTYwOzwvdGV4dD48L2c+PCEtLXJldmVyc2UgbGluayBBUkNIMTE2RGVzaWduYW5kQXJjaGl0ZWN0U2VjdXJpdHlJbiB0byBBUkNIMTExM1RocmVhZFNhZmUtLT48ZyBpZD0ibGlua19BUkNIMTE2RGVzaWduYW5kQXJjaGl0ZWN0U2VjdXJpdHlJbl9BUkNIMTExM1RocmVhZFNhZmUiPjxwYXRoIGQ9Ik02NjUuNTI4OSwxNTczLjk0MjcgQzY4Mi41Mzg5LDE2NTMuMTcyNyA3MTYuMzksMTc3Mi44IDc4NCwxODY2LjUgQzc4OC4zMiwxODcyLjQ4IDc5My4zMywxODc4LjI0IDc5OC42OCwxODgzLjY3ICIgZmlsbD0ibm9uZSIgaWQ9IkFSQ0gxMTZEZXNpZ25hbmRBcmNoaXRlY3RTZWN1cml0eUluLWJhY2t0by1BUkNIMTExM1RocmVhZFNhZmUiIHN0eWxlPSJzdHJva2U6IzAwMDAwMDtzdHJva2Utd2lkdGg6MS4wOyIvPjxwb2x5Z29uIGZpbGw9Im5vbmUiIHBvaW50cz0iNjYzLjAxLDE1NjIuMjEsNjYwLjM1ODYsMTU2OC45MTYsNjY1LjUyODksMTU3My45NDI3LDY2OC4xODAzLDE1NjcuMjM2Nyw2NjMuMDEsMTU2Mi4yMSIgc3R5bGU9InN0cm9rZTojMDAwMDAwO3N0cm9rZS13aWR0aDoxLjA7Ii8+PHRleHQgZmlsbD0iIzAwMDAwMCIgZm9udC1mYW1pbHk9InNhbnMtc2VyaWYiIGZvbnQtc2l6ZT0iMTIiIGxlbmd0aEFkanVzdD0ic3BhY2luZyIgdGV4dExlbmd0aD0iNCIgeD0iNzQ5IiB5PSIxODA4LjYzODciPiYjMTYwOzwvdGV4dD48L2c+PCEtLXJldmVyc2UgbGluayBBUkNIMTE2RGVzaWduYW5kQXJjaGl0ZWN0U2VjdXJpdHlJbiB0byBBUkNIMTE0MVNlZ3JlZ2F0aW9uLS0+PGcgaWQ9ImxpbmtfQVJDSDExNkRlc2lnbmFuZEFyY2hpdGVjdFNlY3VyaXR5SW5fQVJDSDExNDFTZWdyZWdhdGlvbiI+PHBhdGggZD0iTTY3My4zNTc5LDE0MTMuNDA0NyBDNjkzLjkyNzksMTM0OC43NDQ3IDcyNy43NSwxMjYzLjEyIDc4NCwxMTkzLjUgQzc4OS4xLDExODcuMTkgNzk1LjEsMTE4MS4yNSA4MDEuNDUsMTE3NS43OSAiIGZpbGw9Im5vbmUiIGlkPSJBUkNIMTE2RGVzaWduYW5kQXJjaGl0ZWN0U2VjdXJpdHlJbi1iYWNrdG8tQVJDSDExNDFTZWdyZWdhdGlvbiIgc3R5bGU9InN0cm9rZTojMDAwMDAwO3N0cm9rZS13aWR0aDoxLjA7Ii8+PHBvbHlnb24gZmlsbD0ibm9uZSIgcG9pbnRzPSI2NjkuNzIsMTQyNC44NCw2NzUuMzUwNywxNDIwLjMzNSw2NzMuMzU3OSwxNDEzLjQwNDcsNjY3LjcyNzIsMTQxNy45MDk3LDY2OS43MiwxNDI0Ljg0IiBzdHlsZT0ic3Ryb2tlOiMwMDAwMDA7c3Ryb2tlLXdpZHRoOjEuMDsiLz48dGV4dCBmaWxsPSIjMDAwMDAwIiBmb250LWZhbWlseT0ic2Fucy1zZXJpZiIgZm9udC1zaXplPSIxMiIgbGVuZ3RoQWRqdXN0PSJzcGFjaW5nIiB0ZXh0TGVuZ3RoPSI0IiB4PSI3NDkiIHk9IjEyMzMuNjM4NyI+JiMxNjA7PC90ZXh0PjwvZz48IS0tbGluayBBUkNIMTIzQXV0aGVudGljYXRpb25NZWNoYW5pc20gdG8gQVVUSDFMb2NhbFVzZXJEYXRhYmFzZS0tPjxnIGlkPSJsaW5rX0FSQ0gxMjNBdXRoZW50aWNhdGlvbk1lY2hhbmlzbV9BVVRIMUxvY2FsVXNlckRhdGFiYXNlIj48cGF0aCBkPSJNMTM0MC4yLDExMjguNSBDMTM2NC4zNSwxMTI4LjUgMTM3My4wNSwxMTI4LjUgMTM5NS4yMywxMTI4LjUgIiBmaWxsPSJub25lIiBpZD0iQVJDSDEyM0F1dGhlbnRpY2F0aW9uTWVjaGFuaXNtLXRvLUFVVEgxTG9jYWxVc2VyRGF0YWJhc2UiIHN0eWxlPSJzdHJva2U6IzAwMDAwMDtzdHJva2Utd2lkdGg6MS4wO3N0cm9rZS1kYXNoYXJyYXk6MS4wLDMuMDsiLz48cG9seWdvbiBmaWxsPSJub25lIiBwb2ludHM9IjE0MTMuMjMsMTEyOC41LDEzOTUuMjMsMTEyMi41LDEzOTUuMjMsMTEzNC41LDE0MTMuMjMsMTEyOC41IiBzdHlsZT0ic3Ryb2tlOiMwMDAwMDA7c3Ryb2tlLXdpZHRoOjEuMDsiLz48dGV4dCBmaWxsPSIjMDAwMDAwIiBmb250LWZhbWlseT0ic2Fucy1zZXJpZiIgZm9udC1zaXplPSIxMiIgbGVuZ3RoQWRqdXN0PSJzcGFjaW5nIiB0ZXh0TGVuZ3RoPSI0IiB4PSIxMzcxIiB5PSIxMTI1LjYzODciPiYjMTYwOzwvdGV4dD48L2c+PCEtLWxpbmsgSU5GTzZTZWN1cmVEYXRhU3RvcmFnZSB0byBBVVRIMUxvY2FsVXNlckRhdGFiYXNlLS0+PGcgaWQ9ImxpbmtfSU5GTzZTZWN1cmVEYXRhU3RvcmFnZV9BVVRIMUxvY2FsVXNlckRhdGFiYXNlIj48cGF0aCBkPSJNMTMxNi4xMywxNjQ0LjI3IEMxMzI1LjMzLDE2MzQuMTYgMTMzNC4wNCwxNjIyLjY1IDEzNDAsMTYxMC41IEMxMzYwLjQyLDE1NjguODggMTM4Ny4zMiwxMjQwLjkzIDE0MDYsMTE5OC41IEMxNDA4LjU2LDExOTIuNjggMTQwOC41MzM2LDExOTIuMDA3NyAxNDEyLjAzMzYsMTE4Ni40NDc3ICIgZmlsbD0ibm9uZSIgaWQ9IklORk82U2VjdXJlRGF0YVN0b3JhZ2UtdG8tQVVUSDFMb2NhbFVzZXJEYXRhYmFzZSIgc3R5bGU9InN0cm9rZTojMDAwMDAwO3N0cm9rZS13aWR0aDoxLjA7c3Ryb2tlLWRhc2hhcnJheTo3LjAsNy4wOyIvPjxwb2x5Z29uIGZpbGw9IiMwMDAwMDAiIHBvaW50cz0iMTQxNS4yMywxMTgxLjM3LDE0MDcuMDUwMywxMTg2Ljg1NTYsMTQxMi41NjYzLDExODUuNjAxNCwxNDEzLjgyMDUsMTE5MS4xMTc1LDE0MTUuMjMsMTE4MS4zNyIgc3R5bGU9InN0cm9rZTojMDAwMDAwO3N0cm9rZS13aWR0aDoxLjA7Ii8+PHRleHQgZmlsbD0iIzAwMDAwMCIgZm9udC1mYW1pbHk9InNhbnMtc2VyaWYiIGZvbnQtc2l6ZT0iMTIiIGxlbmd0aEFkanVzdD0ic3BhY2luZyIgdGV4dExlbmd0aD0iNCIgeD0iMTM3MSIgeT0iMTM5MC42Mzg3Ij4mIzE2MDs8L3RleHQ+PC9nPjwhLS1saW5rIEFSQ0gxMjNBdXRoZW50aWNhdGlvbk1lY2hhbmlzbSB0byBBVVRIMlJlbW90ZXVzZXJkYXRhYmFzZS0tPjxnIGlkPSJsaW5rX0FSQ0gxMjNBdXRoZW50aWNhdGlvbk1lY2hhbmlzbV9BVVRIMlJlbW90ZXVzZXJkYXRhYmFzZSI+PHBhdGggZD0iTTEzMzIuODIsMTE3My4xOCBDMTM1OC44NiwxMTkyLjQ3IDEzNzQuNDI2NSwxMjA0LjAwNTIgMTM5OC45MjY1LDEyMjIuMTU1MiAiIGZpbGw9Im5vbmUiIGlkPSJBUkNIMTIzQXV0aGVudGljYXRpb25NZWNoYW5pc20tdG8tQVVUSDJSZW1vdGV1c2VyZGF0YWJhc2UiIHN0eWxlPSJzdHJva2U6IzAwMDAwMDtzdHJva2Utd2lkdGg6MS4wO3N0cm9rZS1kYXNoYXJyYXk6MS4wLDMuMDsiLz48cG9seWdvbiBmaWxsPSJub25lIiBwb2ludHM9IjE0MTMuMzksMTIzMi44NywxNDAyLjQ5ODEsMTIxNy4zMzQsMTM5NS4zNTQ5LDEyMjYuOTc2NCwxNDEzLjM5LDEyMzIuODciIHN0eWxlPSJzdHJva2U6IzAwMDAwMDtzdHJva2Utd2lkdGg6MS4wOyIvPjx0ZXh0IGZpbGw9IiMwMDAwMDAiIGZvbnQtZmFtaWx5PSJzYW5zLXNlcmlmIiBmb250LXNpemU9IjEyIiBsZW5ndGhBZGp1c3Q9InNwYWNpbmciIHRleHRMZW5ndGg9IjQiIHg9IjEzNzEiIHk9IjExOTkuNjM4NyI+JiMxNjA7PC90ZXh0PjwvZz48IS0tbGluayBJTkZPOFNlY3VyZURhdGFUcmFuc21pc3Npb24gdG8gQVVUSDJSZW1vdGV1c2VyZGF0YWJhc2UtLT48ZyBpZD0ibGlua19JTkZPOFNlY3VyZURhdGFUcmFuc21pc3Npb25fQVVUSDJSZW1vdGV1c2VyZGF0YWJhc2UiPjxwYXRoIGQ9Ik0xMzI3LjUsMTUwNi40NiBDMTM0NC42NCwxNDkzLjkxIDEzNjIuNTYsMTQ3OC41NCAxMzc2LDE0NjEuNSBDMTQwOS4yNSwxNDE5LjM1IDE0MzAuNTQ3MiwxMzY3LjkzMDMgMTQ0NC4zMDcyLDEzMjYuNzgwMyAiIGZpbGw9Im5vbmUiIGlkPSJJTkZPOFNlY3VyZURhdGFUcmFuc21pc3Npb24tdG8tQVVUSDJSZW1vdGV1c2VyZGF0YWJhc2UiIHN0eWxlPSJzdHJva2U6IzAwMDAwMDtzdHJva2Utd2lkdGg6MS4wO3N0cm9rZS1kYXNoYXJyYXk6Ny4wLDcuMDsiLz48cG9seWdvbiBmaWxsPSIjMDAwMDAwIiBwb2ludHM9IjE0NDYuMjEsMTMyMS4wOSwxNDM5LjU2MjMsMTMyOC4zNTY5LDE0NDQuNjI0NCwxMzI1LjgzMTksMTQ0Ny4xNDk0LDEzMzAuODk0LDE0NDYuMjEsMTMyMS4wOSIgc3R5bGU9InN0cm9rZTojMDAwMDAwO3N0cm9rZS13aWR0aDoxLjA7Ii8+PHRleHQgZmlsbD0iIzAwMDAwMCIgZm9udC1mYW1pbHk9InNhbnMtc2VyaWYiIGZvbnQtc2l6ZT0iMTIiIGxlbmd0aEFkanVzdD0ic3BhY2luZyIgdGV4dExlbmd0aD0iNCIgeD0iMTM3MSIgeT0iMTQ1OC42Mzg3Ij4mIzE2MDs8L3RleHQ+PC9nPjwhLS1saW5rIEFVVEgxTG9jYWxVc2VyRGF0YWJhc2UgdG8gQVVUSDNQcmlvcml0eW9mdXNlcmRhdGFiYXNlcy0tPjxnIGlkPSJsaW5rX0FVVEgxTG9jYWxVc2VyRGF0YWJhc2VfQVVUSDNQcmlvcml0eW9mdXNlcmRhdGFiYXNlcyI+PHBhdGggZD0iTTE1MTEuNjQsMTE2NC40NCBDMTUyNS42NywxMTc1LjAyIDE1NDEsMTE4Ni42NiAxNTU1LDExOTcuNSBDMTU2NC43MSwxMjA1LjAyIDE1NzUuMDQsMTIxMy4xNCAxNTg0Ljg5LDEyMjAuOTQgIiBmaWxsPSJub25lIiBpZD0iQVVUSDFMb2NhbFVzZXJEYXRhYmFzZS1BVVRIM1ByaW9yaXR5b2Z1c2VyZGF0YWJhc2VzIiBzdHlsZT0ic3Ryb2tlOiMwMDAwMDA7c3Ryb2tlLXdpZHRoOjIuMDsiLz48dGV4dCBmaWxsPSIjMDAwMDAwIiBmb250LWZhbWlseT0ic2Fucy1zZXJpZiIgZm9udC1zaXplPSIxMiIgbGVuZ3RoQWRqdXN0PSJzcGFjaW5nIiB0ZXh0TGVuZ3RoPSI0IiB4PSIxNTUwIiB5PSIxMTkwLjYzODciPiYjMTYwOzwvdGV4dD48L2c+PCEtLWxpbmsgQVVUSDJSZW1vdGV1c2VyZGF0YWJhc2UgdG8gQVVUSDNQcmlvcml0eW9mdXNlcmRhdGFiYXNlcy0tPjxnIGlkPSJsaW5rX0FVVEgyUmVtb3RldXNlcmRhdGFiYXNlX0FVVEgzUHJpb3JpdHlvZnVzZXJkYXRhYmFzZXMiPjxwYXRoIGQ9Ik0xNTExLjUxLDEyNzIuMDQgQzE1MjUuNTQsMTI3Mi41NCAxNTQwLjksMTI3Mi41OCAxNTU1LDEyNzEuNSBDMTU2NC43LDEyNzAuNzYgMTU3NS4wMiwxMjY5LjUgMTU4NC44NywxMjY4LjA4ICIgZmlsbD0ibm9uZSIgaWQ9IkFVVEgyUmVtb3RldXNlcmRhdGFiYXNlLUFVVEgzUHJpb3JpdHlvZnVzZXJkYXRhYmFzZXMiIHN0eWxlPSJzdHJva2U6IzAwMDAwMDtzdHJva2Utd2lkdGg6Mi4wOyIvPjx0ZXh0IGZpbGw9IiMwMDAwMDAiIGZvbnQtZmFtaWx5PSJzYW5zLXNlcmlmIiBmb250LXNpemU9IjEyIiBsZW5ndGhBZGp1c3Q9InNwYWNpbmciIHRleHRMZW5ndGg9IjQiIHg9IjE1NTAiIHk9IjEyNjguNjM4NyI+JiMxNjA7PC90ZXh0PjwvZz48IS0tbGluayBJTkZPMkF1dG9tYXRpY2luZm9ybWF0aW9uZ2F0aGVyaW5nIHRvIElORk8xTWFudWFsZW50cmllcy0tPjxnIGlkPSJsaW5rX0lORk8yQXV0b21hdGljaW5mb3JtYXRpb25nYXRoZXJpbmdfSU5GTzFNYW51YWxlbnRyaWVzIj48cGF0aCBkPSJNMTMyMC4xOSw0NTMuMjkgQzEzNTAuMTYsNDcyLjYzIDEzODMuNDc4OCw0OTQuMTM2MyAxNDEyLjY2ODgsNTEyLjk3NjMgIiBmaWxsPSJub25lIiBpZD0iSU5GTzJBdXRvbWF0aWNpbmZvcm1hdGlvbmdhdGhlcmluZy10by1JTkZPMU1hbnVhbGVudHJpZXMiIHN0eWxlPSJzdHJva2U6IzAwMDAwMDtzdHJva2Utd2lkdGg6MS4wO3N0cm9rZS1kYXNoYXJyYXk6Ny4wLDcuMDsiLz48cG9seWdvbiBmaWxsPSIjMDAwMDAwIiBwb2ludHM9IjE0MTcuNzEsNTE2LjIzLDE0MTIuMzE3NCw1MDcuOTg4NywxNDEzLjUwOSw1MTMuNTE4NiwxNDA3Ljk3OTEsNTE0LjcxMDIsMTQxNy43MSw1MTYuMjMiIHN0eWxlPSJzdHJva2U6IzAwMDAwMDtzdHJva2Utd2lkdGg6MS4wOyIvPjx0ZXh0IGZpbGw9IiMwMDAwMDAiIGZvbnQtZmFtaWx5PSJzYW5zLXNlcmlmIiBmb250LXNpemU9IjEyIiBsZW5ndGhBZGp1c3Q9InNwYWNpbmciIHRleHRMZW5ndGg9IjQiIHg9IjEzNzEiIHk9IjQ4NC42Mzg3Ij4mIzE2MDs8L3RleHQ+PC9nPjwhLS1saW5rIEFSQ0gyUGx1Z2lucyB0byBJTkZPMU1hbnVhbGVudHJpZXMtLT48ZyBpZD0ibGlua19BUkNIMlBsdWdpbnNfSU5GTzFNYW51YWxlbnRyaWVzIj48cGF0aCBkPSJNMTExNS40LDQ1OC42NCBDMTE0MC4wMyw0NzYuMTcgMTE3MS42OSw0OTUuOTEgMTIwMyw1MDcuNSBDMTI3NS4wNiw1MzQuMTggMTM1OS4wMjQ2LDU0MS41MTM5IDE0MTEuNTk0Niw1NDMuNTgzOSAiIGZpbGw9Im5vbmUiIGlkPSJBUkNIMlBsdWdpbnMtdG8tSU5GTzFNYW51YWxlbnRyaWVzIiBzdHlsZT0ic3Ryb2tlOiMwMDAwMDA7c3Ryb2tlLXdpZHRoOjEuMDtzdHJva2UtZGFzaGFycmF5OjcuMCw3LjA7Ii8+PHBvbHlnb24gZmlsbD0iIzAwMDAwMCIgcG9pbnRzPSIxNDE3LjU5LDU0My44MiwxNDA4Ljc1NDQsNTM5LjQ2OSwxNDEyLjU5MzksNTQzLjYyMzMsMTQwOC40Mzk2LDU0Ny40NjI4LDE0MTcuNTksNTQzLjgyIiBzdHlsZT0ic3Ryb2tlOiMwMDAwMDA7c3Ryb2tlLXdpZHRoOjEuMDsiLz48dGV4dCBmaWxsPSIjMDAwMDAwIiBmb250LWZhbWlseT0ic2Fucy1zZXJpZiIgZm9udC1zaXplPSIxMiIgbGVuZ3RoQWRqdXN0PSJzcGFjaW5nIiB0ZXh0TGVuZ3RoPSI0IiB4PSIxMjY5LjUiIHk9IjUwNC42Mzg3Ij4mIzE2MDs8L3RleHQ+PC9nPjwhLS1saW5rIEFSQ0gyUGx1Z2lucyB0byBJTkZPMkF1dG9tYXRpY2luZm9ybWF0aW9uZ2F0aGVyaW5nLS0+PGcgaWQ9ImxpbmtfQVJDSDJQbHVnaW5zX0lORk8yQXV0b21hdGljaW5mb3JtYXRpb25nYXRoZXJpbmciPjxwYXRoIGQ9Ik0xMTE3LjEzLDQyMi41IEMxMTQ5LjA2LDQyMi41IDExODQuOTMsNDIyLjUgMTIxNi44Niw0MjIuNSAiIGZpbGw9Im5vbmUiIGlkPSJBUkNIMlBsdWdpbnMtdG8tSU5GTzJBdXRvbWF0aWNpbmZvcm1hdGlvbmdhdGhlcmluZyIgc3R5bGU9InN0cm9rZTojMDAwMDAwO3N0cm9rZS13aWR0aDoxLjA7c3Ryb2tlLWRhc2hhcnJheTo3LjAsNy4wOyIvPjxwb2x5Z29uIGZpbGw9IiMwMDAwMDAiIHBvaW50cz0iMTIyMi44Niw0MjIuNSwxMjEzLjg2LDQxOC41LDEyMTcuODYsNDIyLjUsMTIxMy44Niw0MjYuNSwxMjIyLjg2LDQyMi41IiBzdHlsZT0ic3Ryb2tlOiMwMDAwMDA7c3Ryb2tlLXdpZHRoOjEuMDsiLz48dGV4dCBmaWxsPSIjMDAwMDAwIiBmb250LWZhbWlseT0ic2Fucy1zZXJpZiIgZm9udC1zaXplPSIxMiIgbGVuZ3RoQWRqdXN0PSJzcGFjaW5nIiB0ZXh0TGVuZ3RoPSI0IiB4PSIxMTY4IiB5PSI0MTkuNjM4NyI+JiMxNjA7PC90ZXh0PjwvZz48IS0tbGluayBJTkZPNURpc2FibGVBdXRvbWF0aWNJbmZvcm1hdGlvbkdhdGhlcmluZyB0byBJTkZPMkF1dG9tYXRpY2luZm9ybWF0aW9uZ2F0aGVyaW5nLS0+PGcgaWQ9ImxpbmtfSU5GTzVEaXNhYmxlQXV0b21hdGljSW5mb3JtYXRpb25HYXRoZXJpbmdfSU5GTzJBdXRvbWF0aWNpbmZvcm1hdGlvbmdhdGhlcmluZyI+PHBhdGggZD0iTTExMTcuMTMsNTMwLjA4IEMxMTQ5LjA2LDUwNy42OSAxMTg2LjAxODIsNDgxLjc2NTggMTIxNy45NDgyLDQ1OS4zNjU4ICIgZmlsbD0ibm9uZSIgaWQ9IklORk81RGlzYWJsZUF1dG9tYXRpY0luZm9ybWF0aW9uR2F0aGVyaW5nLXRvLUlORk8yQXV0b21hdGljaW5mb3JtYXRpb25nYXRoZXJpbmciIHN0eWxlPSJzdHJva2U6IzAwMDAwMDtzdHJva2Utd2lkdGg6MS4wO3N0cm9rZS1kYXNoYXJyYXk6Ny4wLDcuMDsiLz48cG9seWdvbiBmaWxsPSIjMDAwMDAwIiBwb2ludHM9IjEyMjIuODYsNDU1LjkyLDEyMTMuMTk1LDQ1Ny44MTQyLDEyMTguNzY2OCw0NTguNzkxNSwxMjE3Ljc4OTQsNDY0LjM2MzMsMTIyMi44Niw0NTUuOTIiIHN0eWxlPSJzdHJva2U6IzAwMDAwMDtzdHJva2Utd2lkdGg6MS4wOyIvPjx0ZXh0IGZpbGw9IiMwMDAwMDAiIGZvbnQtZmFtaWx5PSJzYW5zLXNlcmlmIiBmb250LXNpemU9IjEyIiBsZW5ndGhBZGp1c3Q9InNwYWNpbmciIHRleHRMZW5ndGg9IjQiIHg9IjExNjgiIHk9IjQ5MC42Mzg3Ij4mIzE2MDs8L3RleHQ+PC9nPjwhLS1saW5rIElORk82U2VjdXJlRGF0YVN0b3JhZ2UgdG8gSU5GTzNMb2NhbERhdGFzdG9yZS0tPjxnIGlkPSJsaW5rX0lORk82U2VjdXJlRGF0YVN0b3JhZ2VfSU5GTzNMb2NhbERhdGFzdG9yZSI+PHBhdGggZD0iTTEzMTYuMzQsMTY4Mi41IEMxMzQ2Ljg3LDE2ODIuNSAxMzgxLjQyLDE2ODIuNSAxNDExLjksMTY4Mi41ICIgZmlsbD0ibm9uZSIgaWQ9IklORk82U2VjdXJlRGF0YVN0b3JhZ2UtdG8tSU5GTzNMb2NhbERhdGFzdG9yZSIgc3R5bGU9InN0cm9rZTojMDAwMDAwO3N0cm9rZS13aWR0aDoxLjA7c3Ryb2tlLWRhc2hhcnJheTo3LjAsNy4wOyIvPjxwb2x5Z29uIGZpbGw9IiMwMDAwMDAiIHBvaW50cz0iMTQxNy45LDE2ODIuNSwxNDA4LjksMTY3OC41LDE0MTIuOSwxNjgyLjUsMTQwOC45LDE2ODYuNSwxNDE3LjksMTY4Mi41IiBzdHlsZT0ic3Ryb2tlOiMwMDAwMDA7c3Ryb2tlLXdpZHRoOjEuMDsiLz48dGV4dCBmaWxsPSIjMDAwMDAwIiBmb250LWZhbWlseT0ic2Fucy1zZXJpZiIgZm9udC1zaXplPSIxMiIgbGVuZ3RoQWRqdXN0PSJzcGFjaW5nIiB0ZXh0TGVuZ3RoPSI0IiB4PSIxMzcxIiB5PSIxNjc5LjYzODciPiYjMTYwOzwvdGV4dD48L2c+PCEtLWxpbmsgQ0k1TWFuZGF0b3J5YXR0cmlidXRlcyB0byBDSTFVbmlxdWVJZGVudGlmaWVyLS0+PGcgaWQ9ImxpbmtfQ0k1TWFuZGF0b3J5YXR0cmlidXRlc19DSTFVbmlxdWVJZGVudGlmaWVyIj48cGF0aCBkPSJNMTUwOC45MiwyNjMuMzkgQzE1MzUuNiwyNTguMDQgMTU1MS4zMDIyLDI1NC44OTM1IDE1NzYuNzAyMiwyNDkuNzkzNSAiIGZpbGw9Im5vbmUiIGlkPSJDSTVNYW5kYXRvcnlhdHRyaWJ1dGVzLXRvLUNJMVVuaXF1ZUlkZW50aWZpZXIiIHN0eWxlPSJzdHJva2U6IzAwMDAwMDtzdHJva2Utd2lkdGg6MS4wOyIvPjxwb2x5Z29uIGZpbGw9Im5vbmUiIHBvaW50cz0iMTU5NC4zNSwyNDYuMjUsMTU3NS41MjExLDI0My45MTA5LDE1NzcuODgzNCwyNTUuNjc2LDE1OTQuMzUsMjQ2LjI1IiBzdHlsZT0ic3Ryb2tlOiMwMDAwMDA7c3Ryb2tlLXdpZHRoOjEuMDsiLz48dGV4dCBmaWxsPSIjMDAwMDAwIiBmb250LWZhbWlseT0ic2Fucy1zZXJpZiIgZm9udC1zaXplPSIxMiIgbGVuZ3RoQWRqdXN0PSJzcGFjaW5nIiB0ZXh0TGVuZ3RoPSI0IiB4PSIxNTUwIiB5PSIyNTEuNjM4NyI+JiMxNjA7PC90ZXh0PjwvZz48IS0tbGluayBDSTVNYW5kYXRvcnlhdHRyaWJ1dGVzIHRvIENJMkFzc2V0dHlwZWhpZXJhcmNoeS0tPjxnIGlkPSJsaW5rX0NJNU1hbmRhdG9yeWF0dHJpYnV0ZXNfQ0kyQXNzZXR0eXBlaGllcmFyY2h5Ij48cGF0aCBkPSJNMTUwNi43MSwyMTkuOTggQzE1MzMuMDksMTg3LjkyIDE1NTUuMTg1MiwxNjEuMDgxMiAxNTgxLjA1NTIsMTI5LjYzMTIgIiBmaWxsPSJub25lIiBpZD0iQ0k1TWFuZGF0b3J5YXR0cmlidXRlcy10by1DSTJBc3NldHR5cGVoaWVyYXJjaHkiIHN0eWxlPSJzdHJva2U6IzAwMDAwMDtzdHJva2Utd2lkdGg6MS4wO3N0cm9rZS1kYXNoYXJyYXk6MS4wLDMuMDsiLz48cG9seWdvbiBmaWxsPSJub25lIiBwb2ludHM9IjE1OTIuNDksMTE1LjczLDE1NzYuNDIxNCwxMjUuODE5NiwxNTg1LjY4ODksMTMzLjQ0MjksMTU5Mi40OSwxMTUuNzMiIHN0eWxlPSJzdHJva2U6IzAwMDAwMDtzdHJva2Utd2lkdGg6MS4wOyIvPjx0ZXh0IGZpbGw9IiMwMDAwMDAiIGZvbnQtZmFtaWx5PSJzYW5zLXNlcmlmIiBmb250LXNpemU9IjEyIiBsZW5ndGhBZGp1c3Q9InNwYWNpbmciIHRleHRMZW5ndGg9IjQiIHg9IjE1NTAiIHk9IjE2MC42Mzg3Ij4mIzE2MDs8L3RleHQ+PC9nPjwhLS1saW5rIEFSQ0gyUGx1Z2lucyB0byBDSTJBc3NldHR5cGVoaWVyYXJjaHktLT48ZyBpZD0ibGlua19BUkNIMlBsdWdpbnNfQ0kyQXNzZXR0eXBlaGllcmFyY2h5Ij48cGF0aCBkPSJNMTA4Ni4yMywzODYuMjEgQzExMDguMjcsMzQxLjE3IDExNTAuNDksMjYzLjc4IDEyMDMsMjEwLjUgQzEyNzguNTQsMTMzLjg1IDEzMDMuNjcsMTExLjgxIDE0MDYsNzguNSBDMTQ2OC42Nyw1OC4xIDE1NDAuMTk0Niw1OC43OTEyIDE1ODYuNTA0Niw2Mi4wMzEyICIgZmlsbD0ibm9uZSIgaWQ9IkFSQ0gyUGx1Z2lucy10by1DSTJBc3NldHR5cGVoaWVyYXJjaHkiIHN0eWxlPSJzdHJva2U6IzAwMDAwMDtzdHJva2Utd2lkdGg6MS4wO3N0cm9rZS1kYXNoYXJyYXk6Ny4wLDcuMDsiLz48cG9seWdvbiBmaWxsPSIjMDAwMDAwIiBwb2ludHM9IjE1OTIuNDksNjIuNDUsMTU4My43OTExLDU3LjgzMTYsMTU4Ny41MDIyLDYyLjEwMSwxNTgzLjIzMjgsNjUuODEyMSwxNTkyLjQ5LDYyLjQ1IiBzdHlsZT0ic3Ryb2tlOiMwMDAwMDA7c3Ryb2tlLXdpZHRoOjEuMDsiLz48dGV4dCBmaWxsPSIjMDAwMDAwIiBmb250LWZhbWlseT0ic2Fucy1zZXJpZiIgZm9udC1zaXplPSIxMiIgbGVuZ3RoQWRqdXN0PSJzcGFjaW5nIiB0ZXh0TGVuZ3RoPSI0IiB4PSIxMzcxIiB5PSI4Ni42Mzg3Ij4mIzE2MDs8L3RleHQ+PC9nPjwhLS1saW5rIEFSQ0gyUGx1Z2lucyB0byBDSTNBdHRyaWJ1dGVzLS0+PGcgaWQ9ImxpbmtfQVJDSDJQbHVnaW5zX0NJM0F0dHJpYnV0ZXMiPjxwYXRoIGQ9Ik0xMTE3LjEzLDM4Ni45NSBDMTE1MC44LDM2MS44MyAxMTkwLjcyMTgsMzMyLjAzOTEgMTIyMy4xODE4LDMwNy44MDkxICIgZmlsbD0ibm9uZSIgaWQ9IkFSQ0gyUGx1Z2lucy10by1DSTNBdHRyaWJ1dGVzIiBzdHlsZT0ic3Ryb2tlOiMwMDAwMDA7c3Ryb2tlLXdpZHRoOjEuMDtzdHJva2UtZGFzaGFycmF5OjcuMCw3LjA7Ii8+PHBvbHlnb24gZmlsbD0iIzAwMDAwMCIgcG9pbnRzPSIxMjI3Ljk5LDMwNC4yMiwxMjE4LjM4NSwzMDYuMzk4MiwxMjIzLjk4MzIsMzA3LjIxMDksMTIyMy4xNzA1LDMxMi44MDkxLDEyMjcuOTksMzA0LjIyIiBzdHlsZT0ic3Ryb2tlOiMwMDAwMDA7c3Ryb2tlLXdpZHRoOjEuMDsiLz48dGV4dCBmaWxsPSIjMDAwMDAwIiBmb250LWZhbWlseT0ic2Fucy1zZXJpZiIgZm9udC1zaXplPSIxMiIgbGVuZ3RoQWRqdXN0PSJzcGFjaW5nIiB0ZXh0TGVuZ3RoPSI0IiB4PSIxMTY4IiB5PSIzNDQuNjM4NyI+JiMxNjA7PC90ZXh0PjwvZz48IS0tbGluayBDSTNBdHRyaWJ1dGVzIHRvIENJNFJlbGF0aW9uc2hpcHMtLT48ZyBpZD0ibGlua19DSTNBdHRyaWJ1dGVzX0NJNFJlbGF0aW9uc2hpcHMiPjxwYXRoIGQ9Ik0xMzE1LjM5LDI0Mi41NSBDMTM0Mi4xOCwyMjMuODQgMTM2Mi4yMDQyLDIwOS44NTg2IDEzOTEuMTA0MiwxODkuNjY4NiAiIGZpbGw9Im5vbmUiIGlkPSJDSTNBdHRyaWJ1dGVzLXRvLUNJNFJlbGF0aW9uc2hpcHMiIHN0eWxlPSJzdHJva2U6IzAwMDAwMDtzdHJva2Utd2lkdGg6MS4wOyIvPjxwb2x5Z29uIGZpbGw9Im5vbmUiIHBvaW50cz0iMTQwNS44NiwxNzkuMzYsMTM4Ny42NjgsMTg0Ljc1LDEzOTQuNTQwNCwxOTQuNTg3MiwxNDA1Ljg2LDE3OS4zNiIgc3R5bGU9InN0cm9rZTojMDAwMDAwO3N0cm9rZS13aWR0aDoxLjA7Ii8+PHRleHQgZmlsbD0iIzAwMDAwMCIgZm9udC1mYW1pbHk9InNhbnMtc2VyaWYiIGZvbnQtc2l6ZT0iMTIiIGxlbmd0aEFkanVzdD0ic3BhY2luZyIgdGV4dExlbmd0aD0iNCIgeD0iMTM3MSIgeT0iMjAwLjYzODciPiYjMTYwOzwvdGV4dD48L2c+PCEtLWxpbmsgQ0kzQXR0cmlidXRlcyB0byBDSTVNYW5kYXRvcnlhdHRyaWJ1dGVzLS0+PGcgaWQ9ImxpbmtfQ0kzQXR0cmlidXRlc19DSTVNYW5kYXRvcnlhdHRyaWJ1dGVzIj48cGF0aCBkPSJNMTMxNS4zOSwyNzIuNSBDMTM0NS41NiwyNzIuNSAxMzY3Ljg1LDI3Mi41IDEzOTguNDgsMjcyLjUgIiBmaWxsPSJub25lIiBpZD0iQ0kzQXR0cmlidXRlcy10by1DSTVNYW5kYXRvcnlhdHRyaWJ1dGVzIiBzdHlsZT0ic3Ryb2tlOiMwMDAwMDA7c3Ryb2tlLXdpZHRoOjEuMDsiLz48cG9seWdvbiBmaWxsPSJub25lIiBwb2ludHM9IjE0MTYuNDgsMjcyLjUsMTM5OC40OCwyNjYuNSwxMzk4LjQ4LDI3OC41LDE0MTYuNDgsMjcyLjUiIHN0eWxlPSJzdHJva2U6IzAwMDAwMDtzdHJva2Utd2lkdGg6MS4wOyIvPjx0ZXh0IGZpbGw9IiMwMDAwMDAiIGZvbnQtZmFtaWx5PSJzYW5zLXNlcmlmIiBmb250LXNpemU9IjEyIiBsZW5ndGhBZGp1c3Q9InNwYWNpbmciIHRleHRMZW5ndGg9IjQiIHg9IjEzNzEiIHk9IjI2OS42Mzg3Ij4mIzE2MDs8L3RleHQ+PC9nPjwhLS1saW5rIEFSQ0gxNzFMb2dnaW5nIHRvIENJNkF1ZGl0TG9nLS0+PGcgaWQ9ImxpbmtfQVJDSDE3MUxvZ2dpbmdfQ0k2QXVkaXRMb2ciPjxwYXRoIGQ9Ik05MjcuNjYsOTA3LjUgQzk2Ni4yMSw5MDcuNSA5OTQuMzYsOTA3LjUgMTAyMi44MSw5MDcuNSAiIGZpbGw9Im5vbmUiIGlkPSJBUkNIMTcxTG9nZ2luZy10by1DSTZBdWRpdExvZyIgc3R5bGU9InN0cm9rZTojMDAwMDAwO3N0cm9rZS13aWR0aDoxLjA7c3Ryb2tlLWRhc2hhcnJheToxLjAsMy4wOyIvPjxwb2x5Z29uIGZpbGw9Im5vbmUiIHBvaW50cz0iMTA0MC44MSw5MDcuNSwxMDIyLjgxLDkwMS41LDEwMjIuODEsOTEzLjUsMTA0MC44MSw5MDcuNSIgc3R5bGU9InN0cm9rZTojMDAwMDAwO3N0cm9rZS13aWR0aDoxLjA7Ii8+PHRleHQgZmlsbD0iIzAwMDAwMCIgZm9udC1mYW1pbHk9InNhbnMtc2VyaWYiIGZvbnQtc2l6ZT0iMTIiIGxlbmd0aEFkanVzdD0ic3BhY2luZyIgdGV4dExlbmd0aD0iNCIgeD0iOTY1IiB5PSI5MDQuNjM4NyI+JiMxNjA7PC90ZXh0PjwvZz48IS0tbGluayBDSTVNYW5kYXRvcnlhdHRyaWJ1dGVzIHRvIENJN0N1c3RvbWFzc2V0dHlwZXMtLT48ZyBpZD0ibGlua19DSTVNYW5kYXRvcnlhdHRyaWJ1dGVzX0NJN0N1c3RvbWFzc2V0dHlwZXMiPjxwYXRoIGQ9Ik0xNTA4LjkyLDMwMy4wNSBDMTUzNi40OCwzMjEuNTggMTU2Ni4xODE1LDM0MS41NjEzIDE1OTEuODcxNSwzNTguODQxMyAiIGZpbGw9Im5vbmUiIGlkPSJDSTVNYW5kYXRvcnlhdHRyaWJ1dGVzLXRvLUNJN0N1c3RvbWFzc2V0dHlwZXMiIHN0eWxlPSJzdHJva2U6IzAwMDAwMDtzdHJva2Utd2lkdGg6MS4wO3N0cm9rZS1kYXNoYXJyYXk6Ny4wLDcuMDsiLz48cG9seWdvbiBmaWxsPSIjMDAwMDAwIiBwb2ludHM9IjE1OTYuODUsMzYyLjE5LDE1OTEuNjE0NywzNTMuODQ3OSwxNTkyLjcwMTIsMzU5LjM5OTQsMTU4Ny4xNDk3LDM2MC40ODU5LDE1OTYuODUsMzYyLjE5IiBzdHlsZT0ic3Ryb2tlOiMwMDAwMDA7c3Ryb2tlLXdpZHRoOjEuMDsiLz48dGV4dCBmaWxsPSIjMDAwMDAwIiBmb250LWZhbWlseT0ic2Fucy1zZXJpZiIgZm9udC1zaXplPSIxMiIgbGVuZ3RoQWRqdXN0PSJzcGFjaW5nIiB0ZXh0TGVuZ3RoPSI0IiB4PSIxNTUwIiB5PSIzMzAuNjM4NyI+JiMxNjA7PC90ZXh0PjwvZz48IS0tbGluayBJTkZPMkF1dG9tYXRpY2luZm9ybWF0aW9uZ2F0aGVyaW5nIHRvIElORk80QXV0b21hdGVkQXNzZXRkaXNjb3ZlcnktLT48ZyBpZD0ibGlua19JTkZPMkF1dG9tYXRpY2luZm9ybWF0aW9uZ2F0aGVyaW5nX0lORk80QXV0b21hdGVkQXNzZXRkaXNjb3ZlcnkiPjxwYXRoIGQ9Ik0xMzIwLjE5LDQxOS45OCBDMTM0OS4wNiw0MTguNDUgMTM2Ny43NTUxLDQxNy40NjAzIDEzOTYuNTA1MSw0MTUuOTQwMyAiIGZpbGw9Im5vbmUiIGlkPSJJTkZPMkF1dG9tYXRpY2luZm9ybWF0aW9uZ2F0aGVyaW5nLXRvLUlORk80QXV0b21hdGVkQXNzZXRkaXNjb3ZlcnkiIHN0eWxlPSJzdHJva2U6IzAwMDAwMDtzdHJva2Utd2lkdGg6MS4wO3N0cm9rZS1kYXNoYXJyYXk6MS4wLDMuMDsiLz48cG9seWdvbiBmaWxsPSJub25lIiBwb2ludHM9IjE0MTQuNDgsNDE0Ljk5LDEzOTYuMTg4Myw0MDkuOTQ4NywxMzk2LjgyMTksNDIxLjkzMiwxNDE0LjQ4LDQxNC45OSIgc3R5bGU9InN0cm9rZTojMDAwMDAwO3N0cm9rZS13aWR0aDoxLjA7Ii8+PHRleHQgZmlsbD0iIzAwMDAwMCIgZm9udC1mYW1pbHk9InNhbnMtc2VyaWYiIGZvbnQtc2l6ZT0iMTIiIGxlbmd0aEFkanVzdD0ic3BhY2luZyIgdGV4dExlbmd0aD0iNCIgeD0iMTM3MSIgeT0iNDE0LjYzODciPiYjMTYwOzwvdGV4dD48L2c+PCEtLWxpbmsgQVJDSDEyMkNvbXBvbmVudENvbW11bmljYXRpb24gdG8gQVJDSDJQbHVnaW5zLS0+PGcgaWQ9ImxpbmtfQVJDSDEyMkNvbXBvbmVudENvbW11bmljYXRpb25fQVJDSDJQbHVnaW5zIj48cGF0aCBkPSJNOTI3LjY3LDY5Ni44NiBDOTQzLjYsNjkxLjUxIDk1OS4wOSw2ODMuMjUgOTcwLDY3MC41IEMxMDI0LjE1LDYwNy4yIDk2MC43OCw1NTguOTggMTAwMCw0ODUuNSBDMTAwNS4yMSw0NzUuNzQgMTAwOC4zMDc0LDQ3MC45NTI0IDEwMTYuMjA3NCw0NjIuOTAyNCAiIGZpbGw9Im5vbmUiIGlkPSJBUkNIMTIyQ29tcG9uZW50Q29tbXVuaWNhdGlvbi10by1BUkNIMlBsdWdpbnMiIHN0eWxlPSJzdHJva2U6IzAwMDAwMDtzdHJva2Utd2lkdGg6MS4wO3N0cm9rZS1kYXNoYXJyYXk6Ny4wLDcuMDsiLz48cG9seWdvbiBmaWxsPSIjMDAwMDAwIiBwb2ludHM9IjEwMjAuNDEsNDU4LjYyLDEwMTEuMjUxMyw0NjIuMjQxOCwxMDE2LjkwNzksNDYyLjE4ODYsMTAxNi45NjExLDQ2Ny44NDUyLDEwMjAuNDEsNDU4LjYyIiBzdHlsZT0ic3Ryb2tlOiMwMDAwMDA7c3Ryb2tlLXdpZHRoOjEuMDsiLz48dGV4dCBmaWxsPSIjMDAwMDAwIiBmb250LWZhbWlseT0ic2Fucy1zZXJpZiIgZm9udC1zaXplPSIxMiIgbGVuZ3RoQWRqdXN0PSJzcGFjaW5nIiB0ZXh0TGVuZ3RoPSI0IiB4PSI5NjUiIHk9IjY2Ny42Mzg3Ij4mIzE2MDs8L3RleHQ+PC9nPjwhLS1yZXZlcnNlIGxpbmsgQVJDSDExNkRlc2lnbmFuZEFyY2hpdGVjdFNlY3VyaXR5SW4gdG8gQVJDSDE2MktleXByb3RlY3Rpb24tLT48ZyBpZD0ibGlua19BUkNIMTE2RGVzaWduYW5kQXJjaGl0ZWN0U2VjdXJpdHlJbl9BUkNIMTYyS2V5cHJvdGVjdGlvbiI+PHBhdGggZD0iTTcyOS42ODY5LDE1MjIuNzQ3MiBDODA3LjM0NjksMTU1MS40MjcyIDkyMi40NSwxNTkzLjkzIDk5OS45NSwxNjIyLjU1ICIgZmlsbD0ibm9uZSIgaWQ9IkFSQ0gxMTZEZXNpZ25hbmRBcmNoaXRlY3RTZWN1cml0eUluLWJhY2t0by1BUkNIMTYyS2V5cHJvdGVjdGlvbiIgc3R5bGU9InN0cm9rZTojMDAwMDAwO3N0cm9rZS13aWR0aDoxLjA7Ii8+PHBvbHlnb24gZmlsbD0ibm9uZSIgcG9pbnRzPSI3MTguNDMsMTUxOC41OSw3MjIuNjcyNywxNTI0LjQyMDksNzI5LjY4NjksMTUyMi43NDcyLDcyNS40NDQyLDE1MTYuOTE2Myw3MTguNDMsMTUxOC41OSIgc3R5bGU9InN0cm9rZTojMDAwMDAwO3N0cm9rZS13aWR0aDoxLjA7Ii8+PHRleHQgZmlsbD0iIzAwMDAwMCIgZm9udC1mYW1pbHk9InNhbnMtc2VyaWYiIGZvbnQtc2l6ZT0iMTIiIGxlbmd0aEFkanVzdD0ic3BhY2luZyIgdGV4dExlbmd0aD0iNCIgeD0iODU3IiB5PSIxNTM5LjYzODciPiYjMTYwOzwvdGV4dD48L2c+PCEtLXJldmVyc2UgbGluayBBUkNIMTE2RGVzaWduYW5kQXJjaGl0ZWN0U2VjdXJpdHlJbiB0byBBUkNIMTYzS2V5cmVwbGFjZW1lbnQtLT48ZyBpZD0ibGlua19BUkNIMTE2RGVzaWduYW5kQXJjaGl0ZWN0U2VjdXJpdHlJbl9BUkNIMTYzS2V5cmVwbGFjZW1lbnQiPjxwYXRoIGQ9Ik03MzAuMjMyLDE1MDQuMDEwNyBDNzUxLjI1MiwxNTA2LjU3MDcgNzYyLjYsMTUwNy42OSA3ODQsMTUwOS41IEM4NTcuNjYsMTUxNS43MiA5NDIuMzMsMTUxOS40NiA5OTkuODIsMTUyMS40OSAiIGZpbGw9Im5vbmUiIGlkPSJBUkNIMTE2RGVzaWduYW5kQXJjaGl0ZWN0U2VjdXJpdHlJbi1iYWNrdG8tQVJDSDE2M0tleXJlcGxhY2VtZW50IiBzdHlsZT0ic3Ryb2tlOiMwMDAwMDA7c3Ryb2tlLXdpZHRoOjEuMDsiLz48cG9seWdvbiBmaWxsPSJub25lIiBwb2ludHM9IjcxOC4zMiwxNTAyLjU2LDcyMy43OTI0LDE1MDcuMjU2LDczMC4yMzIsMTUwNC4wMTA3LDcyNC43NTk2LDE0OTkuMzE0Nyw3MTguMzIsMTUwMi41NiIgc3R5bGU9InN0cm9rZTojMDAwMDAwO3N0cm9rZS13aWR0aDoxLjA7Ii8+PHRleHQgZmlsbD0iIzAwMDAwMCIgZm9udC1mYW1pbHk9InNhbnMtc2VyaWYiIGZvbnQtc2l6ZT0iMTIiIGxlbmd0aEFkanVzdD0ic3BhY2luZyIgdGV4dExlbmd0aD0iNCIgeD0iODU3IiB5PSIxNTA2LjYzODciPiYjMTYwOzwvdGV4dD48L2c+PCEtLXJldmVyc2UgbGluayBBUkNIMTExU0RMQyB0byBTRExDMUJ1aWxkU3lzdGVtLS0+PGcgaWQ9ImxpbmtfQVJDSDExMVNETENfU0RMQzFCdWlsZFN5c3RlbSI+PHBhdGggZD0iTTUyNy4yNywyMjI1LjUgQzU1Ny41OSwyMjI1LjUgNTgwLjM2LDIyMjUuNSA2MDYuNzgsMjIyNS41ICIgZmlsbD0ibm9uZSIgaWQ9IkFSQ0gxMTFTRExDLWJhY2t0by1TRExDMUJ1aWxkU3lzdGVtIiBzdHlsZT0ic3Ryb2tlOiMwMDAwMDA7c3Ryb2tlLXdpZHRoOjEuMDsiLz48cG9seWdvbiBmaWxsPSJub25lIiBwb2ludHM9IjUxNS4yNywyMjI1LjUsNTIxLjI3LDIyMjkuNSw1MjcuMjcsMjIyNS41LDUyMS4yNywyMjIxLjUsNTE1LjI3LDIyMjUuNSIgc3R5bGU9InN0cm9rZTojMDAwMDAwO3N0cm9rZS13aWR0aDoxLjA7Ii8+PHRleHQgZmlsbD0iIzAwMDAwMCIgZm9udC1mYW1pbHk9InNhbnMtc2VyaWYiIGZvbnQtc2l6ZT0iMTIiIGxlbmd0aEFkanVzdD0ic3BhY2luZyIgdGV4dExlbmd0aD0iNCIgeD0iNTQ2IiB5PSIyMjIyLjYzODciPiYjMTYwOzwvdGV4dD48L2c+PCEtLXJldmVyc2UgbGluayBBUkNIMTExU0RMQyB0byBTRExDMkRlcGVuZGVuY3lNYW5hZ2VtZW50LS0+PGcgaWQ9ImxpbmtfQVJDSDExMVNETENfU0RMQzJEZXBlbmRlbmN5TWFuYWdlbWVudCI+PHBhdGggZD0iTTUwOS4xMDY2LDIyNjguNDA4OSBDNTM4LjA3NjYsMjI4OC41ODg5IDU2NC4zMSwyMzA2Ljg2IDU5My43NSwyMzI3LjM2ICIgZmlsbD0ibm9uZSIgaWQ9IkFSQ0gxMTFTRExDLWJhY2t0by1TRExDMkRlcGVuZGVuY3lNYW5hZ2VtZW50IiBzdHlsZT0ic3Ryb2tlOiMwMDAwMDA7c3Ryb2tlLXdpZHRoOjEuMDsiLz48cG9seWdvbiBmaWxsPSJub25lIiBwb2ludHM9IjQ5OS4yNiwyMjYxLjU1LDUwMS44OTcsMjI2OC4yNjE3LDUwOS4xMDY2LDIyNjguNDA4OSw1MDYuNDY5NiwyMjYxLjY5NzMsNDk5LjI2LDIyNjEuNTUiIHN0eWxlPSJzdHJva2U6IzAwMDAwMDtzdHJva2Utd2lkdGg6MS4wOyIvPjx0ZXh0IGZpbGw9IiMwMDAwMDAiIGZvbnQtZmFtaWx5PSJzYW5zLXNlcmlmIiBmb250LXNpemU9IjEyIiBsZW5ndGhBZGp1c3Q9InNwYWNpbmciIHRleHRMZW5ndGg9IjQiIHg9IjU0NiIgeT0iMjI5Mi42Mzg3Ij4mIzE2MDs8L3RleHQ+PC9nPjwhLS1saW5rIEFSQ0gxMTZEZXNpZ25hbmRBcmNoaXRlY3RTZWN1cml0eUluIHRvIFNETEMzVGVjaG5pY2Fsc3lzdGVtZG9jdW1lbnRhdGlvbi0tPjxnIGlkPSJsaW5rX0FSQ0gxMTZEZXNpZ25hbmRBcmNoaXRlY3RTZWN1cml0eUluX1NETEMzVGVjaG5pY2Fsc3lzdGVtZG9jdW1lbnRhdGlvbiI+PHBhdGggZD0iTTY1Ni4xOCwxNTYyLjE1IEM2NjguMTIsMTY5NC42NSA2OTguODQsMTk4MC4wMyA3NDgsMjA2NC41IEM3NTkuODUsMjA4NC44NyA3NzMuNDI3NSwyMDk4Ljg4NDYgNzkxLjczNzUsMjExMy4wNzQ2ICIgZmlsbD0ibm9uZSIgaWQ9IkFSQ0gxMTZEZXNpZ25hbmRBcmNoaXRlY3RTZWN1cml0eUluLXRvLVNETEMzVGVjaG5pY2Fsc3lzdGVtZG9jdW1lbnRhdGlvbiIgc3R5bGU9InN0cm9rZTojMDAwMDAwO3N0cm9rZS13aWR0aDoxLjA7c3Ryb2tlLWRhc2hhcnJheTo3LjAsNy4wOyIvPjxwb2x5Z29uIGZpbGw9IiMwMDAwMDAiIHBvaW50cz0iNzk2LjQ4LDIxMTYuNzUsNzkxLjgxNjUsMjEwOC4wNzUyLDc5Mi41Mjc5LDIxMTMuNjg3Miw3ODYuOTE2LDIxMTQuMzk4Niw3OTYuNDgsMjExNi43NSIgc3R5bGU9InN0cm9rZTojMDAwMDAwO3N0cm9rZS13aWR0aDoxLjA7Ii8+PHRleHQgZmlsbD0iIzAwMDAwMCIgZm9udC1mYW1pbHk9InNhbnMtc2VyaWYiIGZvbnQtc2l6ZT0iMTIiIGxlbmd0aEFkanVzdD0ic3BhY2luZyIgdGV4dExlbmd0aD0iNCIgeD0iNzQ5IiB5PSIyMDYxLjYzODciPiYjMTYwOzwvdGV4dD48L2c+PCEtLWxpbmsgU0RMQzREb2N1bWVudGhpZ2hsZXZlbGFyY2hpdGVjdHVyZWFuZHRocmVhdG1vZGVsIHRvIFNETEMzVGVjaG5pY2Fsc3lzdGVtZG9jdW1lbnRhdGlvbi0tPjxnIGlkPSJsaW5rX1NETEM0RG9jdW1lbnRoaWdobGV2ZWxhcmNoaXRlY3R1cmVhbmR0aHJlYXRtb2RlbF9TRExDM1RlY2huaWNhbHN5c3RlbWRvY3VtZW50YXRpb24iPjxwYXRoIGQ9Ik0xMDkuMzIsMjEwMi44OCBDMTQ2LjA4LDIxMTAuNzYgMTk3LjA2LDIxMTkuNSAyNDIuNSwyMTE5LjUgQzI0Mi41LDIxMTkuNSAyNDIuNSwyMTE5LjUgNjUwLjUsMjExOS41IEM3MDAsMjExOS41IDc0OS4zNzYzLDIxMjcuOTkzMiA3OTAuNDA2MywyMTM3LjIyMzIgIiBmaWxsPSJub25lIiBpZD0iU0RMQzREb2N1bWVudGhpZ2hsZXZlbGFyY2hpdGVjdHVyZWFuZHRocmVhdG1vZGVsLXRvLVNETEMzVGVjaG5pY2Fsc3lzdGVtZG9jdW1lbnRhdGlvbiIgc3R5bGU9InN0cm9rZTojMDAwMDAwO3N0cm9rZS13aWR0aDoxLjA7c3Ryb2tlLWRhc2hhcnJheTo3LjAsNy4wOyIvPjxwb2x5Z29uIGZpbGw9IiMwMDAwMDAiIHBvaW50cz0iNzk2LjI2LDIxMzguNTQsNzg4LjM1NzMsMjEzMi42NjIzLDc5MS4zODE5LDIxMzcuNDQyNiw3ODYuNjAxNSwyMTQwLjQ2NzIsNzk2LjI2LDIxMzguNTQiIHN0eWxlPSJzdHJva2U6IzAwMDAwMDtzdHJva2Utd2lkdGg6MS4wOyIvPjx0ZXh0IGZpbGw9IiMwMDAwMDAiIGZvbnQtZmFtaWx5PSJzYW5zLXNlcmlmIiBmb250LXNpemU9IjEyIiBsZW5ndGhBZGp1c3Q9InNwYWNpbmciIHRleHRMZW5ndGg9IjQiIHg9IjQ0NC41IiB5PSIyMTE2LjYzODciPiYjMTYwOzwvdGV4dD48L2c+PCEtLWxpbmsgQVJDSDEyNEF1dGhlbnRpY2F0aW9ucGF0aHMgdG8gVUkyUGxhdGZvcm1pbmRlcGVuZGVuY2UtLT48ZyBpZD0ibGlua19BUkNIMTI0QXV0aGVudGljYXRpb25wYXRoc19VSTJQbGF0Zm9ybWluZGVwZW5kZW5jZSI+PHBhdGggZD0iTTExMzcuMjcsMTI0OS4yMyBDMTE2MS4wOSwxMjUxLjI1IDExODEuNjgxNSwxMjUyLjk4MjkgMTIwNC43OTE1LDEyNTQuOTQyOSAiIGZpbGw9Im5vbmUiIGlkPSJBUkNIMTI0QXV0aGVudGljYXRpb25wYXRocy10by1VSTJQbGF0Zm9ybWluZGVwZW5kZW5jZSIgc3R5bGU9InN0cm9rZTojMDAwMDAwO3N0cm9rZS13aWR0aDoxLjA7c3Ryb2tlLWRhc2hhcnJheTo3LjAsNy4wOyIvPjxwb2x5Z29uIGZpbGw9IiMwMDAwMDAiIHBvaW50cz0iMTIxMC43NywxMjU1LjQ1LDEyMDIuMTQwMiwxMjUwLjcwMzcsMTIwNS43ODc5LDEyNTUuMDI3NSwxMjAxLjQ2NDIsMTI1OC42NzUxLDEyMTAuNzcsMTI1NS40NSIgc3R5bGU9InN0cm9rZTojMDAwMDAwO3N0cm9rZS13aWR0aDoxLjA7Ii8+PHRleHQgZmlsbD0iIzAwMDAwMCIgZm9udC1mYW1pbHk9InNhbnMtc2VyaWYiIGZvbnQtc2l6ZT0iMTIiIGxlbmd0aEFkanVzdD0ic3BhY2luZyIgdGV4dExlbmd0aD0iNCIgeD0iMTE2OCIgeT0iMTI0OC42Mzg3Ij4mIzE2MDs8L3RleHQ+PC9nPjwhLS1saW5rIEFSQ0gxNDFBY2Nlc3NFbmZvcmNlbWVudFBvaW50cyB0byBVSTJQbGF0Zm9ybWluZGVwZW5kZW5jZS0tPjxnIGlkPSJsaW5rX0FSQ0gxNDFBY2Nlc3NFbmZvcmNlbWVudFBvaW50c19VSTJQbGF0Zm9ybWluZGVwZW5kZW5jZSI+PHBhdGggZD0iTTExMzcuMTEsMTM2Mi41OCBDMTE0OS4zNiwxMzU2LjQ4IDExNjEuNzksMTM0OS43IDExNzMsMTM0Mi41IEMxMTg2LjQ5LDEzMzMuODQgMTE5NS41MTUxLDEzMjcuMjk4IDEyMDguMTg1MSwxMzE2LjkzOCAiIGZpbGw9Im5vbmUiIGlkPSJBUkNIMTQxQWNjZXNzRW5mb3JjZW1lbnRQb2ludHMtdG8tVUkyUGxhdGZvcm1pbmRlcGVuZGVuY2UiIHN0eWxlPSJzdHJva2U6IzAwMDAwMDtzdHJva2Utd2lkdGg6MS4wO3N0cm9rZS1kYXNoYXJyYXk6Ny4wLDcuMDsiLz48cG9seWdvbiBmaWxsPSIjMDAwMDAwIiBwb2ludHM9IjEyMTIuODMsMTMxMy4xNCwxMjAzLjMzMDcsMTMxNS43NDA1LDEyMDguOTU5MywxMzE2LjMwNSwxMjA4LjM5NDcsMTMyMS45MzM2LDEyMTIuODMsMTMxMy4xNCIgc3R5bGU9InN0cm9rZTojMDAwMDAwO3N0cm9rZS13aWR0aDoxLjA7Ii8+PHRleHQgZmlsbD0iIzAwMDAwMCIgZm9udC1mYW1pbHk9InNhbnMtc2VyaWYiIGZvbnQtc2l6ZT0iMTIiIGxlbmd0aEFkanVzdD0ic3BhY2luZyIgdGV4dExlbmd0aD0iNCIgeD0iMTE2OCIgeT0iMTMzOS42Mzg3Ij4mIzE2MDs8L3RleHQ+PC9nPjwhLS1saW5rIEFSQ0gxMjRBdXRoZW50aWNhdGlvbnBhdGhzIHRvIEJBQ0sxUGxhdGZvcm1TdXBwb3J0LS0+PGcgaWQ9ImxpbmtfQVJDSDEyNEF1dGhlbnRpY2F0aW9ucGF0aHNfQkFDSzFQbGF0Zm9ybVN1cHBvcnQiPjxwYXRoIGQ9Ik0xMTI3LjM0LDEyODguMDMgQzExNDIuMjQsMTI5OS41NiAxMTU4LjI0LDEzMTEuOTYgMTE3MywxMzIzLjUgQzExOTAuODUsMTMzNy40NCAxMjA1Ljc1NSwxMzQ5LjE3NjYgMTIyMi42NzUsMTM2Mi41NjY2ICIgZmlsbD0ibm9uZSIgaWQ9IkFSQ0gxMjRBdXRoZW50aWNhdGlvbnBhdGhzLXRvLUJBQ0sxUGxhdGZvcm1TdXBwb3J0IiBzdHlsZT0ic3Ryb2tlOiMwMDAwMDA7c3Ryb2tlLXdpZHRoOjEuMDtzdHJva2UtZGFzaGFycmF5OjcuMCw3LjA7Ii8+PHBvbHlnb24gZmlsbD0iIzAwMDAwMCIgcG9pbnRzPSIxMjI3LjM4LDEzNjYuMjksMTIyMi44MDQ4LDEzNTcuNTY4MywxMjIzLjQ1OTIsMTM2My4xODcyLDEyMTcuODQwMywxMzYzLjg0MTYsMTIyNy4zOCwxMzY2LjI5IiBzdHlsZT0ic3Ryb2tlOiMwMDAwMDA7c3Ryb2tlLXdpZHRoOjEuMDsiLz48dGV4dCBmaWxsPSIjMDAwMDAwIiBmb250LWZhbWlseT0ic2Fucy1zZXJpZiIgZm9udC1zaXplPSIxMiIgbGVuZ3RoQWRqdXN0PSJzcGFjaW5nIiB0ZXh0TGVuZ3RoPSI0IiB4PSIxMTY4IiB5PSIxMzE1LjYzODciPiYjMTYwOzwvdGV4dD48L2c+PCEtLWxpbmsgQVJDSDE0MUFjY2Vzc0VuZm9yY2VtZW50UG9pbnRzIHRvIEJBQ0sxUGxhdGZvcm1TdXBwb3J0LS0+PGcgaWQ9ImxpbmtfQVJDSDE0MUFjY2Vzc0VuZm9yY2VtZW50UG9pbnRzX0JBQ0sxUGxhdGZvcm1TdXBwb3J0Ij48cGF0aCBkPSJNMTEzNy4wMSwxNDQwLjIzIEMxMTQ2LjY5LDE0NDUuMjUgMTE1Ni44MywxNDQ5LjU4IDExNjcsMTQ1Mi41IEMxMTg3Ljc4LDE0NTguNDYgMTIwNC4zMDU3LDE0NTMuNDgzMiAxMjIyLjM0NTcsMTQ0MS45NDMyICIgZmlsbD0ibm9uZSIgaWQ9IkFSQ0gxNDFBY2Nlc3NFbmZvcmNlbWVudFBvaW50cy10by1CQUNLMVBsYXRmb3JtU3VwcG9ydCIgc3R5bGU9InN0cm9rZTojMDAwMDAwO3N0cm9rZS13aWR0aDoxLjA7c3Ryb2tlLWRhc2hhcnJheTo3LjAsNy4wOyIvPjxwb2x5Z29uIGZpbGw9IiMwMDAwMDAiIHBvaW50cz0iMTIyNy40LDE0MzguNzEsMTIxNy42NjMsMTQ0MC4xOTAzLDEyMjMuMTg4LDE0NDEuNDA0MywxMjIxLjk3NCwxNDQ2LjkyOTQsMTIyNy40LDE0MzguNzEiIHN0eWxlPSJzdHJva2U6IzAwMDAwMDtzdHJva2Utd2lkdGg6MS4wOyIvPjx0ZXh0IGZpbGw9IiMwMDAwMDAiIGZvbnQtZmFtaWx5PSJzYW5zLXNlcmlmIiBmb250LXNpemU9IjEyIiBsZW5ndGhBZGp1c3Q9InNwYWNpbmciIHRleHRMZW5ndGg9IjQiIHg9IjExNjgiIHk9IjE0NDkuNjM4NyI+JiMxNjA7PC90ZXh0PjwvZz48IS0tbGluayBBUkNIMTUyU2VyaWFsaXphdGlvbiB0byBJTkZPNlNlY3VyZURhdGFTdG9yYWdlLS0+PGcgaWQ9ImxpbmtfQVJDSDE1MlNlcmlhbGl6YXRpb25fSU5GTzZTZWN1cmVEYXRhU3RvcmFnZSI+PHBhdGggZD0iTTkyNy42NiwxODQxLjQ3IEM5ODUuODksMTg2MS44MSAxMDcwLjc0LDE4ODAuMjQgMTEzNywxODQ4LjUgQzExODUuNywxODI1LjE3IDEyMTkuMjkzMiwxNzc5LjY2OTUgMTI0MS43MzMyLDE3NDAuMzk5NSAiIGZpbGw9Im5vbmUiIGlkPSJBUkNIMTUyU2VyaWFsaXphdGlvbi10by1JTkZPNlNlY3VyZURhdGFTdG9yYWdlIiBzdHlsZT0ic3Ryb2tlOiMwMDAwMDA7c3Ryb2tlLXdpZHRoOjEuMDtzdHJva2UtZGFzaGFycmF5OjcuMCw3LjA7Ii8+PHBvbHlnb24gZmlsbD0iIzAwMDAwMCIgcG9pbnRzPSIxMjQ0LjcxLDE3MzUuMTksMTIzNi43NzE4LDE3NDEuMDE5NiwxMjQyLjIyOTMsMTczOS41MzEyLDEyNDMuNzE3NywxNzQ0Ljk4ODcsMTI0NC43MSwxNzM1LjE5IiBzdHlsZT0ic3Ryb2tlOiMwMDAwMDA7c3Ryb2tlLXdpZHRoOjEuMDsiLz48dGV4dCBmaWxsPSIjMDAwMDAwIiBmb250LWZhbWlseT0ic2Fucy1zZXJpZiIgZm9udC1zaXplPSIxMiIgbGVuZ3RoQWRqdXN0PSJzcGFjaW5nIiB0ZXh0TGVuZ3RoPSI0IiB4PSIxMDY2LjUiIHk9IjE4NDUuNjM4NyI+JiMxNjA7PC90ZXh0PjwvZz48IS0tbGluayBBUkNIMTYyS2V5cHJvdGVjdGlvbiB0byBJTkZPNlNlY3VyZURhdGFTdG9yYWdlLS0+PGcgaWQ9ImxpbmtfQVJDSDE2MktleXByb3RlY3Rpb25fSU5GTzZTZWN1cmVEYXRhU3RvcmFnZSI+PHBhdGggZD0iTTExMzcuMDIsMTY4MS41MiBDMTE0Ni44NiwxNjg1LjIyIDExNTcuMDQsMTY4OC40IDExNjcsMTY5MC41IEMxMTg2LjQsMTY5NC41OSAxMjAyLjI4NzgsMTY5NC40NDU2IDEyMjAuODc3OCwxNjkyLjA4NTYgIiBmaWxsPSJub25lIiBpZD0iQVJDSDE2MktleXByb3RlY3Rpb24tdG8tSU5GTzZTZWN1cmVEYXRhU3RvcmFnZSIgc3R5bGU9InN0cm9rZTojMDAwMDAwO3N0cm9rZS13aWR0aDoxLjA7c3Ryb2tlLWRhc2hhcnJheTo3LjAsNy4wOyIvPjxwb2x5Z29uIGZpbGw9IiMwMDAwMDAiIHBvaW50cz0iMTIyNi44MywxNjkxLjMzLDEyMTcuMzk3OSwxNjg4LjQ5NTMsMTIyMS44Njk4LDE2OTEuOTU5NywxMjE4LjQwNTQsMTY5Ni40MzE2LDEyMjYuODMsMTY5MS4zMyIgc3R5bGU9InN0cm9rZTojMDAwMDAwO3N0cm9rZS13aWR0aDoxLjA7Ii8+PHRleHQgZmlsbD0iIzAwMDAwMCIgZm9udC1mYW1pbHk9InNhbnMtc2VyaWYiIGZvbnQtc2l6ZT0iMTIiIGxlbmd0aEFkanVzdD0ic3BhY2luZyIgdGV4dExlbmd0aD0iNCIgeD0iMTE2OCIgeT0iMTY4Ny42Mzg3Ij4mIzE2MDs8L3RleHQ+PC9nPjwhLS1saW5rIEFSQ0gxNjNLZXlyZXBsYWNlbWVudCB0byBJTkZPNlNlY3VyZURhdGFTdG9yYWdlLS0+PGcgaWQ9ImxpbmtfQVJDSDE2M0tleXJlcGxhY2VtZW50X0lORk82U2VjdXJlRGF0YVN0b3JhZ2UiPjxwYXRoIGQ9Ik0xMTE4Ljg1LDE1NjguMiBDMTEyNS4wMSwxNTczLjk3IDExMzEuMTksMTU3OS44NCAxMTM3LDE1ODUuNSBDMTE1MC43MywxNTk4Ljg4IDExNTIuMTUsMTYwNC4zNyAxMTY3LDE2MTYuNSBDMTE4NS41NywxNjMxLjY2IDEyMDIuNjgsMTY0My4xMzgyIDEyMjEuNzcsMTY1NC43MTgyICIgZmlsbD0ibm9uZSIgaWQ9IkFSQ0gxNjNLZXlyZXBsYWNlbWVudC10by1JTkZPNlNlY3VyZURhdGFTdG9yYWdlIiBzdHlsZT0ic3Ryb2tlOiMwMDAwMDA7c3Ryb2tlLXdpZHRoOjEuMDtzdHJva2UtZGFzaGFycmF5OjcuMCw3LjA7Ii8+PHBvbHlnb24gZmlsbD0iIzAwMDAwMCIgcG9pbnRzPSIxMjI2LjksMTY1Ny44MywxMjIxLjI3OTYsMTY0OS43NDIzLDEyMjIuNjI1LDE2NTUuMjM2OCwxMjE3LjEzMDUsMTY1Ni41ODIyLDEyMjYuOSwxNjU3LjgzIiBzdHlsZT0ic3Ryb2tlOiMwMDAwMDA7c3Ryb2tlLXdpZHRoOjEuMDsiLz48dGV4dCBmaWxsPSIjMDAwMDAwIiBmb250LWZhbWlseT0ic2Fucy1zZXJpZiIgZm9udC1zaXplPSIxMiIgbGVuZ3RoQWRqdXN0PSJzcGFjaW5nIiB0ZXh0TGVuZ3RoPSI0IiB4PSIxMTY4IiB5PSIxNjEzLjYzODciPiYjMTYwOzwvdGV4dD48L2c+PCEtLWxpbmsgQVJDSDE0NEFjY2Vzc0NvbnRyb2xNZWNoYW5pc20gdG8gSU5GTzdEYXRhYWNjZXNzY29udHJvbC0tPjxnIGlkPSJsaW5rX0FSQ0gxNDRBY2Nlc3NDb250cm9sTWVjaGFuaXNtX0lORk83RGF0YWFjY2Vzc2NvbnRyb2wiPjxwYXRoIGQ9Ik05MTcuNTcsMTIxMC45NyBDOTIzLjI2LDEyMDUuMjEgOTI4Ljg0LDExOTkuMzIgOTM0LDExOTMuNSBDMTAwMC4xLDExMTguOTkgOTY3LjksMTAxMy41IDEwNjcuNSwxMDEzLjUgQzEwNjcuNSwxMDEzLjUgMTA2Ny41LDEwMTMuNSAxNDYzLjUsMTAxMy41IEMxNTEwLjMxLDEwMTMuNSAxNTQyLjQzMjUsMTAyOS43NjY4IDE1NzQuODQyNSwxMDU0LjIyNjggIiBmaWxsPSJub25lIiBpZD0iQVJDSDE0NEFjY2Vzc0NvbnRyb2xNZWNoYW5pc20tdG8tSU5GTzdEYXRhYWNjZXNzY29udHJvbCIgc3R5bGU9InN0cm9rZTojMDAwMDAwO3N0cm9rZS13aWR0aDoxLjA7c3Ryb2tlLWRhc2hhcnJheToxLjAsMy4wOyIvPjxwb2x5Z29uIGZpbGw9Im5vbmUiIHBvaW50cz0iMTU4OS4yMSwxMDY1LjA3LDE1NzguNDU2OSwxMDQ5LjQzNzYsMTU3MS4yMjgxLDEwNTkuMDE1OSwxNTg5LjIxLDEwNjUuMDciIHN0eWxlPSJzdHJva2U6IzAwMDAwMDtzdHJva2Utd2lkdGg6MS4wOyIvPjx0ZXh0IGZpbGw9IiMwMDAwMDAiIGZvbnQtZmFtaWx5PSJzYW5zLXNlcmlmIiBmb250LXNpemU9IjEyIiBsZW5ndGhBZGp1c3Q9InNwYWNpbmciIHRleHRMZW5ndGg9IjQiIHg9IjEyNjkuNSIgeT0iMTAxMC42Mzg3Ij4mIzE2MDs8L3RleHQ+PC9nPjwhLS1saW5rIEFVVEgxTG9jYWxVc2VyRGF0YWJhc2UgdG8gSU5GTzdEYXRhYWNjZXNzY29udHJvbC0tPjxnIGlkPSJsaW5rX0FVVEgxTG9jYWxVc2VyRGF0YWJhc2VfSU5GTzdEYXRhYWNjZXNzY29udHJvbCI+PHBhdGggZD0iTTE1MTEuNjIsMTEyMS40IEMxNTM2LjA5LDExMTcuNzkgMTU1OS42NjQyLDExMTQuMzE1NCAxNTgzLjQ2NDIsMTExMC44MDU0ICIgZmlsbD0ibm9uZSIgaWQ9IkFVVEgxTG9jYWxVc2VyRGF0YWJhc2UtdG8tSU5GTzdEYXRhYWNjZXNzY29udHJvbCIgc3R5bGU9InN0cm9rZTojMDAwMDAwO3N0cm9rZS13aWR0aDoxLjA7c3Ryb2tlLWRhc2hhcnJheTo3LjAsNy4wOyIvPjxwb2x5Z29uIGZpbGw9IiMwMDAwMDAiIHBvaW50cz0iMTU4OS40LDExMDkuOTMsMTU3OS45MTI3LDExMDcuMjg1OSwxNTg0LjQ1MzUsMTExMC42NTk1LDE1ODEuMDc5OSwxMTE1LjIwMDMsMTU4OS40LDExMDkuOTMiIHN0eWxlPSJzdHJva2U6IzAwMDAwMDtzdHJva2Utd2lkdGg6MS4wOyIvPjx0ZXh0IGZpbGw9IiMwMDAwMDAiIGZvbnQtZmFtaWx5PSJzYW5zLXNlcmlmIiBmb250LXNpemU9IjEyIiBsZW5ndGhBZGp1c3Q9InNwYWNpbmciIHRleHRMZW5ndGg9IjQiIHg9IjE1NTAiIHk9IjExMTEuNjM4NyI+JiMxNjA7PC90ZXh0PjwvZz48IS0tbGluayBBVVRIMlJlbW90ZXVzZXJkYXRhYmFzZSB0byBJTkZPN0RhdGFhY2Nlc3Njb250cm9sLS0+PGcgaWQ9ImxpbmtfQVVUSDJSZW1vdGV1c2VyZGF0YWJhc2VfSU5GTzdEYXRhYWNjZXNzY29udHJvbCI+PHBhdGggZD0iTTE1MTEuOTIsMTI0Ny41MiBDMTUyNi43MiwxMjM5LjcyIDE1NDIuNCwxMjI5Ljk0IDE1NTUsMTIxOC41IEMxNTY1Ljk4LDEyMDguNTIgMTU4MS4xODYsMTE4Ni42NDM4IDE1OTcuMzc2LDExNjEuMzQzOCAiIGZpbGw9Im5vbmUiIGlkPSJBVVRIMlJlbW90ZXVzZXJkYXRhYmFzZS10by1JTkZPN0RhdGFhY2Nlc3Njb250cm9sIiBzdHlsZT0ic3Ryb2tlOiMwMDAwMDA7c3Ryb2tlLXdpZHRoOjEuMDtzdHJva2UtZGFzaGFycmF5OjcuMCw3LjA7Ii8+PHBvbHlnb24gZmlsbD0iIzAwMDAwMCIgcG9pbnRzPSIxNjAwLjYxLDExNTYuMjksMTU5Mi4zODk3LDExNjEuNzE0NywxNTk3LjkxNSwxMTYwLjUwMTUsMTU5OS4xMjgxLDExNjYuMDI2NywxNjAwLjYxLDExNTYuMjkiIHN0eWxlPSJzdHJva2U6IzAwMDAwMDtzdHJva2Utd2lkdGg6MS4wOyIvPjx0ZXh0IGZpbGw9IiMwMDAwMDAiIGZvbnQtZmFtaWx5PSJzYW5zLXNlcmlmIiBmb250LXNpemU9IjEyIiBsZW5ndGhBZGp1c3Q9InNwYWNpbmciIHRleHRMZW5ndGg9IjQiIHg9IjE1NTAiIHk9IjEyMTUuNjM4NyI+JiMxNjA7PC90ZXh0PjwvZz48IS0tbGluayBBUkNIMTYyS2V5cHJvdGVjdGlvbiB0byBJTkZPOFNlY3VyZURhdGFUcmFuc21pc3Npb24tLT48ZyBpZD0ibGlua19BUkNIMTYyS2V5cHJvdGVjdGlvbl9JTkZPOFNlY3VyZURhdGFUcmFuc21pc3Npb24iPjxwYXRoIGQ9Ik0xMTM3LjI3LDE2MTEuNDIgQzExNjIuNjgsMTU5Ny44OSAxMTg1LjkzMzYsMTU4NS41MTkzIDEyMTAuMDczNiwxNTcyLjY2OTMgIiBmaWxsPSJub25lIiBpZD0iQVJDSDE2MktleXByb3RlY3Rpb24tdG8tSU5GTzhTZWN1cmVEYXRhVHJhbnNtaXNzaW9uIiBzdHlsZT0ic3Ryb2tlOiMwMDAwMDA7c3Ryb2tlLXdpZHRoOjEuMDtzdHJva2UtZGFzaGFycmF5OjcuMCw3LjA7Ii8+PHBvbHlnb24gZmlsbD0iIzAwMDAwMCIgcG9pbnRzPSIxMjE1LjM3LDE1NjkuODUsMTIwNS41NDU5LDE1NzAuNTQ4MSwxMjEwLjk1NjQsMTU3Mi4xOTk0LDEyMDkuMzA1LDE1NzcuNjA5OSwxMjE1LjM3LDE1NjkuODUiIHN0eWxlPSJzdHJva2U6IzAwMDAwMDtzdHJva2Utd2lkdGg6MS4wOyIvPjx0ZXh0IGZpbGw9IiMwMDAwMDAiIGZvbnQtZmFtaWx5PSJzYW5zLXNlcmlmIiBmb250LXNpemU9IjEyIiBsZW5ndGhBZGp1c3Q9InNwYWNpbmciIHRleHRMZW5ndGg9IjQiIHg9IjExNjgiIHk9IjE1OTAuNjM4NyI+JiMxNjA7PC90ZXh0PjwvZz48IS0tbGluayBBUkNIMTYzS2V5cmVwbGFjZW1lbnQgdG8gSU5GTzhTZWN1cmVEYXRhVHJhbnNtaXNzaW9uLS0+PGcgaWQ9ImxpbmtfQVJDSDE2M0tleXJlcGxhY2VtZW50X0lORk84U2VjdXJlRGF0YVRyYW5zbWlzc2lvbiI+PHBhdGggZD0iTTExMzcuMjcsMTUyOS4yMyBDMTE2Mi42OCwxNTMxLjM4IDExODUuMjUxMywxNTMzLjI5NDggMTIwOS4zOTEzLDE1MzUuMzM0OCAiIGZpbGw9Im5vbmUiIGlkPSJBUkNIMTYzS2V5cmVwbGFjZW1lbnQtdG8tSU5GTzhTZWN1cmVEYXRhVHJhbnNtaXNzaW9uIiBzdHlsZT0ic3Ryb2tlOiMwMDAwMDA7c3Ryb2tlLXdpZHRoOjEuMDtzdHJva2UtZGFzaGFycmF5OjcuMCw3LjA7Ii8+PHBvbHlnb24gZmlsbD0iIzAwMDAwMCIgcG9pbnRzPSIxMjE1LjM3LDE1MzUuODQsMTIwNi43Mzg4LDE1MzEuMDk2MywxMjEwLjM4NzgsMTUzNS40MTksMTIwNi4wNjUxLDE1MzkuMDY3OSwxMjE1LjM3LDE1MzUuODQiIHN0eWxlPSJzdHJva2U6IzAwMDAwMDtzdHJva2Utd2lkdGg6MS4wOyIvPjx0ZXh0IGZpbGw9IiMwMDAwMDAiIGZvbnQtZmFtaWx5PSJzYW5zLXNlcmlmIiBmb250LXNpemU9IjEyIiBsZW5ndGhBZGp1c3Q9InNwYWNpbmciIHRleHRMZW5ndGg9IjQiIHg9IjExNjgiIHk9IjE1MjguNjM4NyI+JiMxNjA7PC90ZXh0PjwvZz48IS0tbGluayBBUkNIMTkxQ29tbXVuaWNhdGlvblByb3RlY3Rpb24gdG8gSU5GTzhTZWN1cmVEYXRhVHJhbnNtaXNzaW9uLS0+PGcgaWQ9ImxpbmtfQVJDSDE5MUNvbW11bmljYXRpb25Qcm90ZWN0aW9uX0lORk84U2VjdXJlRGF0YVRyYW5zbWlzc2lvbiI+PHBhdGggZD0iTTExMjYuMTUsODIwLjM4IEMxMTMwLjQsODI1LjczIDExMzQuMTQsODMxLjQ2IDExMzcsODM3LjUgQzExODcuNTcsOTQ0LjMyIDExNDMuNzcsMTI1Mi42MiAxMTY3LDEzNjguNSBDMTE3Ni40NSwxNDE1LjY0IDExNzcuNzQsMTQyOS42IDEyMDMsMTQ3MC41IEMxMjA2LjY0LDE0NzYuMzkgMTE5OS41NDA1LDE0NjguMTc4NiAxMjA0LjA0MDUsMTQ3My43NTg2ICIgZmlsbD0ibm9uZSIgaWQ9IkFSQ0gxOTFDb21tdW5pY2F0aW9uUHJvdGVjdGlvbi10by1JTkZPOFNlY3VyZURhdGFUcmFuc21pc3Npb24iIHN0eWxlPSJzdHJva2U6IzAwMDAwMDtzdHJva2Utd2lkdGg6MS4wO3N0cm9rZS1kYXNoYXJyYXk6MS4wLDMuMDsiLz48cG9seWdvbiBmaWxsPSJub25lIiBwb2ludHM9IjEyMTUuMzQsMTQ4Ny43NywxMjA4LjcxMDksMTQ2OS45OTIxLDExOTkuMzcsMTQ3Ny41MjUxLDEyMTUuMzQsMTQ4Ny43NyIgc3R5bGU9InN0cm9rZTojMDAwMDAwO3N0cm9rZS13aWR0aDoxLjA7Ii8+PHRleHQgZmlsbD0iIzAwMDAwMCIgZm9udC1mYW1pbHk9InNhbnMtc2VyaWYiIGZvbnQtc2l6ZT0iMTIiIGxlbmd0aEFkanVzdD0ic3BhY2luZyIgdGV4dExlbmd0aD0iNCIgeD0iMTE2OCIgeT0iMTM2NS42Mzg3Ij4mIzE2MDs8L3RleHQ+PC9nPjwhLS1yZXZlcnNlIGxpbmsgQVJDSDExNkRlc2lnbmFuZEFyY2hpdGVjdFNlY3VyaXR5SW4gdG8gQVJDSDE5MUNvbW11bmljYXRpb25Qcm90ZWN0aW9uLS0+PGcgaWQ9ImxpbmtfQVJDSDExNkRlc2lnbmFuZEFyY2hpdGVjdFNlY3VyaXR5SW5fQVJDSDE5MUNvbW11bmljYXRpb25Qcm90ZWN0aW9uIj48cGF0aCBkPSJNNjU2LjUyMjEsMTQxMi45NzExIEM2NjguODEyMSwxMjY0LjgzMTEgNzA0LjM2LDkzMy43NyA3ODQsODUzLjUgQzg0MC45LDc5Ni4xNSA5MzUuNzgsNzc5LjkgOTk5Ljk1LDc3NS44NSAiIGZpbGw9Im5vbmUiIGlkPSJBUkNIMTE2RGVzaWduYW5kQXJjaGl0ZWN0U2VjdXJpdHlJbi1iYWNrdG8tQVJDSDE5MUNvbW11bmljYXRpb25Qcm90ZWN0aW9uIiBzdHlsZT0ic3Ryb2tlOiMwMDAwMDA7c3Ryb2tlLXdpZHRoOjEuMDsiLz48cG9seWdvbiBmaWxsPSJub25lIiBwb2ludHM9IjY1NS41MywxNDI0LjkzLDY2MC4wMTI0LDE0MTkuMjgxMyw2NTYuNTIyMSwxNDEyLjk3MTEsNjUyLjAzOTgsMTQxOC42MTk4LDY1NS41MywxNDI0LjkzIiBzdHlsZT0ic3Ryb2tlOiMwMDAwMDA7c3Ryb2tlLXdpZHRoOjEuMDsiLz48dGV4dCBmaWxsPSIjMDAwMDAwIiBmb250LWZhbWlseT0ic2Fucy1zZXJpZiIgZm9udC1zaXplPSIxMiIgbGVuZ3RoQWRqdXN0PSJzcGFjaW5nIiB0ZXh0TGVuZ3RoPSI0IiB4PSI4NTciIHk9Ijc4MS42Mzg3Ij4mIzE2MDs8L3RleHQ+PC9nPjwhLS1saW5rIEFSQ0gxMjJDb21wb25lbnRDb21tdW5pY2F0aW9uIHRvIEFSQ0gxOTFDb21tdW5pY2F0aW9uUHJvdGVjdGlvbi0tPjxnIGlkPSJsaW5rX0FSQ0gxMjJDb21wb25lbnRDb21tdW5pY2F0aW9uX0FSQ0gxOTFDb21tdW5pY2F0aW9uUHJvdGVjdGlvbiI+PHBhdGggZD0iTTkyNy42Niw3MjkgQzk1MC44NCw3MzYuNzEgOTc2Ljc2LDc0NS4zMyA5OTkuOTQsNzUzLjAzICIgZmlsbD0ibm9uZSIgaWQ9IkFSQ0gxMjJDb21wb25lbnRDb21tdW5pY2F0aW9uLUFSQ0gxOTFDb21tdW5pY2F0aW9uUHJvdGVjdGlvbiIgc3R5bGU9InN0cm9rZTojMDAwMDAwO3N0cm9rZS13aWR0aDoyLjA7Ii8+PHRleHQgZmlsbD0iIzAwMDAwMCIgZm9udC1mYW1pbHk9InNhbnMtc2VyaWYiIGZvbnQtc2l6ZT0iMTIiIGxlbmd0aEFkanVzdD0ic3BhY2luZyIgdGV4dExlbmd0aD0iNCIgeD0iOTY1IiB5PSI3NDAuNjM4NyI+JiMxNjA7PC90ZXh0PjwvZz48IS0tU1JDPVtoTGJUUnppczU3dEZoeVpvajA5QjFhY3NxbUJSMERUVUx3Rjk2aUo5Y3UxMmJNWVBXNG92OFhOMF9WTXg5RkwxSVZvR3ZSdFBra1NVTmJxVU5idklsczBJUHNNMmhsLThZZFlGM241M2xvX2hOdHpUUE1aN2hiYi1OVTFxcHd1Sk5BMk91UG5TTkp0YzNCejVfRlV0UF9JWjFDQzE0VlJocE1oWmxIQnllcUlSMUZ4WjdLUjVwTV9ORHRfMnl2M1NYYUdRR3dBT3RyZDhfMk1iWUI3SjRVcTFvYUN5TE5JLWUxRmNhNzEwSTVnOFpKOU9DYlJXeG9MM2pBOEE5NU54c0VPLVVxUVBDRDB6RmpPQ0N5N0dqVFg4dmV5SElJQU01d1VlN3luU0szTnNhNEpadWhmVmJQSmJYd1pFTHlydEJfWWE0U1pRVkRkZWJneWxkX3JkVENXUEFZYWc4OUplVXFJSGVFSXNNdi1fQkpVN1gwRDJxYTNDZjlqX0Z0c1RCS2lVOTRFOWNCYTRxcFhfR3VNU0wwd3VYTEdzYzZQLU12b1RWaHg2REZnVWVPZTFubmtvb3VrM0dGeUppSnFnQzRkUmlJM05iS0NwQTh2MWN3ckpnQlpQaWh6T2JXYmMzdGJRUE5xWDlTS1ZYZUdfamtWUVV5WlpBN2s1SkF1N2dWT3UwTFhYeE9YQ2h5VGJzV0M5Ykw0Nl9talNZSzZ5aW9WNExOQS1zY09keWZsQ3UzT2x3SjJQVllVN01DclhFWUE3ZEVFVWxyaUtudVoyVDREbVVUUkl0eWl0MW1hQlVxWGdYOXRvX0hSNVBPNnV3cWlINE5oMGIwQW12TnFWNFdjZi1KaW0teEc1Sm1ORTJ5bkUtS3ZUOWhJVEYyV2pESU9hLVF3X01ib3ZOeEpIUnc0UUgyYmcwcl9xMHd5SGJmWVZMdnl6Ql9ZNDhXUC01NmVDYm5IS1hhT1k3NzdodE5idDQ3V0RXdklKZjVQVjNOT0R1aF9pMl8wX3YwZEFRZmFxdjIwTFFHdjkwdDBHLWx1Z0ZubnBoYmR1U0lXOVpXTEs5Vk92U0dDSkZuTVdRdTAwckJsZGN2QjRGdzl1N241QzN6cUgwZzVvMUhTZ0lDU0dpemJJUTdTYmJRaVRPTlI3MnMwYnlHZnVuWDN0SzRkSWo5Vm0tcGpIRy1IcHJ5SHZfWWtYOW5CbFl2cFdkb1lYMzJmblBfaDRfN0wxTjFTU3ZZQVZVTGtLNVlXVEo5cXR1cDZnSFdWTG1sLTJKaVMyVGcydXB4Tld5TzRyOThoVEhIVTBHdTZFTUhJQm5ycy1lRTlKMFF2Tk5RbUhuSWJWRWdBVHVkNjh2R2dMT0REenpKak9vSDlTaFJKNmVMaFhlZFhpWTdsZ2prazdMUFVROXZLX1Q4Yl9yWE5yNEdlc3hHZl9EWEktSEJiNHhxYXJfeXF0MTljeGZubUpIaGtnenJoTEFxWWVkWEJoNjZKa1JzNV9ZSkJ5U3cyaUVMVDNyLWVZMnBSYU1COHRTNFdxVDA2VjJ4MjdINDZ1QTZUVkltTy0yN1FqZkJTd3Zwb3JxaW90djBoV2RFajBMRDFhNi10d2dwRWVnWWllSUxaREw1bVFpdEtVYl9wbDdiaHkzQnIxM3JsQjN1ZV93OTZyWExtQzk5bjRVckR4eWl1eHRPVDRVOEU2NVZ6QXFLb2p6Z3Z0LSAtMXIybFVKVGY1X3U4aGZ1NDhMUVR6TTB6NUd5THNKUnNWQWRYZXFsUFJTS2dOUDdnX19iOUxHTUhLelctM2dQX1JTVW56QmQyTlI0c05lcUVITWRmRTQxSVBHc2ttcV9YZVQ0TzQzTE5vMnJXdlFXQVEyMlFrU2dtT1ktaHlRUDJTRU5jM1Z1VmREZzhXWmdJUXlOSEsyOUdQZWU5MHIwT09rZm1DdDNfTXd5UlBuV0gzS0x2ZmRmSlgyV01tZXgybW9nd19MdUw2WUdYTE4yS25ZUktGMEQ0TUN6d0dPcWIzYjBiTmlDYUtyVzNVbDJpSEMtZDZ2LWtCTE5qbG9VQ21CY05QWHc3N016ZFROUzRweTFhVUNoRUpxYmR4OXRncURVQU9pUGx0T1hYMGpWVUVPQlVfUzV2XzRyY28xdXBjTVFURHFaRHd4eEl0ZmZScFFwVlhJS2NEeE1uNUpjaVRPOUpSczFFRnVmV1BneFhUQ1dUaFF3ZDZLYXNDclpObVhSeC1Ua1BIa3FEMk9LZ2RmZS1tQ2FxRmdEcUhkSHNHV2MxZkdVdDJ3YUNYbVdCZ09MVXR0QllOaDdpQ2FzcERnYVpwY0g2b3VqSGdLUFZDalhmTFhHWkl3LXFmakU5T2g4SmpGTHZ0NlFwbGhwUDIxb04zUEVlQWd6dEJrc3BoRHZRMXNDck54c2dhLVpjWXFScDN3M2RWZzA3ZXZ3aXU1cWRyeEgzNU12NlktbGpUel9EM2VzS1FXLSAtM1hKRkxhanczcHFLRl9paHRsOU9DbDhBRnpqMnpqTWt3VFlvcHJWZHRtTGhQaTNaLUFRQ09SbHNvQ05vX3F0UVpqcGg4cDVuVk15X3ZUc0FMcV9SaW04cl9KUkd5RWktRFN6MFROR3NsbDNEdnpPbHJWcGFtSlhoN3Rxd1FwZ1B4NlVmenM3ZktuOGt0MVRhOHVQXzFlLVpuM2hUUnhRLXczcF9GTk4wMVIyT09ib3RPRUNOcFQ2aVBZeDJoRU9KMXE0d0NmQjBhckRLX2RQVE5FQ2FvanpLaEdKSll2NTloN0RQd1E3Sk5WSGxhVl0tLT48L2c+PC9zdmc+;" parent="1" vertex="1">
            <mxGeometry x="0" y="0" width="1690px" height="2424px" as="geometry" />
          </mxCell>
        </UserObject>
      </root>
    </mxGraphModel>
  </diagram>
</mxfile>